<mxfile host="Electron" agent="Mozilla/5.0 (Windows NT 10.0; Win64; x64) AppleWebKit/537.36 (KHTML, like Gecko) draw.io/24.7.5 Chrome/126.0.6478.183 Electron/31.3.0 Safari/537.36" version="24.7.5">
  <diagram id="6nWe4BnJwlojFTNRIB6B" name="Страница — 2">
    <mxGraphModel dx="1952" dy="3292" grid="0" gridSize="10" guides="1" tooltips="1" connect="1" arrows="1" fold="1" page="0" pageScale="1" pageWidth="3300" pageHeight="4681" math="0" shadow="0">
      <root>
        <mxCell id="0" />
        <mxCell id="1" parent="0" />
        <mxCell id="JOeTYDWikCB6O97tGtDO-24" value="General settings" style="shape=table;startSize=36;container=1;collapsible=0;childLayout=tableLayout;fixedRows=1;rowLines=0;fontStyle=0;strokeColor=default;fontSize=16;sketch=1;hachureGap=4;jiggle=2;curveFitting=1;fontFamily=Architects Daughter;fontSource=https%3A%2F%2Ffonts.googleapis.com%2Fcss%3Ffamily%3DArchitects%2BDaughter;" parent="1" vertex="1">
          <mxGeometry x="-688" y="154" width="278" height="130" as="geometry" />
        </mxCell>
        <mxCell id="JOeTYDWikCB6O97tGtDO-25" value="" style="shape=tableRow;horizontal=0;startSize=0;swimlaneHead=0;swimlaneBody=0;top=0;left=0;bottom=0;right=0;collapsible=0;dropTarget=0;fillColor=none;points=[[0,0.5],[1,0.5]];portConstraint=eastwest;strokeColor=inherit;fontSize=16;sketch=1;hachureGap=4;jiggle=2;curveFitting=1;fontFamily=Architects Daughter;fontSource=https%3A%2F%2Ffonts.googleapis.com%2Fcss%3Ffamily%3DArchitects%2BDaughter;" parent="JOeTYDWikCB6O97tGtDO-24" vertex="1">
          <mxGeometry y="36" width="278" height="30" as="geometry" />
        </mxCell>
        <mxCell id="JOeTYDWikCB6O97tGtDO-26" value="1" style="shape=partialRectangle;html=1;whiteSpace=wrap;connectable=0;fillColor=none;top=0;left=0;bottom=0;right=0;overflow=hidden;pointerEvents=1;strokeColor=inherit;fontSize=16;sketch=1;hachureGap=4;jiggle=2;curveFitting=1;fontFamily=Architects Daughter;fontSource=https%3A%2F%2Ffonts.googleapis.com%2Fcss%3Ffamily%3DArchitects%2BDaughter;" parent="JOeTYDWikCB6O97tGtDO-25" vertex="1">
          <mxGeometry width="40" height="30" as="geometry">
            <mxRectangle width="40" height="30" as="alternateBounds" />
          </mxGeometry>
        </mxCell>
        <mxCell id="JOeTYDWikCB6O97tGtDO-27" value="Set account main settings" style="shape=partialRectangle;html=1;whiteSpace=wrap;connectable=0;fillColor=none;top=0;left=0;bottom=0;right=0;align=left;spacingLeft=6;overflow=hidden;strokeColor=inherit;fontSize=16;sketch=1;hachureGap=4;jiggle=2;curveFitting=1;fontFamily=Architects Daughter;fontSource=https%3A%2F%2Ffonts.googleapis.com%2Fcss%3Ffamily%3DArchitects%2BDaughter;" parent="JOeTYDWikCB6O97tGtDO-25" vertex="1">
          <mxGeometry x="40" width="238" height="30" as="geometry">
            <mxRectangle width="238" height="30" as="alternateBounds" />
          </mxGeometry>
        </mxCell>
        <mxCell id="JOeTYDWikCB6O97tGtDO-28" value="" style="shape=tableRow;horizontal=0;startSize=0;swimlaneHead=0;swimlaneBody=0;top=0;left=0;bottom=0;right=0;collapsible=0;dropTarget=0;fillColor=none;points=[[0,0.5],[1,0.5]];portConstraint=eastwest;strokeColor=inherit;fontSize=16;sketch=1;hachureGap=4;jiggle=2;curveFitting=1;fontFamily=Architects Daughter;fontSource=https%3A%2F%2Ffonts.googleapis.com%2Fcss%3Ffamily%3DArchitects%2BDaughter;" parent="JOeTYDWikCB6O97tGtDO-24" vertex="1">
          <mxGeometry y="66" width="278" height="30" as="geometry" />
        </mxCell>
        <mxCell id="JOeTYDWikCB6O97tGtDO-29" value="2" style="shape=partialRectangle;html=1;whiteSpace=wrap;connectable=0;fillColor=none;top=0;left=0;bottom=0;right=0;overflow=hidden;strokeColor=inherit;fontSize=16;sketch=1;hachureGap=4;jiggle=2;curveFitting=1;fontFamily=Architects Daughter;fontSource=https%3A%2F%2Ffonts.googleapis.com%2Fcss%3Ffamily%3DArchitects%2BDaughter;" parent="JOeTYDWikCB6O97tGtDO-28" vertex="1">
          <mxGeometry width="40" height="30" as="geometry">
            <mxRectangle width="40" height="30" as="alternateBounds" />
          </mxGeometry>
        </mxCell>
        <mxCell id="JOeTYDWikCB6O97tGtDO-30" value="Download company backup" style="shape=partialRectangle;html=1;whiteSpace=wrap;connectable=0;fillColor=none;top=0;left=0;bottom=0;right=0;align=left;spacingLeft=6;overflow=hidden;strokeColor=inherit;fontSize=16;sketch=1;hachureGap=4;jiggle=2;curveFitting=1;fontFamily=Architects Daughter;fontSource=https%3A%2F%2Ffonts.googleapis.com%2Fcss%3Ffamily%3DArchitects%2BDaughter;" parent="JOeTYDWikCB6O97tGtDO-28" vertex="1">
          <mxGeometry x="40" width="238" height="30" as="geometry">
            <mxRectangle width="238" height="30" as="alternateBounds" />
          </mxGeometry>
        </mxCell>
        <mxCell id="JOeTYDWikCB6O97tGtDO-31" value="" style="shape=tableRow;horizontal=0;startSize=0;swimlaneHead=0;swimlaneBody=0;top=0;left=0;bottom=0;right=0;collapsible=0;dropTarget=0;fillColor=none;points=[[0,0.5],[1,0.5]];portConstraint=eastwest;strokeColor=inherit;fontSize=16;sketch=1;hachureGap=4;jiggle=2;curveFitting=1;fontFamily=Architects Daughter;fontSource=https%3A%2F%2Ffonts.googleapis.com%2Fcss%3Ffamily%3DArchitects%2BDaughter;" parent="JOeTYDWikCB6O97tGtDO-24" vertex="1">
          <mxGeometry y="96" width="278" height="30" as="geometry" />
        </mxCell>
        <mxCell id="JOeTYDWikCB6O97tGtDO-32" value="3" style="shape=partialRectangle;html=1;whiteSpace=wrap;connectable=0;fillColor=none;top=0;left=0;bottom=0;right=0;overflow=hidden;strokeColor=inherit;fontSize=16;sketch=1;hachureGap=4;jiggle=2;curveFitting=1;fontFamily=Architects Daughter;fontSource=https%3A%2F%2Ffonts.googleapis.com%2Fcss%3Ffamily%3DArchitects%2BDaughter;" parent="JOeTYDWikCB6O97tGtDO-31" vertex="1">
          <mxGeometry width="40" height="30" as="geometry">
            <mxRectangle width="40" height="30" as="alternateBounds" />
          </mxGeometry>
        </mxCell>
        <mxCell id="JOeTYDWikCB6O97tGtDO-33" value="Delete company account" style="shape=partialRectangle;html=1;whiteSpace=wrap;connectable=0;fillColor=none;top=0;left=0;bottom=0;right=0;align=left;spacingLeft=6;overflow=hidden;strokeColor=inherit;fontSize=16;sketch=1;hachureGap=4;jiggle=2;curveFitting=1;fontFamily=Architects Daughter;fontSource=https%3A%2F%2Ffonts.googleapis.com%2Fcss%3Ffamily%3DArchitects%2BDaughter;" parent="JOeTYDWikCB6O97tGtDO-31" vertex="1">
          <mxGeometry x="40" width="238" height="30" as="geometry">
            <mxRectangle width="238" height="30" as="alternateBounds" />
          </mxGeometry>
        </mxCell>
        <mxCell id="JOeTYDWikCB6O97tGtDO-37" value="See public holidays or company specific days off" style="shape=table;startSize=36;container=1;collapsible=0;childLayout=tableLayout;fixedRows=1;rowLines=0;fontStyle=0;strokeColor=default;fontSize=16;sketch=1;hachureGap=4;jiggle=2;curveFitting=1;fontFamily=Architects Daughter;fontSource=https%3A%2F%2Ffonts.googleapis.com%2Fcss%3Ffamily%3DArchitects%2BDaughter;" parent="1" vertex="1">
          <mxGeometry x="-689" y="1851" width="505.75" height="191.75" as="geometry" />
        </mxCell>
        <mxCell id="JOeTYDWikCB6O97tGtDO-38" value="" style="shape=tableRow;horizontal=0;startSize=0;swimlaneHead=0;swimlaneBody=0;top=0;left=0;bottom=0;right=0;collapsible=0;dropTarget=0;fillColor=none;points=[[0,0.5],[1,0.5]];portConstraint=eastwest;strokeColor=inherit;fontSize=16;sketch=1;hachureGap=4;jiggle=2;curveFitting=1;fontFamily=Architects Daughter;fontSource=https%3A%2F%2Ffonts.googleapis.com%2Fcss%3Ffamily%3DArchitects%2BDaughter;" parent="JOeTYDWikCB6O97tGtDO-37" vertex="1">
          <mxGeometry y="36" width="505.75" height="30" as="geometry" />
        </mxCell>
        <mxCell id="JOeTYDWikCB6O97tGtDO-39" value="1" style="shape=partialRectangle;html=1;whiteSpace=wrap;connectable=0;fillColor=none;top=0;left=0;bottom=0;right=0;overflow=hidden;pointerEvents=1;strokeColor=inherit;fontSize=16;sketch=1;hachureGap=4;jiggle=2;curveFitting=1;fontFamily=Architects Daughter;fontSource=https%3A%2F%2Ffonts.googleapis.com%2Fcss%3Ffamily%3DArchitects%2BDaughter;" parent="JOeTYDWikCB6O97tGtDO-38" vertex="1">
          <mxGeometry width="69" height="30" as="geometry">
            <mxRectangle width="69" height="30" as="alternateBounds" />
          </mxGeometry>
        </mxCell>
        <mxCell id="JOeTYDWikCB6O97tGtDO-40" value="&lt;div style=&quot;text-align: center;&quot;&gt;&lt;span style=&quot;background-color: initial; text-wrap: nowrap;&quot;&gt;Choose location to see the list of public holidays&lt;/span&gt;&lt;/div&gt;" style="shape=partialRectangle;html=1;whiteSpace=wrap;connectable=0;fillColor=none;top=0;left=0;bottom=0;right=0;align=left;spacingLeft=6;overflow=hidden;strokeColor=inherit;fontSize=16;sketch=1;hachureGap=4;jiggle=2;curveFitting=1;fontFamily=Architects Daughter;fontSource=https%3A%2F%2Ffonts.googleapis.com%2Fcss%3Ffamily%3DArchitects%2BDaughter;" parent="JOeTYDWikCB6O97tGtDO-38" vertex="1">
          <mxGeometry x="69" width="437" height="30" as="geometry">
            <mxRectangle width="437" height="30" as="alternateBounds" />
          </mxGeometry>
        </mxCell>
        <mxCell id="JOeTYDWikCB6O97tGtDO-153" value="" style="shape=tableRow;horizontal=0;startSize=0;swimlaneHead=0;swimlaneBody=0;top=0;left=0;bottom=0;right=0;collapsible=0;dropTarget=0;fillColor=none;points=[[0,0.5],[1,0.5]];portConstraint=eastwest;strokeColor=inherit;fontSize=16;sketch=1;hachureGap=4;jiggle=2;curveFitting=1;fontFamily=Architects Daughter;fontSource=https%3A%2F%2Ffonts.googleapis.com%2Fcss%3Ffamily%3DArchitects%2BDaughter;" parent="JOeTYDWikCB6O97tGtDO-37" vertex="1">
          <mxGeometry y="66" width="505.75" height="32" as="geometry" />
        </mxCell>
        <mxCell id="JOeTYDWikCB6O97tGtDO-154" value="2" style="shape=partialRectangle;html=1;whiteSpace=wrap;connectable=0;fillColor=none;top=0;left=0;bottom=0;right=0;overflow=hidden;pointerEvents=1;strokeColor=inherit;fontSize=16;sketch=1;hachureGap=4;jiggle=2;curveFitting=1;fontFamily=Architects Daughter;fontSource=https%3A%2F%2Ffonts.googleapis.com%2Fcss%3Ffamily%3DArchitects%2BDaughter;" parent="JOeTYDWikCB6O97tGtDO-153" vertex="1">
          <mxGeometry width="69" height="32" as="geometry">
            <mxRectangle width="69" height="32" as="alternateBounds" />
          </mxGeometry>
        </mxCell>
        <mxCell id="JOeTYDWikCB6O97tGtDO-155" value="&lt;div style=&quot;text-align: center;&quot;&gt;&lt;span style=&quot;text-wrap: nowrap;&quot;&gt;Add new holiday into the chosen location hoolidays&#39; list&lt;/span&gt;&lt;/div&gt;" style="shape=partialRectangle;html=1;whiteSpace=wrap;connectable=0;fillColor=none;top=0;left=0;bottom=0;right=0;align=left;spacingLeft=6;overflow=hidden;strokeColor=inherit;fontSize=16;sketch=1;hachureGap=4;jiggle=2;curveFitting=1;fontFamily=Architects Daughter;fontSource=https%3A%2F%2Ffonts.googleapis.com%2Fcss%3Ffamily%3DArchitects%2BDaughter;" parent="JOeTYDWikCB6O97tGtDO-153" vertex="1">
          <mxGeometry x="69" width="437" height="32" as="geometry">
            <mxRectangle width="437" height="32" as="alternateBounds" />
          </mxGeometry>
        </mxCell>
        <mxCell id="JOeTYDWikCB6O97tGtDO-156" value="" style="shape=tableRow;horizontal=0;startSize=0;swimlaneHead=0;swimlaneBody=0;top=0;left=0;bottom=0;right=0;collapsible=0;dropTarget=0;fillColor=none;points=[[0,0.5],[1,0.5]];portConstraint=eastwest;strokeColor=inherit;fontSize=16;sketch=1;hachureGap=4;jiggle=2;curveFitting=1;fontFamily=Architects Daughter;fontSource=https%3A%2F%2Ffonts.googleapis.com%2Fcss%3Ffamily%3DArchitects%2BDaughter;" parent="JOeTYDWikCB6O97tGtDO-37" vertex="1">
          <mxGeometry y="98" width="505.75" height="30" as="geometry" />
        </mxCell>
        <mxCell id="JOeTYDWikCB6O97tGtDO-157" value="3" style="shape=partialRectangle;html=1;whiteSpace=wrap;connectable=0;fillColor=none;top=0;left=0;bottom=0;right=0;overflow=hidden;pointerEvents=1;strokeColor=inherit;fontSize=16;sketch=1;hachureGap=4;jiggle=2;curveFitting=1;fontFamily=Architects Daughter;fontSource=https%3A%2F%2Ffonts.googleapis.com%2Fcss%3Ffamily%3DArchitects%2BDaughter;" parent="JOeTYDWikCB6O97tGtDO-156" vertex="1">
          <mxGeometry width="69" height="30" as="geometry">
            <mxRectangle width="69" height="30" as="alternateBounds" />
          </mxGeometry>
        </mxCell>
        <mxCell id="JOeTYDWikCB6O97tGtDO-158" value="&lt;div style=&quot;text-align: center;&quot;&gt;&lt;span style=&quot;text-wrap: nowrap;&quot;&gt;Delete public holiday from the list&lt;/span&gt;&lt;/div&gt;" style="shape=partialRectangle;html=1;whiteSpace=wrap;connectable=0;fillColor=none;top=0;left=0;bottom=0;right=0;align=left;spacingLeft=6;overflow=hidden;strokeColor=inherit;fontSize=16;sketch=1;hachureGap=4;jiggle=2;curveFitting=1;fontFamily=Architects Daughter;fontSource=https%3A%2F%2Ffonts.googleapis.com%2Fcss%3Ffamily%3DArchitects%2BDaughter;" parent="JOeTYDWikCB6O97tGtDO-156" vertex="1">
          <mxGeometry x="69" width="437" height="30" as="geometry">
            <mxRectangle width="437" height="30" as="alternateBounds" />
          </mxGeometry>
        </mxCell>
        <mxCell id="JOeTYDWikCB6O97tGtDO-159" value="" style="shape=tableRow;horizontal=0;startSize=0;swimlaneHead=0;swimlaneBody=0;top=0;left=0;bottom=0;right=0;collapsible=0;dropTarget=0;fillColor=none;points=[[0,0.5],[1,0.5]];portConstraint=eastwest;strokeColor=inherit;fontSize=16;sketch=1;hachureGap=4;jiggle=2;curveFitting=1;fontFamily=Architects Daughter;fontSource=https%3A%2F%2Ffonts.googleapis.com%2Fcss%3Ffamily%3DArchitects%2BDaughter;" parent="JOeTYDWikCB6O97tGtDO-37" vertex="1">
          <mxGeometry y="128" width="505.75" height="30" as="geometry" />
        </mxCell>
        <mxCell id="JOeTYDWikCB6O97tGtDO-160" value="4" style="shape=partialRectangle;html=1;whiteSpace=wrap;connectable=0;fillColor=none;top=0;left=0;bottom=0;right=0;overflow=hidden;pointerEvents=1;strokeColor=inherit;fontSize=16;sketch=1;hachureGap=4;jiggle=2;curveFitting=1;fontFamily=Architects Daughter;fontSource=https%3A%2F%2Ffonts.googleapis.com%2Fcss%3Ffamily%3DArchitects%2BDaughter;" parent="JOeTYDWikCB6O97tGtDO-159" vertex="1">
          <mxGeometry width="69" height="30" as="geometry">
            <mxRectangle width="69" height="30" as="alternateBounds" />
          </mxGeometry>
        </mxCell>
        <mxCell id="JOeTYDWikCB6O97tGtDO-161" value="Import default bank holidays for selected location" style="shape=partialRectangle;html=1;whiteSpace=wrap;connectable=0;fillColor=none;top=0;left=0;bottom=0;right=0;align=left;spacingLeft=6;overflow=hidden;strokeColor=inherit;fontSize=16;sketch=1;hachureGap=4;jiggle=2;curveFitting=1;fontFamily=Architects Daughter;fontSource=https%3A%2F%2Ffonts.googleapis.com%2Fcss%3Ffamily%3DArchitects%2BDaughter;" parent="JOeTYDWikCB6O97tGtDO-159" vertex="1">
          <mxGeometry x="69" width="437" height="30" as="geometry">
            <mxRectangle width="437" height="30" as="alternateBounds" />
          </mxGeometry>
        </mxCell>
        <mxCell id="JOeTYDWikCB6O97tGtDO-162" value="" style="shape=tableRow;horizontal=0;startSize=0;swimlaneHead=0;swimlaneBody=0;top=0;left=0;bottom=0;right=0;collapsible=0;dropTarget=0;fillColor=none;points=[[0,0.5],[1,0.5]];portConstraint=eastwest;strokeColor=inherit;fontSize=16;sketch=1;hachureGap=4;jiggle=2;curveFitting=1;fontFamily=Architects Daughter;fontSource=https%3A%2F%2Ffonts.googleapis.com%2Fcss%3Ffamily%3DArchitects%2BDaughter;" parent="JOeTYDWikCB6O97tGtDO-37" vertex="1">
          <mxGeometry y="158" width="505.75" height="30" as="geometry" />
        </mxCell>
        <mxCell id="JOeTYDWikCB6O97tGtDO-163" value="5" style="shape=partialRectangle;html=1;whiteSpace=wrap;connectable=0;fillColor=none;top=0;left=0;bottom=0;right=0;overflow=hidden;pointerEvents=1;strokeColor=inherit;fontSize=16;sketch=1;hachureGap=4;jiggle=2;curveFitting=1;fontFamily=Architects Daughter;fontSource=https%3A%2F%2Ffonts.googleapis.com%2Fcss%3Ffamily%3DArchitects%2BDaughter;" parent="JOeTYDWikCB6O97tGtDO-162" vertex="1">
          <mxGeometry width="69" height="30" as="geometry">
            <mxRectangle width="69" height="30" as="alternateBounds" />
          </mxGeometry>
        </mxCell>
        <mxCell id="JOeTYDWikCB6O97tGtDO-164" value="Change the year" style="shape=partialRectangle;html=1;whiteSpace=wrap;connectable=0;fillColor=none;top=0;left=0;bottom=0;right=0;align=left;spacingLeft=6;overflow=hidden;strokeColor=inherit;fontSize=16;sketch=1;hachureGap=4;jiggle=2;curveFitting=1;fontFamily=Architects Daughter;fontSource=https%3A%2F%2Ffonts.googleapis.com%2Fcss%3Ffamily%3DArchitects%2BDaughter;" parent="JOeTYDWikCB6O97tGtDO-162" vertex="1">
          <mxGeometry x="69" width="437" height="30" as="geometry">
            <mxRectangle width="437" height="30" as="alternateBounds" />
          </mxGeometry>
        </mxCell>
        <mxCell id="JOeTYDWikCB6O97tGtDO-50" value="Carry over unused allowance to the next year" style="shape=table;startSize=36;container=1;collapsible=0;childLayout=tableLayout;fixedRows=1;rowLines=0;fontStyle=0;strokeColor=default;fontSize=16;sketch=1;hachureGap=4;jiggle=2;curveFitting=1;fontFamily=Architects Daughter;fontSource=https%3A%2F%2Ffonts.googleapis.com%2Fcss%3Ffamily%3DArchitects%2BDaughter;" parent="1" vertex="1">
          <mxGeometry x="432" y="1060" width="656" height="130" as="geometry" />
        </mxCell>
        <mxCell id="JOeTYDWikCB6O97tGtDO-51" value="" style="shape=tableRow;horizontal=0;startSize=0;swimlaneHead=0;swimlaneBody=0;top=0;left=0;bottom=0;right=0;collapsible=0;dropTarget=0;fillColor=none;points=[[0,0.5],[1,0.5]];portConstraint=eastwest;strokeColor=inherit;fontSize=16;sketch=1;hachureGap=4;jiggle=2;curveFitting=1;fontFamily=Architects Daughter;fontSource=https%3A%2F%2Ffonts.googleapis.com%2Fcss%3Ffamily%3DArchitects%2BDaughter;" parent="JOeTYDWikCB6O97tGtDO-50" vertex="1">
          <mxGeometry y="36" width="656" height="30" as="geometry" />
        </mxCell>
        <mxCell id="JOeTYDWikCB6O97tGtDO-52" value="1" style="shape=partialRectangle;html=1;whiteSpace=wrap;connectable=0;fillColor=none;top=0;left=0;bottom=0;right=0;overflow=hidden;pointerEvents=1;strokeColor=inherit;fontSize=16;sketch=1;hachureGap=4;jiggle=2;curveFitting=1;fontFamily=Architects Daughter;fontSource=https%3A%2F%2Ffonts.googleapis.com%2Fcss%3Ffamily%3DArchitects%2BDaughter;" parent="JOeTYDWikCB6O97tGtDO-51" vertex="1">
          <mxGeometry width="95" height="30" as="geometry">
            <mxRectangle width="95" height="30" as="alternateBounds" />
          </mxGeometry>
        </mxCell>
        <mxCell id="JOeTYDWikCB6O97tGtDO-53" value="&lt;div style=&quot;text-align: center;&quot;&gt;&lt;span style=&quot;background-color: initial; text-wrap: nowrap;&quot;&gt;Define carry over policy - set max number of days&amp;nbsp;&lt;/span&gt;&lt;span style=&quot;text-wrap: nowrap; background-color: initial;&quot;&gt;to be carried over&lt;/span&gt;&lt;/div&gt;" style="shape=partialRectangle;html=1;whiteSpace=wrap;connectable=0;fillColor=none;top=0;left=0;bottom=0;right=0;align=left;spacingLeft=6;overflow=hidden;strokeColor=inherit;fontSize=16;sketch=1;hachureGap=4;jiggle=2;curveFitting=1;fontFamily=Architects Daughter;fontSource=https%3A%2F%2Ffonts.googleapis.com%2Fcss%3Ffamily%3DArchitects%2BDaughter;" parent="JOeTYDWikCB6O97tGtDO-51" vertex="1">
          <mxGeometry x="95" width="561" height="30" as="geometry">
            <mxRectangle width="561" height="30" as="alternateBounds" />
          </mxGeometry>
        </mxCell>
        <mxCell id="JOeTYDWikCB6O97tGtDO-54" value="" style="shape=tableRow;horizontal=0;startSize=0;swimlaneHead=0;swimlaneBody=0;top=0;left=0;bottom=0;right=0;collapsible=0;dropTarget=0;fillColor=none;points=[[0,0.5],[1,0.5]];portConstraint=eastwest;strokeColor=inherit;fontSize=16;sketch=1;hachureGap=4;jiggle=2;curveFitting=1;fontFamily=Architects Daughter;fontSource=https%3A%2F%2Ffonts.googleapis.com%2Fcss%3Ffamily%3DArchitects%2BDaughter;" parent="JOeTYDWikCB6O97tGtDO-50" vertex="1">
          <mxGeometry y="66" width="656" height="30" as="geometry" />
        </mxCell>
        <mxCell id="JOeTYDWikCB6O97tGtDO-55" value="2" style="shape=partialRectangle;html=1;whiteSpace=wrap;connectable=0;fillColor=none;top=0;left=0;bottom=0;right=0;overflow=hidden;pointerEvents=1;strokeColor=inherit;fontSize=16;sketch=1;hachureGap=4;jiggle=2;curveFitting=1;fontFamily=Architects Daughter;fontSource=https%3A%2F%2Ffonts.googleapis.com%2Fcss%3Ffamily%3DArchitects%2BDaughter;" parent="JOeTYDWikCB6O97tGtDO-54" vertex="1">
          <mxGeometry width="95" height="30" as="geometry">
            <mxRectangle width="95" height="30" as="alternateBounds" />
          </mxGeometry>
        </mxCell>
        <mxCell id="JOeTYDWikCB6O97tGtDO-56" value="&lt;span style=&quot;text-align: center; text-wrap: nowrap;&quot;&gt;Select employees, set days&amp;nbsp;&lt;/span&gt;&lt;span style=&quot;text-align: center; text-wrap: nowrap;&quot;&gt;to be carried over&lt;/span&gt;&lt;span style=&quot;text-align: center; text-wrap: nowrap;&quot;&gt;&amp;nbsp;to the next year&amp;nbsp;&lt;/span&gt;" style="shape=partialRectangle;html=1;whiteSpace=wrap;connectable=0;fillColor=none;top=0;left=0;bottom=0;right=0;align=left;spacingLeft=6;overflow=hidden;strokeColor=inherit;fontSize=16;sketch=1;hachureGap=4;jiggle=2;curveFitting=1;fontFamily=Architects Daughter;fontSource=https%3A%2F%2Ffonts.googleapis.com%2Fcss%3Ffamily%3DArchitects%2BDaughter;" parent="JOeTYDWikCB6O97tGtDO-54" vertex="1">
          <mxGeometry x="95" width="561" height="30" as="geometry">
            <mxRectangle width="561" height="30" as="alternateBounds" />
          </mxGeometry>
        </mxCell>
        <mxCell id="JOeTYDWikCB6O97tGtDO-79" value="" style="shape=tableRow;horizontal=0;startSize=0;swimlaneHead=0;swimlaneBody=0;top=0;left=0;bottom=0;right=0;collapsible=0;dropTarget=0;fillColor=none;points=[[0,0.5],[1,0.5]];portConstraint=eastwest;strokeColor=inherit;fontSize=16;sketch=1;hachureGap=4;jiggle=2;curveFitting=1;fontFamily=Architects Daughter;fontSource=https%3A%2F%2Ffonts.googleapis.com%2Fcss%3Ffamily%3DArchitects%2BDaughter;" parent="JOeTYDWikCB6O97tGtDO-50" vertex="1">
          <mxGeometry y="96" width="656" height="30" as="geometry" />
        </mxCell>
        <mxCell id="JOeTYDWikCB6O97tGtDO-80" value="3" style="shape=partialRectangle;html=1;whiteSpace=wrap;connectable=0;fillColor=none;top=0;left=0;bottom=0;right=0;overflow=hidden;pointerEvents=1;strokeColor=inherit;fontSize=16;sketch=1;hachureGap=4;jiggle=2;curveFitting=1;fontFamily=Architects Daughter;fontSource=https%3A%2F%2Ffonts.googleapis.com%2Fcss%3Ffamily%3DArchitects%2BDaughter;" parent="JOeTYDWikCB6O97tGtDO-79" vertex="1">
          <mxGeometry width="95" height="30" as="geometry">
            <mxRectangle width="95" height="30" as="alternateBounds" />
          </mxGeometry>
        </mxCell>
        <mxCell id="JOeTYDWikCB6O97tGtDO-81" value="&lt;div style=&quot;text-align: center;&quot;&gt;&lt;span style=&quot;background-color: initial; text-wrap: nowrap;&quot;&gt;Choose the exact department to see their employees&lt;/span&gt;&lt;/div&gt;" style="shape=partialRectangle;html=1;whiteSpace=wrap;connectable=0;fillColor=none;top=0;left=0;bottom=0;right=0;align=left;spacingLeft=6;overflow=hidden;strokeColor=inherit;fontSize=16;sketch=1;hachureGap=4;jiggle=2;curveFitting=1;fontFamily=Architects Daughter;fontSource=https%3A%2F%2Ffonts.googleapis.com%2Fcss%3Ffamily%3DArchitects%2BDaughter;" parent="JOeTYDWikCB6O97tGtDO-79" vertex="1">
          <mxGeometry x="95" width="561" height="30" as="geometry">
            <mxRectangle width="561" height="30" as="alternateBounds" />
          </mxGeometry>
        </mxCell>
        <mxCell id="JOeTYDWikCB6O97tGtDO-57" value="Add custom leave/absence type, manage and tune it or customize the old ones" style="shape=table;startSize=36;container=1;collapsible=0;childLayout=tableLayout;fixedRows=1;rowLines=0;fontStyle=0;strokeColor=default;fontSize=16;sketch=1;hachureGap=4;jiggle=2;curveFitting=1;fontFamily=Architects Daughter;fontSource=https%3A%2F%2Ffonts.googleapis.com%2Fcss%3Ffamily%3DArchitects%2BDaughter;" parent="1" vertex="1">
          <mxGeometry x="-684" y="871" width="617.75" height="220" as="geometry" />
        </mxCell>
        <mxCell id="JOeTYDWikCB6O97tGtDO-58" value="" style="shape=tableRow;horizontal=0;startSize=0;swimlaneHead=0;swimlaneBody=0;top=0;left=0;bottom=0;right=0;collapsible=0;dropTarget=0;fillColor=none;points=[[0,0.5],[1,0.5]];portConstraint=eastwest;strokeColor=inherit;fontSize=16;sketch=1;hachureGap=4;jiggle=2;curveFitting=1;fontFamily=Architects Daughter;fontSource=https%3A%2F%2Ffonts.googleapis.com%2Fcss%3Ffamily%3DArchitects%2BDaughter;" parent="JOeTYDWikCB6O97tGtDO-57" vertex="1">
          <mxGeometry y="36" width="617.75" height="30" as="geometry" />
        </mxCell>
        <mxCell id="JOeTYDWikCB6O97tGtDO-59" value="1" style="shape=partialRectangle;html=1;whiteSpace=wrap;connectable=0;fillColor=none;top=0;left=0;bottom=0;right=0;overflow=hidden;pointerEvents=1;strokeColor=inherit;fontSize=16;sketch=1;hachureGap=4;jiggle=2;curveFitting=1;fontFamily=Architects Daughter;fontSource=https%3A%2F%2Ffonts.googleapis.com%2Fcss%3Ffamily%3DArchitects%2BDaughter;" parent="JOeTYDWikCB6O97tGtDO-58" vertex="1">
          <mxGeometry width="69" height="30" as="geometry">
            <mxRectangle width="69" height="30" as="alternateBounds" />
          </mxGeometry>
        </mxCell>
        <mxCell id="JOeTYDWikCB6O97tGtDO-60" value="&lt;span style=&quot;text-wrap: nowrap; text-align: center;&quot;&gt;Limit the amount of days employee can take&amp;nbsp;&lt;/span&gt;&lt;span style=&quot;text-wrap: nowrap; background-color: initial; text-align: center;&quot;&gt;during the year&amp;nbsp;&lt;/span&gt;" style="shape=partialRectangle;html=1;whiteSpace=wrap;connectable=0;fillColor=none;top=0;left=0;bottom=0;right=0;align=left;spacingLeft=6;overflow=hidden;strokeColor=inherit;fontSize=16;sketch=1;hachureGap=4;jiggle=2;curveFitting=1;fontFamily=Architects Daughter;fontSource=https%3A%2F%2Ffonts.googleapis.com%2Fcss%3Ffamily%3DArchitects%2BDaughter;" parent="JOeTYDWikCB6O97tGtDO-58" vertex="1">
          <mxGeometry x="69" width="549" height="30" as="geometry">
            <mxRectangle width="549" height="30" as="alternateBounds" />
          </mxGeometry>
        </mxCell>
        <mxCell id="JOeTYDWikCB6O97tGtDO-61" value="" style="shape=tableRow;horizontal=0;startSize=0;swimlaneHead=0;swimlaneBody=0;top=0;left=0;bottom=0;right=0;collapsible=0;dropTarget=0;fillColor=none;points=[[0,0.5],[1,0.5]];portConstraint=eastwest;strokeColor=inherit;fontSize=16;sketch=1;hachureGap=4;jiggle=2;curveFitting=1;fontFamily=Architects Daughter;fontSource=https%3A%2F%2Ffonts.googleapis.com%2Fcss%3Ffamily%3DArchitects%2BDaughter;" parent="JOeTYDWikCB6O97tGtDO-57" vertex="1">
          <mxGeometry y="66" width="617.75" height="30" as="geometry" />
        </mxCell>
        <mxCell id="JOeTYDWikCB6O97tGtDO-62" value="2" style="shape=partialRectangle;html=1;whiteSpace=wrap;connectable=0;fillColor=none;top=0;left=0;bottom=0;right=0;overflow=hidden;pointerEvents=1;strokeColor=inherit;fontSize=16;sketch=1;hachureGap=4;jiggle=2;curveFitting=1;fontFamily=Architects Daughter;fontSource=https%3A%2F%2Ffonts.googleapis.com%2Fcss%3Ffamily%3DArchitects%2BDaughter;" parent="JOeTYDWikCB6O97tGtDO-61" vertex="1">
          <mxGeometry width="69" height="30" as="geometry">
            <mxRectangle width="69" height="30" as="alternateBounds" />
          </mxGeometry>
        </mxCell>
        <mxCell id="JOeTYDWikCB6O97tGtDO-63" value="&lt;div style=&quot;text-align: center;&quot;&gt;&lt;span style=&quot;background-color: initial; text-wrap: nowrap;&quot;&gt;Define if the leave type deduct from allowance&lt;/span&gt;&lt;/div&gt;" style="shape=partialRectangle;html=1;whiteSpace=wrap;connectable=0;fillColor=none;top=0;left=0;bottom=0;right=0;align=left;spacingLeft=6;overflow=hidden;strokeColor=inherit;fontSize=16;sketch=1;hachureGap=4;jiggle=2;curveFitting=1;fontFamily=Architects Daughter;fontSource=https%3A%2F%2Ffonts.googleapis.com%2Fcss%3Ffamily%3DArchitects%2BDaughter;" parent="JOeTYDWikCB6O97tGtDO-61" vertex="1">
          <mxGeometry x="69" width="549" height="30" as="geometry">
            <mxRectangle width="549" height="30" as="alternateBounds" />
          </mxGeometry>
        </mxCell>
        <mxCell id="JOeTYDWikCB6O97tGtDO-64" value="" style="shape=tableRow;horizontal=0;startSize=0;swimlaneHead=0;swimlaneBody=0;top=0;left=0;bottom=0;right=0;collapsible=0;dropTarget=0;fillColor=none;points=[[0,0.5],[1,0.5]];portConstraint=eastwest;strokeColor=inherit;fontSize=16;sketch=1;hachureGap=4;jiggle=2;curveFitting=1;fontFamily=Architects Daughter;fontSource=https%3A%2F%2Ffonts.googleapis.com%2Fcss%3Ffamily%3DArchitects%2BDaughter;" parent="JOeTYDWikCB6O97tGtDO-57" vertex="1">
          <mxGeometry y="96" width="617.75" height="30" as="geometry" />
        </mxCell>
        <mxCell id="JOeTYDWikCB6O97tGtDO-65" value="3" style="shape=partialRectangle;html=1;whiteSpace=wrap;connectable=0;fillColor=none;top=0;left=0;bottom=0;right=0;overflow=hidden;pointerEvents=1;strokeColor=inherit;fontSize=16;sketch=1;hachureGap=4;jiggle=2;curveFitting=1;fontFamily=Architects Daughter;fontSource=https%3A%2F%2Ffonts.googleapis.com%2Fcss%3Ffamily%3DArchitects%2BDaughter;" parent="JOeTYDWikCB6O97tGtDO-64" vertex="1">
          <mxGeometry width="69" height="30" as="geometry">
            <mxRectangle width="69" height="30" as="alternateBounds" />
          </mxGeometry>
        </mxCell>
        <mxCell id="JOeTYDWikCB6O97tGtDO-66" value="&lt;div style=&quot;text-align: center;&quot;&gt;&lt;span style=&quot;background-color: initial; text-wrap: nowrap;&quot;&gt;Define if the leave type add to allowance&lt;/span&gt;&lt;/div&gt;" style="shape=partialRectangle;html=1;whiteSpace=wrap;connectable=0;fillColor=none;top=0;left=0;bottom=0;right=0;align=left;spacingLeft=6;overflow=hidden;strokeColor=inherit;fontSize=16;sketch=1;hachureGap=4;jiggle=2;curveFitting=1;fontFamily=Architects Daughter;fontSource=https%3A%2F%2Ffonts.googleapis.com%2Fcss%3Ffamily%3DArchitects%2BDaughter;" parent="JOeTYDWikCB6O97tGtDO-64" vertex="1">
          <mxGeometry x="69" width="549" height="30" as="geometry">
            <mxRectangle width="549" height="30" as="alternateBounds" />
          </mxGeometry>
        </mxCell>
        <mxCell id="JOeTYDWikCB6O97tGtDO-67" value="" style="shape=tableRow;horizontal=0;startSize=0;swimlaneHead=0;swimlaneBody=0;top=0;left=0;bottom=0;right=0;collapsible=0;dropTarget=0;fillColor=none;points=[[0,0.5],[1,0.5]];portConstraint=eastwest;strokeColor=inherit;fontSize=16;sketch=1;hachureGap=4;jiggle=2;curveFitting=1;fontFamily=Architects Daughter;fontSource=https%3A%2F%2Ffonts.googleapis.com%2Fcss%3Ffamily%3DArchitects%2BDaughter;" parent="JOeTYDWikCB6O97tGtDO-57" vertex="1">
          <mxGeometry y="126" width="617.75" height="30" as="geometry" />
        </mxCell>
        <mxCell id="JOeTYDWikCB6O97tGtDO-68" value="4" style="shape=partialRectangle;html=1;whiteSpace=wrap;connectable=0;fillColor=none;top=0;left=0;bottom=0;right=0;overflow=hidden;pointerEvents=1;strokeColor=inherit;fontSize=16;sketch=1;hachureGap=4;jiggle=2;curveFitting=1;fontFamily=Architects Daughter;fontSource=https%3A%2F%2Ffonts.googleapis.com%2Fcss%3Ffamily%3DArchitects%2BDaughter;" parent="JOeTYDWikCB6O97tGtDO-67" vertex="1">
          <mxGeometry width="69" height="30" as="geometry">
            <mxRectangle width="69" height="30" as="alternateBounds" />
          </mxGeometry>
        </mxCell>
        <mxCell id="JOeTYDWikCB6O97tGtDO-69" value="&lt;div style=&quot;text-align: center;&quot;&gt;&lt;span style=&quot;background-color: initial; text-wrap: nowrap;&quot;&gt;Define if this type will be approved automatically&amp;nbsp;&lt;/span&gt;&lt;/div&gt;" style="shape=partialRectangle;html=1;whiteSpace=wrap;connectable=0;fillColor=none;top=0;left=0;bottom=0;right=0;align=left;spacingLeft=6;overflow=hidden;strokeColor=inherit;fontSize=16;sketch=1;hachureGap=4;jiggle=2;curveFitting=1;fontFamily=Architects Daughter;fontSource=https%3A%2F%2Ffonts.googleapis.com%2Fcss%3Ffamily%3DArchitects%2BDaughter;" parent="JOeTYDWikCB6O97tGtDO-67" vertex="1">
          <mxGeometry x="69" width="549" height="30" as="geometry">
            <mxRectangle width="549" height="30" as="alternateBounds" />
          </mxGeometry>
        </mxCell>
        <mxCell id="JOeTYDWikCB6O97tGtDO-71" value="" style="shape=tableRow;horizontal=0;startSize=0;swimlaneHead=0;swimlaneBody=0;top=0;left=0;bottom=0;right=0;collapsible=0;dropTarget=0;fillColor=none;points=[[0,0.5],[1,0.5]];portConstraint=eastwest;strokeColor=inherit;fontSize=16;sketch=1;hachureGap=4;jiggle=2;curveFitting=1;fontFamily=Architects Daughter;fontSource=https%3A%2F%2Ffonts.googleapis.com%2Fcss%3Ffamily%3DArchitects%2BDaughter;" parent="JOeTYDWikCB6O97tGtDO-57" vertex="1">
          <mxGeometry y="156" width="617.75" height="30" as="geometry" />
        </mxCell>
        <mxCell id="JOeTYDWikCB6O97tGtDO-72" value="5" style="shape=partialRectangle;html=1;whiteSpace=wrap;connectable=0;fillColor=none;top=0;left=0;bottom=0;right=0;overflow=hidden;pointerEvents=1;strokeColor=inherit;fontSize=16;sketch=1;hachureGap=4;jiggle=2;curveFitting=1;fontFamily=Architects Daughter;fontSource=https%3A%2F%2Ffonts.googleapis.com%2Fcss%3Ffamily%3DArchitects%2BDaughter;" parent="JOeTYDWikCB6O97tGtDO-71" vertex="1">
          <mxGeometry width="69" height="30" as="geometry">
            <mxRectangle width="69" height="30" as="alternateBounds" />
          </mxGeometry>
        </mxCell>
        <mxCell id="JOeTYDWikCB6O97tGtDO-73" value="&lt;div style=&quot;text-align: center;&quot;&gt;&lt;span style=&quot;background-color: initial; text-wrap: nowrap;&quot;&gt;Define the color of highlighte of the new type&lt;/span&gt;&lt;/div&gt;" style="shape=partialRectangle;html=1;whiteSpace=wrap;connectable=0;fillColor=none;top=0;left=0;bottom=0;right=0;align=left;spacingLeft=6;overflow=hidden;strokeColor=inherit;fontSize=16;sketch=1;hachureGap=4;jiggle=2;curveFitting=1;fontFamily=Architects Daughter;fontSource=https%3A%2F%2Ffonts.googleapis.com%2Fcss%3Ffamily%3DArchitects%2BDaughter;" parent="JOeTYDWikCB6O97tGtDO-71" vertex="1">
          <mxGeometry x="69" width="549" height="30" as="geometry">
            <mxRectangle width="549" height="30" as="alternateBounds" />
          </mxGeometry>
        </mxCell>
        <mxCell id="JOeTYDWikCB6O97tGtDO-74" value="" style="shape=tableRow;horizontal=0;startSize=0;swimlaneHead=0;swimlaneBody=0;top=0;left=0;bottom=0;right=0;collapsible=0;dropTarget=0;fillColor=none;points=[[0,0.5],[1,0.5]];portConstraint=eastwest;strokeColor=inherit;fontSize=16;sketch=1;hachureGap=4;jiggle=2;curveFitting=1;fontFamily=Architects Daughter;fontSource=https%3A%2F%2Ffonts.googleapis.com%2Fcss%3Ffamily%3DArchitects%2BDaughter;" parent="JOeTYDWikCB6O97tGtDO-57" vertex="1">
          <mxGeometry y="186" width="617.75" height="30" as="geometry" />
        </mxCell>
        <mxCell id="JOeTYDWikCB6O97tGtDO-75" value="6" style="shape=partialRectangle;html=1;whiteSpace=wrap;connectable=0;fillColor=none;top=0;left=0;bottom=0;right=0;overflow=hidden;pointerEvents=1;strokeColor=inherit;fontSize=16;sketch=1;hachureGap=4;jiggle=2;curveFitting=1;fontFamily=Architects Daughter;fontSource=https%3A%2F%2Ffonts.googleapis.com%2Fcss%3Ffamily%3DArchitects%2BDaughter;" parent="JOeTYDWikCB6O97tGtDO-74" vertex="1">
          <mxGeometry width="69" height="30" as="geometry">
            <mxRectangle width="69" height="30" as="alternateBounds" />
          </mxGeometry>
        </mxCell>
        <mxCell id="JOeTYDWikCB6O97tGtDO-76" value="&lt;div style=&quot;text-align: center;&quot;&gt;&lt;span style=&quot;background-color: initial; text-wrap: nowrap;&quot;&gt;Define the name of the new type&lt;/span&gt;&lt;/div&gt;" style="shape=partialRectangle;html=1;whiteSpace=wrap;connectable=0;fillColor=none;top=0;left=0;bottom=0;right=0;align=left;spacingLeft=6;overflow=hidden;strokeColor=inherit;fontSize=16;sketch=1;hachureGap=4;jiggle=2;curveFitting=1;fontFamily=Architects Daughter;fontSource=https%3A%2F%2Ffonts.googleapis.com%2Fcss%3Ffamily%3DArchitects%2BDaughter;" parent="JOeTYDWikCB6O97tGtDO-74" vertex="1">
          <mxGeometry x="69" width="549" height="30" as="geometry">
            <mxRectangle width="549" height="30" as="alternateBounds" />
          </mxGeometry>
        </mxCell>
        <mxCell id="JOeTYDWikCB6O97tGtDO-77" value="Leave types" style="text;strokeColor=none;fillColor=none;html=1;align=center;verticalAlign=middle;whiteSpace=wrap;rounded=0;fontSize=16;fontFamily=Architects Daughter;fontSource=https%3A%2F%2Ffonts.googleapis.com%2Fcss%3Ffamily%3DArchitects%2BDaughter;" parent="1" vertex="1">
          <mxGeometry x="-517.87" y="814" width="215" height="30" as="geometry" />
        </mxCell>
        <mxCell id="JOeTYDWikCB6O97tGtDO-82" value="&lt;b&gt;&lt;font style=&quot;font-size: 20px;&quot;&gt;New user interface&lt;/font&gt;&lt;/b&gt;" style="text;strokeColor=none;fillColor=none;html=1;align=center;verticalAlign=middle;whiteSpace=wrap;rounded=0;fontSize=16;fontFamily=Architects Daughter;fontSource=https%3A%2F%2Ffonts.googleapis.com%2Fcss%3Ffamily%3DArchitects%2BDaughter;" parent="1" vertex="1">
          <mxGeometry x="-221" y="-2584" width="547" height="30" as="geometry" />
        </mxCell>
        <mxCell id="JOeTYDWikCB6O97tGtDO-87" value="Settings part" style="text;strokeColor=none;fillColor=none;html=1;align=center;verticalAlign=middle;whiteSpace=wrap;rounded=0;fontSize=16;fontFamily=Architects Daughter;fontSource=https%3A%2F%2Ffonts.googleapis.com%2Fcss%3Ffamily%3DArchitects%2BDaughter;" parent="1" vertex="1">
          <mxGeometry x="-643.5" y="73" width="196" height="30" as="geometry" />
        </mxCell>
        <mxCell id="JOeTYDWikCB6O97tGtDO-88" value="Advanced settings" style="shape=table;startSize=36;container=1;collapsible=0;childLayout=tableLayout;fixedRows=1;rowLines=0;fontStyle=0;strokeColor=default;fontSize=16;sketch=1;hachureGap=4;jiggle=2;curveFitting=1;fontFamily=Architects Daughter;fontSource=https%3A%2F%2Ffonts.googleapis.com%2Fcss%3Ffamily%3DArchitects%2BDaughter;" parent="1" vertex="1">
          <mxGeometry x="-332" y="154" width="317.75" height="131.90789473684234" as="geometry" />
        </mxCell>
        <mxCell id="JOeTYDWikCB6O97tGtDO-89" value="" style="shape=tableRow;horizontal=0;startSize=0;swimlaneHead=0;swimlaneBody=0;top=0;left=0;bottom=0;right=0;collapsible=0;dropTarget=0;fillColor=none;points=[[0,0.5],[1,0.5]];portConstraint=eastwest;strokeColor=inherit;fontSize=16;sketch=1;hachureGap=4;jiggle=2;curveFitting=1;fontFamily=Architects Daughter;fontSource=https%3A%2F%2Ffonts.googleapis.com%2Fcss%3Ffamily%3DArchitects%2BDaughter;" parent="JOeTYDWikCB6O97tGtDO-88" vertex="1">
          <mxGeometry y="36" width="317.75" height="92" as="geometry" />
        </mxCell>
        <mxCell id="JOeTYDWikCB6O97tGtDO-90" value="1" style="shape=partialRectangle;html=1;whiteSpace=wrap;connectable=0;fillColor=none;top=0;left=0;bottom=0;right=0;overflow=hidden;pointerEvents=1;strokeColor=inherit;fontSize=16;sketch=1;hachureGap=4;jiggle=2;curveFitting=1;fontFamily=Architects Daughter;fontSource=https%3A%2F%2Ffonts.googleapis.com%2Fcss%3Ffamily%3DArchitects%2BDaughter;" parent="JOeTYDWikCB6O97tGtDO-89" vertex="1">
          <mxGeometry width="40" height="92" as="geometry">
            <mxRectangle width="40" height="92" as="alternateBounds" />
          </mxGeometry>
        </mxCell>
        <mxCell id="JOeTYDWikCB6O97tGtDO-91" value="Feature toggle to set allowance for employees and configure leaves" style="shape=partialRectangle;html=1;whiteSpace=wrap;connectable=0;fillColor=none;top=0;left=0;bottom=0;right=0;align=left;spacingLeft=6;overflow=hidden;strokeColor=inherit;fontSize=16;sketch=1;hachureGap=4;jiggle=2;curveFitting=1;fontFamily=Architects Daughter;fontSource=https%3A%2F%2Ffonts.googleapis.com%2Fcss%3Ffamily%3DArchitects%2BDaughter;" parent="JOeTYDWikCB6O97tGtDO-89" vertex="1">
          <mxGeometry x="40" width="278" height="92" as="geometry">
            <mxRectangle width="278" height="92" as="alternateBounds" />
          </mxGeometry>
        </mxCell>
        <mxCell id="JOeTYDWikCB6O97tGtDO-112" value="Billing" style="shape=table;startSize=36;container=1;collapsible=0;childLayout=tableLayout;fixedRows=1;rowLines=0;fontStyle=0;strokeColor=default;fontSize=16;sketch=1;hachureGap=4;jiggle=2;curveFitting=1;fontFamily=Architects Daughter;fontSource=https%3A%2F%2Ffonts.googleapis.com%2Fcss%3Ffamily%3DArchitects%2BDaughter;" parent="1" vertex="1">
          <mxGeometry x="67" y="154" width="317.75" height="80.75" as="geometry" />
        </mxCell>
        <mxCell id="JOeTYDWikCB6O97tGtDO-113" value="" style="shape=tableRow;horizontal=0;startSize=0;swimlaneHead=0;swimlaneBody=0;top=0;left=0;bottom=0;right=0;collapsible=0;dropTarget=0;fillColor=none;points=[[0,0.5],[1,0.5]];portConstraint=eastwest;strokeColor=inherit;fontSize=16;sketch=1;hachureGap=4;jiggle=2;curveFitting=1;fontFamily=Architects Daughter;fontSource=https%3A%2F%2Ffonts.googleapis.com%2Fcss%3Ffamily%3DArchitects%2BDaughter;" parent="JOeTYDWikCB6O97tGtDO-112" vertex="1">
          <mxGeometry y="36" width="317.75" height="41" as="geometry" />
        </mxCell>
        <mxCell id="JOeTYDWikCB6O97tGtDO-114" value="1" style="shape=partialRectangle;html=1;whiteSpace=wrap;connectable=0;fillColor=none;top=0;left=0;bottom=0;right=0;overflow=hidden;pointerEvents=1;strokeColor=inherit;fontSize=16;sketch=1;hachureGap=4;jiggle=2;curveFitting=1;fontFamily=Architects Daughter;fontSource=https%3A%2F%2Ffonts.googleapis.com%2Fcss%3Ffamily%3DArchitects%2BDaughter;" parent="JOeTYDWikCB6O97tGtDO-113" vertex="1">
          <mxGeometry width="40" height="41" as="geometry">
            <mxRectangle width="40" height="41" as="alternateBounds" />
          </mxGeometry>
        </mxCell>
        <mxCell id="JOeTYDWikCB6O97tGtDO-115" value="Billing information settings" style="shape=partialRectangle;html=1;whiteSpace=wrap;connectable=0;fillColor=none;top=0;left=0;bottom=0;right=0;align=left;spacingLeft=6;overflow=hidden;strokeColor=inherit;fontSize=16;sketch=1;hachureGap=4;jiggle=2;curveFitting=1;fontFamily=Architects Daughter;fontSource=https%3A%2F%2Ffonts.googleapis.com%2Fcss%3Ffamily%3DArchitects%2BDaughter;" parent="JOeTYDWikCB6O97tGtDO-113" vertex="1">
          <mxGeometry x="40" width="278" height="41" as="geometry">
            <mxRectangle width="278" height="41" as="alternateBounds" />
          </mxGeometry>
        </mxCell>
        <mxCell id="JOeTYDWikCB6O97tGtDO-116" value="Locations" style="text;strokeColor=none;fillColor=none;html=1;align=center;verticalAlign=middle;whiteSpace=wrap;rounded=0;fontSize=16;fontFamily=Architects Daughter;fontSource=https%3A%2F%2Ffonts.googleapis.com%2Fcss%3Ffamily%3DArchitects%2BDaughter;" parent="1" vertex="1">
          <mxGeometry x="-520" y="1160" width="215" height="30" as="geometry" />
        </mxCell>
        <mxCell id="JOeTYDWikCB6O97tGtDO-117" value="Manage employees&#39; locations" style="shape=table;startSize=36;container=1;collapsible=0;childLayout=tableLayout;fixedRows=1;rowLines=0;fontStyle=0;strokeColor=default;fontSize=16;sketch=1;hachureGap=4;jiggle=2;curveFitting=1;fontFamily=Architects Daughter;fontSource=https%3A%2F%2Ffonts.googleapis.com%2Fcss%3Ffamily%3DArchitects%2BDaughter;" parent="1" vertex="1">
          <mxGeometry x="-684" y="1231" width="505.75" height="130" as="geometry" />
        </mxCell>
        <mxCell id="JOeTYDWikCB6O97tGtDO-118" value="" style="shape=tableRow;horizontal=0;startSize=0;swimlaneHead=0;swimlaneBody=0;top=0;left=0;bottom=0;right=0;collapsible=0;dropTarget=0;fillColor=none;points=[[0,0.5],[1,0.5]];portConstraint=eastwest;strokeColor=inherit;fontSize=16;sketch=1;hachureGap=4;jiggle=2;curveFitting=1;fontFamily=Architects Daughter;fontSource=https%3A%2F%2Ffonts.googleapis.com%2Fcss%3Ffamily%3DArchitects%2BDaughter;" parent="JOeTYDWikCB6O97tGtDO-117" vertex="1">
          <mxGeometry y="36" width="505.75" height="30" as="geometry" />
        </mxCell>
        <mxCell id="JOeTYDWikCB6O97tGtDO-119" value="1" style="shape=partialRectangle;html=1;whiteSpace=wrap;connectable=0;fillColor=none;top=0;left=0;bottom=0;right=0;overflow=hidden;pointerEvents=1;strokeColor=inherit;fontSize=16;sketch=1;hachureGap=4;jiggle=2;curveFitting=1;fontFamily=Architects Daughter;fontSource=https%3A%2F%2Ffonts.googleapis.com%2Fcss%3Ffamily%3DArchitects%2BDaughter;" parent="JOeTYDWikCB6O97tGtDO-118" vertex="1">
          <mxGeometry width="69" height="30" as="geometry">
            <mxRectangle width="69" height="30" as="alternateBounds" />
          </mxGeometry>
        </mxCell>
        <mxCell id="JOeTYDWikCB6O97tGtDO-120" value="&lt;div style=&quot;text-align: center;&quot;&gt;&lt;span style=&quot;background-color: initial; text-wrap: nowrap;&quot;&gt;Add new locations for certaiin employees&lt;/span&gt;&lt;/div&gt;" style="shape=partialRectangle;html=1;whiteSpace=wrap;connectable=0;fillColor=none;top=0;left=0;bottom=0;right=0;align=left;spacingLeft=6;overflow=hidden;strokeColor=inherit;fontSize=16;sketch=1;hachureGap=4;jiggle=2;curveFitting=1;fontFamily=Architects Daughter;fontSource=https%3A%2F%2Ffonts.googleapis.com%2Fcss%3Ffamily%3DArchitects%2BDaughter;" parent="JOeTYDWikCB6O97tGtDO-118" vertex="1">
          <mxGeometry x="69" width="437" height="30" as="geometry">
            <mxRectangle width="437" height="30" as="alternateBounds" />
          </mxGeometry>
        </mxCell>
        <mxCell id="JOeTYDWikCB6O97tGtDO-121" value="" style="shape=tableRow;horizontal=0;startSize=0;swimlaneHead=0;swimlaneBody=0;top=0;left=0;bottom=0;right=0;collapsible=0;dropTarget=0;fillColor=none;points=[[0,0.5],[1,0.5]];portConstraint=eastwest;strokeColor=inherit;fontSize=16;sketch=1;hachureGap=4;jiggle=2;curveFitting=1;fontFamily=Architects Daughter;fontSource=https%3A%2F%2Ffonts.googleapis.com%2Fcss%3Ffamily%3DArchitects%2BDaughter;" parent="JOeTYDWikCB6O97tGtDO-117" vertex="1">
          <mxGeometry y="66" width="505.75" height="30" as="geometry" />
        </mxCell>
        <mxCell id="JOeTYDWikCB6O97tGtDO-122" value="2" style="shape=partialRectangle;html=1;whiteSpace=wrap;connectable=0;fillColor=none;top=0;left=0;bottom=0;right=0;overflow=hidden;pointerEvents=1;strokeColor=inherit;fontSize=16;sketch=1;hachureGap=4;jiggle=2;curveFitting=1;fontFamily=Architects Daughter;fontSource=https%3A%2F%2Ffonts.googleapis.com%2Fcss%3Ffamily%3DArchitects%2BDaughter;" parent="JOeTYDWikCB6O97tGtDO-121" vertex="1">
          <mxGeometry width="69" height="30" as="geometry">
            <mxRectangle width="69" height="30" as="alternateBounds" />
          </mxGeometry>
        </mxCell>
        <mxCell id="JOeTYDWikCB6O97tGtDO-123" value="&lt;div style=&quot;text-align: center;&quot;&gt;&lt;span style=&quot;background-color: initial; text-wrap: nowrap;&quot;&gt;Manage employees&#39; list for certain location&lt;/span&gt;&lt;/div&gt;" style="shape=partialRectangle;html=1;whiteSpace=wrap;connectable=0;fillColor=none;top=0;left=0;bottom=0;right=0;align=left;spacingLeft=6;overflow=hidden;strokeColor=inherit;fontSize=16;sketch=1;hachureGap=4;jiggle=2;curveFitting=1;fontFamily=Architects Daughter;fontSource=https%3A%2F%2Ffonts.googleapis.com%2Fcss%3Ffamily%3DArchitects%2BDaughter;" parent="JOeTYDWikCB6O97tGtDO-121" vertex="1">
          <mxGeometry x="69" width="437" height="30" as="geometry">
            <mxRectangle width="437" height="30" as="alternateBounds" />
          </mxGeometry>
        </mxCell>
        <mxCell id="JOeTYDWikCB6O97tGtDO-124" value="" style="shape=tableRow;horizontal=0;startSize=0;swimlaneHead=0;swimlaneBody=0;top=0;left=0;bottom=0;right=0;collapsible=0;dropTarget=0;fillColor=none;points=[[0,0.5],[1,0.5]];portConstraint=eastwest;strokeColor=inherit;fontSize=16;sketch=1;hachureGap=4;jiggle=2;curveFitting=1;fontFamily=Architects Daughter;fontSource=https%3A%2F%2Ffonts.googleapis.com%2Fcss%3Ffamily%3DArchitects%2BDaughter;" parent="JOeTYDWikCB6O97tGtDO-117" vertex="1">
          <mxGeometry y="96" width="505.75" height="30" as="geometry" />
        </mxCell>
        <mxCell id="JOeTYDWikCB6O97tGtDO-125" value="3" style="shape=partialRectangle;html=1;whiteSpace=wrap;connectable=0;fillColor=none;top=0;left=0;bottom=0;right=0;overflow=hidden;pointerEvents=1;strokeColor=inherit;fontSize=16;sketch=1;hachureGap=4;jiggle=2;curveFitting=1;fontFamily=Architects Daughter;fontSource=https%3A%2F%2Ffonts.googleapis.com%2Fcss%3Ffamily%3DArchitects%2BDaughter;" parent="JOeTYDWikCB6O97tGtDO-124" vertex="1">
          <mxGeometry width="69" height="30" as="geometry">
            <mxRectangle width="69" height="30" as="alternateBounds" />
          </mxGeometry>
        </mxCell>
        <mxCell id="JOeTYDWikCB6O97tGtDO-126" value="&lt;div style=&quot;text-align: center;&quot;&gt;&lt;span style=&quot;background-color: initial; text-wrap: nowrap;&quot;&gt;See the bank holidays for certain location&lt;/span&gt;&lt;/div&gt;" style="shape=partialRectangle;html=1;whiteSpace=wrap;connectable=0;fillColor=none;top=0;left=0;bottom=0;right=0;align=left;spacingLeft=6;overflow=hidden;strokeColor=inherit;fontSize=16;sketch=1;hachureGap=4;jiggle=2;curveFitting=1;fontFamily=Architects Daughter;fontSource=https%3A%2F%2Ffonts.googleapis.com%2Fcss%3Ffamily%3DArchitects%2BDaughter;" parent="JOeTYDWikCB6O97tGtDO-124" vertex="1">
          <mxGeometry x="69" width="437" height="30" as="geometry">
            <mxRectangle width="437" height="30" as="alternateBounds" />
          </mxGeometry>
        </mxCell>
        <mxCell id="JOeTYDWikCB6O97tGtDO-127" value="Departments" style="text;strokeColor=none;fillColor=none;html=1;align=center;verticalAlign=middle;whiteSpace=wrap;rounded=0;fontSize=16;fontFamily=Architects Daughter;fontSource=https%3A%2F%2Ffonts.googleapis.com%2Fcss%3Ffamily%3DArchitects%2BDaughter;" parent="1" vertex="1">
          <mxGeometry x="-525" y="1462" width="215" height="30" as="geometry" />
        </mxCell>
        <mxCell id="JOeTYDWikCB6O97tGtDO-128" value="Manage departments" style="shape=table;startSize=36;container=1;collapsible=0;childLayout=tableLayout;fixedRows=1;rowLines=0;fontStyle=0;strokeColor=default;fontSize=16;sketch=1;hachureGap=4;jiggle=2;curveFitting=1;fontFamily=Architects Daughter;fontSource=https%3A%2F%2Ffonts.googleapis.com%2Fcss%3Ffamily%3DArchitects%2BDaughter;" parent="1" vertex="1">
          <mxGeometry x="-689" y="1533" width="505.75" height="142.73684210526358" as="geometry" />
        </mxCell>
        <mxCell id="JOeTYDWikCB6O97tGtDO-129" value="" style="shape=tableRow;horizontal=0;startSize=0;swimlaneHead=0;swimlaneBody=0;top=0;left=0;bottom=0;right=0;collapsible=0;dropTarget=0;fillColor=none;points=[[0,0.5],[1,0.5]];portConstraint=eastwest;strokeColor=inherit;fontSize=16;sketch=1;hachureGap=4;jiggle=2;curveFitting=1;fontFamily=Architects Daughter;fontSource=https%3A%2F%2Ffonts.googleapis.com%2Fcss%3Ffamily%3DArchitects%2BDaughter;" parent="JOeTYDWikCB6O97tGtDO-128" vertex="1">
          <mxGeometry y="36" width="505.75" height="30" as="geometry" />
        </mxCell>
        <mxCell id="JOeTYDWikCB6O97tGtDO-130" value="1" style="shape=partialRectangle;html=1;whiteSpace=wrap;connectable=0;fillColor=none;top=0;left=0;bottom=0;right=0;overflow=hidden;pointerEvents=1;strokeColor=inherit;fontSize=16;sketch=1;hachureGap=4;jiggle=2;curveFitting=1;fontFamily=Architects Daughter;fontSource=https%3A%2F%2Ffonts.googleapis.com%2Fcss%3Ffamily%3DArchitects%2BDaughter;" parent="JOeTYDWikCB6O97tGtDO-129" vertex="1">
          <mxGeometry width="69" height="30" as="geometry">
            <mxRectangle width="69" height="30" as="alternateBounds" />
          </mxGeometry>
        </mxCell>
        <mxCell id="JOeTYDWikCB6O97tGtDO-131" value="&lt;div style=&quot;text-align: center;&quot;&gt;&lt;span style=&quot;background-color: initial; text-wrap: nowrap;&quot;&gt;Add new department&lt;/span&gt;&lt;/div&gt;" style="shape=partialRectangle;html=1;whiteSpace=wrap;connectable=0;fillColor=none;top=0;left=0;bottom=0;right=0;align=left;spacingLeft=6;overflow=hidden;strokeColor=inherit;fontSize=16;sketch=1;hachureGap=4;jiggle=2;curveFitting=1;fontFamily=Architects Daughter;fontSource=https%3A%2F%2Ffonts.googleapis.com%2Fcss%3Ffamily%3DArchitects%2BDaughter;" parent="JOeTYDWikCB6O97tGtDO-129" vertex="1">
          <mxGeometry x="69" width="437" height="30" as="geometry">
            <mxRectangle width="437" height="30" as="alternateBounds" />
          </mxGeometry>
        </mxCell>
        <mxCell id="JOeTYDWikCB6O97tGtDO-132" value="" style="shape=tableRow;horizontal=0;startSize=0;swimlaneHead=0;swimlaneBody=0;top=0;left=0;bottom=0;right=0;collapsible=0;dropTarget=0;fillColor=none;points=[[0,0.5],[1,0.5]];portConstraint=eastwest;strokeColor=inherit;fontSize=16;sketch=1;hachureGap=4;jiggle=2;curveFitting=1;fontFamily=Architects Daughter;fontSource=https%3A%2F%2Ffonts.googleapis.com%2Fcss%3Ffamily%3DArchitects%2BDaughter;" parent="JOeTYDWikCB6O97tGtDO-128" vertex="1">
          <mxGeometry y="66" width="505.75" height="33" as="geometry" />
        </mxCell>
        <mxCell id="JOeTYDWikCB6O97tGtDO-133" value="2" style="shape=partialRectangle;html=1;whiteSpace=wrap;connectable=0;fillColor=none;top=0;left=0;bottom=0;right=0;overflow=hidden;pointerEvents=1;strokeColor=inherit;fontSize=16;sketch=1;hachureGap=4;jiggle=2;curveFitting=1;fontFamily=Architects Daughter;fontSource=https%3A%2F%2Ffonts.googleapis.com%2Fcss%3Ffamily%3DArchitects%2BDaughter;" parent="JOeTYDWikCB6O97tGtDO-132" vertex="1">
          <mxGeometry width="69" height="33" as="geometry">
            <mxRectangle width="69" height="33" as="alternateBounds" />
          </mxGeometry>
        </mxCell>
        <mxCell id="JOeTYDWikCB6O97tGtDO-134" value="&lt;div style=&quot;text-align: center;&quot;&gt;&lt;span style=&quot;text-wrap: nowrap;&quot;&gt;Choose department&lt;/span&gt;&lt;/div&gt;" style="shape=partialRectangle;html=1;whiteSpace=wrap;connectable=0;fillColor=none;top=0;left=0;bottom=0;right=0;align=left;spacingLeft=6;overflow=hidden;strokeColor=inherit;fontSize=16;sketch=1;hachureGap=4;jiggle=2;curveFitting=1;fontFamily=Architects Daughter;fontSource=https%3A%2F%2Ffonts.googleapis.com%2Fcss%3Ffamily%3DArchitects%2BDaughter;" parent="JOeTYDWikCB6O97tGtDO-132" vertex="1">
          <mxGeometry x="69" width="437" height="33" as="geometry">
            <mxRectangle width="437" height="33" as="alternateBounds" />
          </mxGeometry>
        </mxCell>
        <mxCell id="JOeTYDWikCB6O97tGtDO-135" value="" style="shape=tableRow;horizontal=0;startSize=0;swimlaneHead=0;swimlaneBody=0;top=0;left=0;bottom=0;right=0;collapsible=0;dropTarget=0;fillColor=none;points=[[0,0.5],[1,0.5]];portConstraint=eastwest;strokeColor=inherit;fontSize=16;sketch=1;hachureGap=4;jiggle=2;curveFitting=1;fontFamily=Architects Daughter;fontSource=https%3A%2F%2Ffonts.googleapis.com%2Fcss%3Ffamily%3DArchitects%2BDaughter;" parent="JOeTYDWikCB6O97tGtDO-128" vertex="1">
          <mxGeometry y="99" width="505.75" height="39" as="geometry" />
        </mxCell>
        <mxCell id="JOeTYDWikCB6O97tGtDO-136" value="3" style="shape=partialRectangle;html=1;whiteSpace=wrap;connectable=0;fillColor=none;top=0;left=0;bottom=0;right=0;overflow=hidden;pointerEvents=1;strokeColor=inherit;fontSize=16;sketch=1;hachureGap=4;jiggle=2;curveFitting=1;fontFamily=Architects Daughter;fontSource=https%3A%2F%2Ffonts.googleapis.com%2Fcss%3Ffamily%3DArchitects%2BDaughter;" parent="JOeTYDWikCB6O97tGtDO-135" vertex="1">
          <mxGeometry width="69" height="39" as="geometry">
            <mxRectangle width="69" height="39" as="alternateBounds" />
          </mxGeometry>
        </mxCell>
        <mxCell id="JOeTYDWikCB6O97tGtDO-137" value="&lt;span style=&quot;color: rgb(240, 240, 240); font-family: &amp;quot;Architects Daughter&amp;quot;; font-size: 16px; font-style: normal; font-variant-ligatures: normal; font-variant-caps: normal; font-weight: 400; letter-spacing: normal; orphans: 2; text-align: center; text-indent: 0px; text-transform: none; widows: 2; word-spacing: 0px; -webkit-text-stroke-width: 0px; white-space: nowrap; background-color: rgb(24, 20, 29); text-decoration-thickness: initial; text-decoration-style: initial; text-decoration-color: initial; display: inline !important; float: none;&quot;&gt;Customize chosen department&lt;/span&gt;" style="shape=partialRectangle;html=1;whiteSpace=wrap;connectable=0;fillColor=none;top=0;left=0;bottom=0;right=0;align=left;spacingLeft=6;overflow=hidden;strokeColor=inherit;fontSize=16;sketch=1;hachureGap=4;jiggle=2;curveFitting=1;fontFamily=Architects Daughter;fontSource=https%3A%2F%2Ffonts.googleapis.com%2Fcss%3Ffamily%3DArchitects%2BDaughter;" parent="JOeTYDWikCB6O97tGtDO-135" vertex="1">
          <mxGeometry x="69" width="437" height="39" as="geometry">
            <mxRectangle width="437" height="39" as="alternateBounds" />
          </mxGeometry>
        </mxCell>
        <mxCell id="JOeTYDWikCB6O97tGtDO-144" value="Bank holidays" style="text;strokeColor=none;fillColor=none;html=1;align=center;verticalAlign=middle;whiteSpace=wrap;rounded=0;fontSize=16;fontFamily=Architects Daughter;fontSource=https%3A%2F%2Ffonts.googleapis.com%2Fcss%3Ffamily%3DArchitects%2BDaughter;" parent="1" vertex="1">
          <mxGeometry x="-566" y="1786" width="215" height="30" as="geometry" />
        </mxCell>
        <mxCell id="JOeTYDWikCB6O97tGtDO-149" value="Customize chosen department" style="shape=table;startSize=36;container=1;collapsible=0;childLayout=tableLayout;fixedRows=1;rowLines=0;fontStyle=0;strokeColor=default;fontSize=16;sketch=1;hachureGap=4;jiggle=2;curveFitting=1;fontFamily=Architects Daughter;fontSource=https%3A%2F%2Ffonts.googleapis.com%2Fcss%3Ffamily%3DArchitects%2BDaughter;" parent="1" vertex="1">
          <mxGeometry x="-43.24" y="1503" width="505.75" height="207.89473684210589" as="geometry" />
        </mxCell>
        <mxCell id="JOeTYDWikCB6O97tGtDO-150" value="" style="shape=tableRow;horizontal=0;startSize=0;swimlaneHead=0;swimlaneBody=0;top=0;left=0;bottom=0;right=0;collapsible=0;dropTarget=0;fillColor=none;points=[[0,0.5],[1,0.5]];portConstraint=eastwest;strokeColor=inherit;fontSize=16;sketch=1;hachureGap=4;jiggle=2;curveFitting=1;fontFamily=Architects Daughter;fontSource=https%3A%2F%2Ffonts.googleapis.com%2Fcss%3Ffamily%3DArchitects%2BDaughter;" parent="JOeTYDWikCB6O97tGtDO-149" vertex="1">
          <mxGeometry y="36" width="505.75" height="30" as="geometry" />
        </mxCell>
        <mxCell id="JOeTYDWikCB6O97tGtDO-151" value="1" style="shape=partialRectangle;html=1;whiteSpace=wrap;connectable=0;fillColor=none;top=0;left=0;bottom=0;right=0;overflow=hidden;pointerEvents=1;strokeColor=inherit;fontSize=16;sketch=1;hachureGap=4;jiggle=2;curveFitting=1;fontFamily=Architects Daughter;fontSource=https%3A%2F%2Ffonts.googleapis.com%2Fcss%3Ffamily%3DArchitects%2BDaughter;" parent="JOeTYDWikCB6O97tGtDO-150" vertex="1">
          <mxGeometry width="69" height="30" as="geometry">
            <mxRectangle width="69" height="30" as="alternateBounds" />
          </mxGeometry>
        </mxCell>
        <mxCell id="JOeTYDWikCB6O97tGtDO-152" value="&lt;span style=&quot;text-wrap: nowrap; text-align: center;&quot;&gt;Limit the amount of days employee can take&amp;nbsp;&lt;/span&gt;&lt;span style=&quot;text-wrap: nowrap; background-color: initial; text-align: center;&quot;&gt;for year&amp;nbsp;&lt;/span&gt;" style="shape=partialRectangle;html=1;whiteSpace=wrap;connectable=0;fillColor=none;top=0;left=0;bottom=0;right=0;align=left;spacingLeft=6;overflow=hidden;strokeColor=inherit;fontSize=16;sketch=1;hachureGap=4;jiggle=2;curveFitting=1;fontFamily=Architects Daughter;fontSource=https%3A%2F%2Ffonts.googleapis.com%2Fcss%3Ffamily%3DArchitects%2BDaughter;" parent="JOeTYDWikCB6O97tGtDO-150" vertex="1">
          <mxGeometry x="69" width="437" height="30" as="geometry">
            <mxRectangle width="437" height="30" as="alternateBounds" />
          </mxGeometry>
        </mxCell>
        <mxCell id="5xDO-Jl6c3Hg000AoyIj-106" value="" style="shape=tableRow;horizontal=0;startSize=0;swimlaneHead=0;swimlaneBody=0;top=0;left=0;bottom=0;right=0;collapsible=0;dropTarget=0;fillColor=none;points=[[0,0.5],[1,0.5]];portConstraint=eastwest;strokeColor=inherit;fontSize=16;sketch=1;hachureGap=4;jiggle=2;curveFitting=1;fontFamily=Architects Daughter;fontSource=https%3A%2F%2Ffonts.googleapis.com%2Fcss%3Ffamily%3DArchitects%2BDaughter;" vertex="1" parent="JOeTYDWikCB6O97tGtDO-149">
          <mxGeometry y="66" width="505.75" height="44" as="geometry" />
        </mxCell>
        <mxCell id="5xDO-Jl6c3Hg000AoyIj-107" value="2" style="shape=partialRectangle;html=1;whiteSpace=wrap;connectable=0;fillColor=none;top=0;left=0;bottom=0;right=0;overflow=hidden;pointerEvents=1;strokeColor=inherit;fontSize=16;sketch=1;hachureGap=4;jiggle=2;curveFitting=1;fontFamily=Architects Daughter;fontSource=https%3A%2F%2Ffonts.googleapis.com%2Fcss%3Ffamily%3DArchitects%2BDaughter;" vertex="1" parent="5xDO-Jl6c3Hg000AoyIj-106">
          <mxGeometry width="69" height="44" as="geometry">
            <mxRectangle width="69" height="44" as="alternateBounds" />
          </mxGeometry>
        </mxCell>
        <mxCell id="5xDO-Jl6c3Hg000AoyIj-108" value="&lt;span style=&quot;color: rgb(240, 240, 240); font-family: &amp;quot;Architects Daughter&amp;quot;; font-size: 16px; font-style: normal; font-variant-ligatures: normal; font-variant-caps: normal; font-weight: 400; letter-spacing: normal; orphans: 2; text-align: center; text-indent: 0px; text-transform: none; widows: 2; word-spacing: 0px; -webkit-text-stroke-width: 0px; white-space: nowrap; background-color: rgb(24, 20, 29); text-decoration-thickness: initial; text-decoration-style: initial; text-decoration-color: initial; display: inline !important; float: none;&quot;&gt;Add/delete employees into/from certain department&lt;/span&gt;" style="shape=partialRectangle;html=1;whiteSpace=wrap;connectable=0;fillColor=none;top=0;left=0;bottom=0;right=0;align=left;spacingLeft=6;overflow=hidden;strokeColor=inherit;fontSize=16;sketch=1;hachureGap=4;jiggle=2;curveFitting=1;fontFamily=Architects Daughter;fontSource=https%3A%2F%2Ffonts.googleapis.com%2Fcss%3Ffamily%3DArchitects%2BDaughter;" vertex="1" parent="5xDO-Jl6c3Hg000AoyIj-106">
          <mxGeometry x="69" width="437" height="44" as="geometry">
            <mxRectangle width="437" height="44" as="alternateBounds" />
          </mxGeometry>
        </mxCell>
        <mxCell id="5xDO-Jl6c3Hg000AoyIj-109" value="" style="shape=tableRow;horizontal=0;startSize=0;swimlaneHead=0;swimlaneBody=0;top=0;left=0;bottom=0;right=0;collapsible=0;dropTarget=0;fillColor=none;points=[[0,0.5],[1,0.5]];portConstraint=eastwest;strokeColor=inherit;fontSize=16;sketch=1;hachureGap=4;jiggle=2;curveFitting=1;fontFamily=Architects Daughter;fontSource=https%3A%2F%2Ffonts.googleapis.com%2Fcss%3Ffamily%3DArchitects%2BDaughter;" vertex="1" parent="JOeTYDWikCB6O97tGtDO-149">
          <mxGeometry y="110" width="505.75" height="34" as="geometry" />
        </mxCell>
        <mxCell id="5xDO-Jl6c3Hg000AoyIj-110" value="3" style="shape=partialRectangle;html=1;whiteSpace=wrap;connectable=0;fillColor=none;top=0;left=0;bottom=0;right=0;overflow=hidden;pointerEvents=1;strokeColor=inherit;fontSize=16;sketch=1;hachureGap=4;jiggle=2;curveFitting=1;fontFamily=Architects Daughter;fontSource=https%3A%2F%2Ffonts.googleapis.com%2Fcss%3Ffamily%3DArchitects%2BDaughter;" vertex="1" parent="5xDO-Jl6c3Hg000AoyIj-109">
          <mxGeometry width="69" height="34" as="geometry">
            <mxRectangle width="69" height="34" as="alternateBounds" />
          </mxGeometry>
        </mxCell>
        <mxCell id="5xDO-Jl6c3Hg000AoyIj-111" value="&lt;span style=&quot;color: rgb(240, 240, 240); font-family: &amp;quot;Architects Daughter&amp;quot;; font-size: 16px; font-style: normal; font-variant-ligatures: normal; font-variant-caps: normal; font-weight: 400; letter-spacing: normal; orphans: 2; text-align: center; text-indent: 0px; text-transform: none; widows: 2; word-spacing: 0px; -webkit-text-stroke-width: 0px; white-space: nowrap; background-color: rgb(24, 20, 29); text-decoration-thickness: initial; text-decoration-style: initial; text-decoration-color: initial; display: inline !important; float: none;&quot;&gt;Delete department&lt;/span&gt;" style="shape=partialRectangle;html=1;whiteSpace=wrap;connectable=0;fillColor=none;top=0;left=0;bottom=0;right=0;align=left;spacingLeft=6;overflow=hidden;strokeColor=inherit;fontSize=16;sketch=1;hachureGap=4;jiggle=2;curveFitting=1;fontFamily=Architects Daughter;fontSource=https%3A%2F%2Ffonts.googleapis.com%2Fcss%3Ffamily%3DArchitects%2BDaughter;" vertex="1" parent="5xDO-Jl6c3Hg000AoyIj-109">
          <mxGeometry x="69" width="437" height="34" as="geometry">
            <mxRectangle width="437" height="34" as="alternateBounds" />
          </mxGeometry>
        </mxCell>
        <mxCell id="5xDO-Jl6c3Hg000AoyIj-113" value="" style="shape=tableRow;horizontal=0;startSize=0;swimlaneHead=0;swimlaneBody=0;top=0;left=0;bottom=0;right=0;collapsible=0;dropTarget=0;fillColor=none;points=[[0,0.5],[1,0.5]];portConstraint=eastwest;strokeColor=inherit;fontSize=16;sketch=1;hachureGap=4;jiggle=2;curveFitting=1;fontFamily=Architects Daughter;fontSource=https%3A%2F%2Ffonts.googleapis.com%2Fcss%3Ffamily%3DArchitects%2BDaughter;" vertex="1" parent="JOeTYDWikCB6O97tGtDO-149">
          <mxGeometry y="144" width="505.75" height="30" as="geometry" />
        </mxCell>
        <mxCell id="5xDO-Jl6c3Hg000AoyIj-114" value="4" style="shape=partialRectangle;html=1;whiteSpace=wrap;connectable=0;fillColor=none;top=0;left=0;bottom=0;right=0;overflow=hidden;pointerEvents=1;strokeColor=inherit;fontSize=16;sketch=1;hachureGap=4;jiggle=2;curveFitting=1;fontFamily=Architects Daughter;fontSource=https%3A%2F%2Ffonts.googleapis.com%2Fcss%3Ffamily%3DArchitects%2BDaughter;" vertex="1" parent="5xDO-Jl6c3Hg000AoyIj-113">
          <mxGeometry width="69" height="30" as="geometry">
            <mxRectangle width="69" height="30" as="alternateBounds" />
          </mxGeometry>
        </mxCell>
        <mxCell id="5xDO-Jl6c3Hg000AoyIj-115" value="&lt;div style=&quot;text-align: center;&quot;&gt;&lt;span style=&quot;background-color: initial; text-wrap: nowrap;&quot;&gt;Set superwisers&lt;/span&gt;&lt;/div&gt;" style="shape=partialRectangle;html=1;whiteSpace=wrap;connectable=0;fillColor=none;top=0;left=0;bottom=0;right=0;align=left;spacingLeft=6;overflow=hidden;strokeColor=inherit;fontSize=16;sketch=1;hachureGap=4;jiggle=2;curveFitting=1;fontFamily=Architects Daughter;fontSource=https%3A%2F%2Ffonts.googleapis.com%2Fcss%3Ffamily%3DArchitects%2BDaughter;" vertex="1" parent="5xDO-Jl6c3Hg000AoyIj-113">
          <mxGeometry x="69" width="437" height="30" as="geometry">
            <mxRectangle width="437" height="30" as="alternateBounds" />
          </mxGeometry>
        </mxCell>
        <mxCell id="5xDO-Jl6c3Hg000AoyIj-116" value="" style="shape=tableRow;horizontal=0;startSize=0;swimlaneHead=0;swimlaneBody=0;top=0;left=0;bottom=0;right=0;collapsible=0;dropTarget=0;fillColor=none;points=[[0,0.5],[1,0.5]];portConstraint=eastwest;strokeColor=inherit;fontSize=16;sketch=1;hachureGap=4;jiggle=2;curveFitting=1;fontFamily=Architects Daughter;fontSource=https%3A%2F%2Ffonts.googleapis.com%2Fcss%3Ffamily%3DArchitects%2BDaughter;" vertex="1" parent="JOeTYDWikCB6O97tGtDO-149">
          <mxGeometry y="174" width="505.75" height="30" as="geometry" />
        </mxCell>
        <mxCell id="5xDO-Jl6c3Hg000AoyIj-117" value="5" style="shape=partialRectangle;html=1;whiteSpace=wrap;connectable=0;fillColor=none;top=0;left=0;bottom=0;right=0;overflow=hidden;pointerEvents=1;strokeColor=inherit;fontSize=16;sketch=1;hachureGap=4;jiggle=2;curveFitting=1;fontFamily=Architects Daughter;fontSource=https%3A%2F%2Ffonts.googleapis.com%2Fcss%3Ffamily%3DArchitects%2BDaughter;" vertex="1" parent="5xDO-Jl6c3Hg000AoyIj-116">
          <mxGeometry width="69" height="30" as="geometry">
            <mxRectangle width="69" height="30" as="alternateBounds" />
          </mxGeometry>
        </mxCell>
        <mxCell id="5xDO-Jl6c3Hg000AoyIj-118" value="Include/exlude public holidays" style="shape=partialRectangle;html=1;whiteSpace=wrap;connectable=0;fillColor=none;top=0;left=0;bottom=0;right=0;align=left;spacingLeft=6;overflow=hidden;strokeColor=inherit;fontSize=16;sketch=1;hachureGap=4;jiggle=2;curveFitting=1;fontFamily=Architects Daughter;fontSource=https%3A%2F%2Ffonts.googleapis.com%2Fcss%3Ffamily%3DArchitects%2BDaughter;" vertex="1" parent="5xDO-Jl6c3Hg000AoyIj-116">
          <mxGeometry x="69" width="437" height="30" as="geometry">
            <mxRectangle width="437" height="30" as="alternateBounds" />
          </mxGeometry>
        </mxCell>
        <mxCell id="JOeTYDWikCB6O97tGtDO-181" value="See public holidays or company specific days off" style="shape=table;startSize=36;container=1;collapsible=0;childLayout=tableLayout;fixedRows=1;rowLines=0;fontStyle=0;strokeColor=default;fontSize=16;sketch=1;hachureGap=4;jiggle=2;curveFitting=1;fontFamily=Architects Daughter;fontSource=https%3A%2F%2Ffonts.googleapis.com%2Fcss%3Ffamily%3DArchitects%2BDaughter;" parent="1" vertex="1">
          <mxGeometry x="-689" y="2204" width="505.75" height="118.25" as="geometry" />
        </mxCell>
        <mxCell id="JOeTYDWikCB6O97tGtDO-182" value="" style="shape=tableRow;horizontal=0;startSize=0;swimlaneHead=0;swimlaneBody=0;top=0;left=0;bottom=0;right=0;collapsible=0;dropTarget=0;fillColor=none;points=[[0,0.5],[1,0.5]];portConstraint=eastwest;strokeColor=inherit;fontSize=16;sketch=1;hachureGap=4;jiggle=2;curveFitting=1;fontFamily=Architects Daughter;fontSource=https%3A%2F%2Ffonts.googleapis.com%2Fcss%3Ffamily%3DArchitects%2BDaughter;" parent="JOeTYDWikCB6O97tGtDO-181" vertex="1">
          <mxGeometry y="36" width="505.75" height="30" as="geometry" />
        </mxCell>
        <mxCell id="JOeTYDWikCB6O97tGtDO-183" value="1" style="shape=partialRectangle;html=1;whiteSpace=wrap;connectable=0;fillColor=none;top=0;left=0;bottom=0;right=0;overflow=hidden;pointerEvents=1;strokeColor=inherit;fontSize=16;sketch=1;hachureGap=4;jiggle=2;curveFitting=1;fontFamily=Architects Daughter;fontSource=https%3A%2F%2Ffonts.googleapis.com%2Fcss%3Ffamily%3DArchitects%2BDaughter;" parent="JOeTYDWikCB6O97tGtDO-182" vertex="1">
          <mxGeometry width="69" height="30" as="geometry">
            <mxRectangle width="69" height="30" as="alternateBounds" />
          </mxGeometry>
        </mxCell>
        <mxCell id="JOeTYDWikCB6O97tGtDO-184" value="Set default schedule for all employees&amp;nbsp;" style="shape=partialRectangle;html=1;whiteSpace=wrap;connectable=0;fillColor=none;top=0;left=0;bottom=0;right=0;align=left;spacingLeft=6;overflow=hidden;strokeColor=inherit;fontSize=16;sketch=1;hachureGap=4;jiggle=2;curveFitting=1;fontFamily=Architects Daughter;fontSource=https%3A%2F%2Ffonts.googleapis.com%2Fcss%3Ffamily%3DArchitects%2BDaughter;" parent="JOeTYDWikCB6O97tGtDO-182" vertex="1">
          <mxGeometry x="69" width="437" height="30" as="geometry">
            <mxRectangle width="437" height="30" as="alternateBounds" />
          </mxGeometry>
        </mxCell>
        <mxCell id="JOeTYDWikCB6O97tGtDO-185" value="" style="shape=tableRow;horizontal=0;startSize=0;swimlaneHead=0;swimlaneBody=0;top=0;left=0;bottom=0;right=0;collapsible=0;dropTarget=0;fillColor=none;points=[[0,0.5],[1,0.5]];portConstraint=eastwest;strokeColor=inherit;fontSize=16;sketch=1;hachureGap=4;jiggle=2;curveFitting=1;fontFamily=Architects Daughter;fontSource=https%3A%2F%2Ffonts.googleapis.com%2Fcss%3Ffamily%3DArchitects%2BDaughter;" parent="JOeTYDWikCB6O97tGtDO-181" vertex="1">
          <mxGeometry y="66" width="505.75" height="49" as="geometry" />
        </mxCell>
        <mxCell id="JOeTYDWikCB6O97tGtDO-186" value="2" style="shape=partialRectangle;html=1;whiteSpace=wrap;connectable=0;fillColor=none;top=0;left=0;bottom=0;right=0;overflow=hidden;pointerEvents=1;strokeColor=inherit;fontSize=16;sketch=1;hachureGap=4;jiggle=2;curveFitting=1;fontFamily=Architects Daughter;fontSource=https%3A%2F%2Ffonts.googleapis.com%2Fcss%3Ffamily%3DArchitects%2BDaughter;" parent="JOeTYDWikCB6O97tGtDO-185" vertex="1">
          <mxGeometry width="69" height="49" as="geometry">
            <mxRectangle width="69" height="49" as="alternateBounds" />
          </mxGeometry>
        </mxCell>
        <mxCell id="JOeTYDWikCB6O97tGtDO-187" value="An individual employee&#39;s schedule override company&#39;s schedule&amp;nbsp;" style="shape=partialRectangle;html=1;whiteSpace=wrap;connectable=0;fillColor=none;top=0;left=0;bottom=0;right=0;align=left;spacingLeft=6;overflow=hidden;strokeColor=inherit;fontSize=16;sketch=1;hachureGap=4;jiggle=2;curveFitting=1;fontFamily=Architects Daughter;fontSource=https%3A%2F%2Ffonts.googleapis.com%2Fcss%3Ffamily%3DArchitects%2BDaughter;" parent="JOeTYDWikCB6O97tGtDO-185" vertex="1">
          <mxGeometry x="69" width="437" height="49" as="geometry">
            <mxRectangle width="437" height="49" as="alternateBounds" />
          </mxGeometry>
        </mxCell>
        <mxCell id="JOeTYDWikCB6O97tGtDO-197" value="Company schedule" style="text;strokeColor=none;fillColor=none;html=1;align=center;verticalAlign=middle;whiteSpace=wrap;rounded=0;fontSize=16;fontFamily=Architects Daughter;fontSource=https%3A%2F%2Ffonts.googleapis.com%2Fcss%3Ffamily%3DArchitects%2BDaughter;" parent="1" vertex="1">
          <mxGeometry x="-566" y="2139" width="215" height="30" as="geometry" />
        </mxCell>
        <mxCell id="JOeTYDWikCB6O97tGtDO-198" value="List of available reports" style="shape=table;startSize=36;container=1;collapsible=0;childLayout=tableLayout;fixedRows=1;rowLines=0;fontStyle=0;strokeColor=default;fontSize=16;sketch=1;hachureGap=4;jiggle=2;curveFitting=1;fontFamily=Architects Daughter;fontSource=https%3A%2F%2Ffonts.googleapis.com%2Fcss%3Ffamily%3DArchitects%2BDaughter;" parent="1" vertex="1">
          <mxGeometry x="-689" y="2536" width="505.75" height="148.25" as="geometry" />
        </mxCell>
        <mxCell id="JOeTYDWikCB6O97tGtDO-199" value="" style="shape=tableRow;horizontal=0;startSize=0;swimlaneHead=0;swimlaneBody=0;top=0;left=0;bottom=0;right=0;collapsible=0;dropTarget=0;fillColor=none;points=[[0,0.5],[1,0.5]];portConstraint=eastwest;strokeColor=inherit;fontSize=16;sketch=1;hachureGap=4;jiggle=2;curveFitting=1;fontFamily=Architects Daughter;fontSource=https%3A%2F%2Ffonts.googleapis.com%2Fcss%3Ffamily%3DArchitects%2BDaughter;" parent="JOeTYDWikCB6O97tGtDO-198" vertex="1">
          <mxGeometry y="36" width="505.75" height="30" as="geometry" />
        </mxCell>
        <mxCell id="JOeTYDWikCB6O97tGtDO-200" value="1" style="shape=partialRectangle;html=1;whiteSpace=wrap;connectable=0;fillColor=none;top=0;left=0;bottom=0;right=0;overflow=hidden;pointerEvents=1;strokeColor=inherit;fontSize=16;sketch=1;hachureGap=4;jiggle=2;curveFitting=1;fontFamily=Architects Daughter;fontSource=https%3A%2F%2Ffonts.googleapis.com%2Fcss%3Ffamily%3DArchitects%2BDaughter;" parent="JOeTYDWikCB6O97tGtDO-199" vertex="1">
          <mxGeometry width="69" height="30" as="geometry">
            <mxRectangle width="69" height="30" as="alternateBounds" />
          </mxGeometry>
        </mxCell>
        <mxCell id="JOeTYDWikCB6O97tGtDO-201" value="Two types of reports" style="shape=partialRectangle;html=1;whiteSpace=wrap;connectable=0;fillColor=none;top=0;left=0;bottom=0;right=0;align=left;spacingLeft=6;overflow=hidden;strokeColor=inherit;fontSize=16;sketch=1;hachureGap=4;jiggle=2;curveFitting=1;fontFamily=Architects Daughter;fontSource=https%3A%2F%2Ffonts.googleapis.com%2Fcss%3Ffamily%3DArchitects%2BDaughter;" parent="JOeTYDWikCB6O97tGtDO-199" vertex="1">
          <mxGeometry x="69" width="437" height="30" as="geometry">
            <mxRectangle width="437" height="30" as="alternateBounds" />
          </mxGeometry>
        </mxCell>
        <mxCell id="JOeTYDWikCB6O97tGtDO-202" value="" style="shape=tableRow;horizontal=0;startSize=0;swimlaneHead=0;swimlaneBody=0;top=0;left=0;bottom=0;right=0;collapsible=0;dropTarget=0;fillColor=none;points=[[0,0.5],[1,0.5]];portConstraint=eastwest;strokeColor=inherit;fontSize=16;sketch=1;hachureGap=4;jiggle=2;curveFitting=1;fontFamily=Architects Daughter;fontSource=https%3A%2F%2Ffonts.googleapis.com%2Fcss%3Ffamily%3DArchitects%2BDaughter;" parent="JOeTYDWikCB6O97tGtDO-198" vertex="1">
          <mxGeometry y="66" width="505.75" height="49" as="geometry" />
        </mxCell>
        <mxCell id="JOeTYDWikCB6O97tGtDO-203" value="2" style="shape=partialRectangle;html=1;whiteSpace=wrap;connectable=0;fillColor=none;top=0;left=0;bottom=0;right=0;overflow=hidden;pointerEvents=1;strokeColor=inherit;fontSize=16;sketch=1;hachureGap=4;jiggle=2;curveFitting=1;fontFamily=Architects Daughter;fontSource=https%3A%2F%2Ffonts.googleapis.com%2Fcss%3Ffamily%3DArchitects%2BDaughter;" parent="JOeTYDWikCB6O97tGtDO-202" vertex="1">
          <mxGeometry width="69" height="49" as="geometry">
            <mxRectangle width="69" height="49" as="alternateBounds" />
          </mxGeometry>
        </mxCell>
        <mxCell id="JOeTYDWikCB6O97tGtDO-204" value="An individual employee&#39;s schedule override company&#39;s schedule&amp;nbsp;" style="shape=partialRectangle;html=1;whiteSpace=wrap;connectable=0;fillColor=none;top=0;left=0;bottom=0;right=0;align=left;spacingLeft=6;overflow=hidden;strokeColor=inherit;fontSize=16;sketch=1;hachureGap=4;jiggle=2;curveFitting=1;fontFamily=Architects Daughter;fontSource=https%3A%2F%2Ffonts.googleapis.com%2Fcss%3Ffamily%3DArchitects%2BDaughter;" parent="JOeTYDWikCB6O97tGtDO-202" vertex="1">
          <mxGeometry x="69" width="437" height="49" as="geometry">
            <mxRectangle width="437" height="49" as="alternateBounds" />
          </mxGeometry>
        </mxCell>
        <mxCell id="JOeTYDWikCB6O97tGtDO-205" value="" style="shape=tableRow;horizontal=0;startSize=0;swimlaneHead=0;swimlaneBody=0;top=0;left=0;bottom=0;right=0;collapsible=0;dropTarget=0;fillColor=none;points=[[0,0.5],[1,0.5]];portConstraint=eastwest;strokeColor=inherit;fontSize=16;sketch=1;hachureGap=4;jiggle=2;curveFitting=1;fontFamily=Architects Daughter;fontSource=https%3A%2F%2Ffonts.googleapis.com%2Fcss%3Ffamily%3DArchitects%2BDaughter;" parent="JOeTYDWikCB6O97tGtDO-198" vertex="1">
          <mxGeometry y="115" width="505.75" height="30" as="geometry" />
        </mxCell>
        <mxCell id="JOeTYDWikCB6O97tGtDO-206" value="3" style="shape=partialRectangle;html=1;whiteSpace=wrap;connectable=0;fillColor=none;top=0;left=0;bottom=0;right=0;overflow=hidden;pointerEvents=1;strokeColor=inherit;fontSize=16;sketch=1;hachureGap=4;jiggle=2;curveFitting=1;fontFamily=Architects Daughter;fontSource=https%3A%2F%2Ffonts.googleapis.com%2Fcss%3Ffamily%3DArchitects%2BDaughter;" parent="JOeTYDWikCB6O97tGtDO-205" vertex="1">
          <mxGeometry width="69" height="30" as="geometry">
            <mxRectangle width="69" height="30" as="alternateBounds" />
          </mxGeometry>
        </mxCell>
        <mxCell id="JOeTYDWikCB6O97tGtDO-207" value="&lt;div style=&quot;text-align: center;&quot;&gt;&lt;span style=&quot;text-wrap: nowrap;&quot;&gt;Download reports&lt;/span&gt;&lt;/div&gt;" style="shape=partialRectangle;html=1;whiteSpace=wrap;connectable=0;fillColor=none;top=0;left=0;bottom=0;right=0;align=left;spacingLeft=6;overflow=hidden;strokeColor=inherit;fontSize=16;sketch=1;hachureGap=4;jiggle=2;curveFitting=1;fontFamily=Architects Daughter;fontSource=https%3A%2F%2Ffonts.googleapis.com%2Fcss%3Ffamily%3DArchitects%2BDaughter;" parent="JOeTYDWikCB6O97tGtDO-205" vertex="1">
          <mxGeometry x="69" width="437" height="30" as="geometry">
            <mxRectangle width="437" height="30" as="alternateBounds" />
          </mxGeometry>
        </mxCell>
        <mxCell id="JOeTYDWikCB6O97tGtDO-214" value="Reports" style="text;strokeColor=none;fillColor=none;html=1;align=center;verticalAlign=middle;whiteSpace=wrap;rounded=0;fontSize=16;fontFamily=Architects Daughter;fontSource=https%3A%2F%2Ffonts.googleapis.com%2Fcss%3Ffamily%3DArchitects%2BDaughter;" parent="1" vertex="1">
          <mxGeometry x="-566" y="2471" width="215" height="30" as="geometry" />
        </mxCell>
        <mxCell id="JOeTYDWikCB6O97tGtDO-226" value="CUrrent user&#39;s calendar and absences" style="shape=table;startSize=36;container=1;collapsible=0;childLayout=tableLayout;fixedRows=1;rowLines=0;fontStyle=0;strokeColor=default;fontSize=16;sketch=1;hachureGap=4;jiggle=2;curveFitting=1;fontFamily=Architects Daughter;fontSource=https%3A%2F%2Ffonts.googleapis.com%2Fcss%3Ffamily%3DArchitects%2BDaughter;" parent="1" vertex="1">
          <mxGeometry x="-688" y="-1067" width="470.02777777777715" height="200.16666666666674" as="geometry" />
        </mxCell>
        <mxCell id="JOeTYDWikCB6O97tGtDO-227" value="" style="shape=tableRow;horizontal=0;startSize=0;swimlaneHead=0;swimlaneBody=0;top=0;left=0;bottom=0;right=0;collapsible=0;dropTarget=0;fillColor=none;points=[[0,0.5],[1,0.5]];portConstraint=eastwest;strokeColor=inherit;fontSize=16;sketch=1;hachureGap=4;jiggle=2;curveFitting=1;fontFamily=Architects Daughter;fontSource=https%3A%2F%2Ffonts.googleapis.com%2Fcss%3Ffamily%3DArchitects%2BDaughter;" parent="JOeTYDWikCB6O97tGtDO-226" vertex="1">
          <mxGeometry y="36" width="470.02777777777715" height="49" as="geometry" />
        </mxCell>
        <mxCell id="JOeTYDWikCB6O97tGtDO-228" value="1" style="shape=partialRectangle;html=1;whiteSpace=wrap;connectable=0;fillColor=none;top=0;left=0;bottom=0;right=0;overflow=hidden;pointerEvents=1;strokeColor=inherit;fontSize=16;sketch=1;hachureGap=4;jiggle=2;curveFitting=1;fontFamily=Architects Daughter;fontSource=https%3A%2F%2Ffonts.googleapis.com%2Fcss%3Ffamily%3DArchitects%2BDaughter;" parent="JOeTYDWikCB6O97tGtDO-227" vertex="1">
          <mxGeometry width="40" height="49" as="geometry">
            <mxRectangle width="40" height="49" as="alternateBounds" />
          </mxGeometry>
        </mxCell>
        <mxCell id="JOeTYDWikCB6O97tGtDO-229" value="Calendar with public holidays and the current user&#39;s absences" style="shape=partialRectangle;html=1;whiteSpace=wrap;connectable=0;fillColor=none;top=0;left=0;bottom=0;right=0;align=left;spacingLeft=6;overflow=hidden;strokeColor=inherit;fontSize=16;sketch=1;hachureGap=4;jiggle=2;curveFitting=1;fontFamily=Architects Daughter;fontSource=https%3A%2F%2Ffonts.googleapis.com%2Fcss%3Ffamily%3DArchitects%2BDaughter;" parent="JOeTYDWikCB6O97tGtDO-227" vertex="1">
          <mxGeometry x="40" width="430" height="49" as="geometry">
            <mxRectangle width="430" height="49" as="alternateBounds" />
          </mxGeometry>
        </mxCell>
        <mxCell id="JOeTYDWikCB6O97tGtDO-230" value="" style="shape=tableRow;horizontal=0;startSize=0;swimlaneHead=0;swimlaneBody=0;top=0;left=0;bottom=0;right=0;collapsible=0;dropTarget=0;fillColor=none;points=[[0,0.5],[1,0.5]];portConstraint=eastwest;strokeColor=inherit;fontSize=16;sketch=1;hachureGap=4;jiggle=2;curveFitting=1;fontFamily=Architects Daughter;fontSource=https%3A%2F%2Ffonts.googleapis.com%2Fcss%3Ffamily%3DArchitects%2BDaughter;" parent="JOeTYDWikCB6O97tGtDO-226" vertex="1">
          <mxGeometry y="85" width="470.02777777777715" height="30" as="geometry" />
        </mxCell>
        <mxCell id="JOeTYDWikCB6O97tGtDO-231" value="2" style="shape=partialRectangle;html=1;whiteSpace=wrap;connectable=0;fillColor=none;top=0;left=0;bottom=0;right=0;overflow=hidden;strokeColor=inherit;fontSize=16;sketch=1;hachureGap=4;jiggle=2;curveFitting=1;fontFamily=Architects Daughter;fontSource=https%3A%2F%2Ffonts.googleapis.com%2Fcss%3Ffamily%3DArchitects%2BDaughter;" parent="JOeTYDWikCB6O97tGtDO-230" vertex="1">
          <mxGeometry width="40" height="30" as="geometry">
            <mxRectangle width="40" height="30" as="alternateBounds" />
          </mxGeometry>
        </mxCell>
        <mxCell id="JOeTYDWikCB6O97tGtDO-232" value="The list of the current user&#39;s absences" style="shape=partialRectangle;html=1;whiteSpace=wrap;connectable=0;fillColor=none;top=0;left=0;bottom=0;right=0;align=left;spacingLeft=6;overflow=hidden;strokeColor=inherit;fontSize=16;sketch=1;hachureGap=4;jiggle=2;curveFitting=1;fontFamily=Architects Daughter;fontSource=https%3A%2F%2Ffonts.googleapis.com%2Fcss%3Ffamily%3DArchitects%2BDaughter;" parent="JOeTYDWikCB6O97tGtDO-230" vertex="1">
          <mxGeometry x="40" width="430" height="30" as="geometry">
            <mxRectangle width="430" height="30" as="alternateBounds" />
          </mxGeometry>
        </mxCell>
        <mxCell id="JOeTYDWikCB6O97tGtDO-233" value="" style="shape=tableRow;horizontal=0;startSize=0;swimlaneHead=0;swimlaneBody=0;top=0;left=0;bottom=0;right=0;collapsible=0;dropTarget=0;fillColor=none;points=[[0,0.5],[1,0.5]];portConstraint=eastwest;strokeColor=inherit;fontSize=16;sketch=1;hachureGap=4;jiggle=2;curveFitting=1;fontFamily=Architects Daughter;fontSource=https%3A%2F%2Ffonts.googleapis.com%2Fcss%3Ffamily%3DArchitects%2BDaughter;" parent="JOeTYDWikCB6O97tGtDO-226" vertex="1">
          <mxGeometry y="115" width="470.02777777777715" height="51" as="geometry" />
        </mxCell>
        <mxCell id="JOeTYDWikCB6O97tGtDO-234" value="3" style="shape=partialRectangle;html=1;whiteSpace=wrap;connectable=0;fillColor=none;top=0;left=0;bottom=0;right=0;overflow=hidden;strokeColor=inherit;fontSize=16;sketch=1;hachureGap=4;jiggle=2;curveFitting=1;fontFamily=Architects Daughter;fontSource=https%3A%2F%2Ffonts.googleapis.com%2Fcss%3Ffamily%3DArchitects%2BDaughter;" parent="JOeTYDWikCB6O97tGtDO-233" vertex="1">
          <mxGeometry width="40" height="51" as="geometry">
            <mxRectangle width="40" height="51" as="alternateBounds" />
          </mxGeometry>
        </mxCell>
        <mxCell id="JOeTYDWikCB6O97tGtDO-235" value="Revoke the current user&#39;s absence request from the list of the current user&#39;s absences" style="shape=partialRectangle;html=1;whiteSpace=wrap;connectable=0;fillColor=none;top=0;left=0;bottom=0;right=0;align=left;spacingLeft=6;overflow=hidden;strokeColor=inherit;fontSize=16;sketch=1;hachureGap=4;jiggle=2;curveFitting=1;fontFamily=Architects Daughter;fontSource=https%3A%2F%2Ffonts.googleapis.com%2Fcss%3Ffamily%3DArchitects%2BDaughter;" parent="JOeTYDWikCB6O97tGtDO-233" vertex="1">
          <mxGeometry x="40" width="430" height="51" as="geometry">
            <mxRectangle width="430" height="51" as="alternateBounds" />
          </mxGeometry>
        </mxCell>
        <mxCell id="JOeTYDWikCB6O97tGtDO-236" value="" style="shape=tableRow;horizontal=0;startSize=0;swimlaneHead=0;swimlaneBody=0;top=0;left=0;bottom=0;right=0;collapsible=0;dropTarget=0;fillColor=none;points=[[0,0.5],[1,0.5]];portConstraint=eastwest;strokeColor=inherit;fontSize=16;sketch=1;hachureGap=4;jiggle=2;curveFitting=1;fontFamily=Architects Daughter;fontSource=https%3A%2F%2Ffonts.googleapis.com%2Fcss%3Ffamily%3DArchitects%2BDaughter;" parent="JOeTYDWikCB6O97tGtDO-226" vertex="1">
          <mxGeometry y="166" width="470.02777777777715" height="30" as="geometry" />
        </mxCell>
        <mxCell id="JOeTYDWikCB6O97tGtDO-237" value="4" style="shape=partialRectangle;html=1;whiteSpace=wrap;connectable=0;fillColor=none;top=0;left=0;bottom=0;right=0;overflow=hidden;strokeColor=inherit;fontSize=16;sketch=1;hachureGap=4;jiggle=2;curveFitting=1;fontFamily=Architects Daughter;fontSource=https%3A%2F%2Ffonts.googleapis.com%2Fcss%3Ffamily%3DArchitects%2BDaughter;" parent="JOeTYDWikCB6O97tGtDO-236" vertex="1">
          <mxGeometry width="40" height="30" as="geometry">
            <mxRectangle width="40" height="30" as="alternateBounds" />
          </mxGeometry>
        </mxCell>
        <mxCell id="JOeTYDWikCB6O97tGtDO-238" value="Absences&#39; HeatMap" style="shape=partialRectangle;html=1;whiteSpace=wrap;connectable=0;fillColor=none;top=0;left=0;bottom=0;right=0;align=left;spacingLeft=6;overflow=hidden;strokeColor=inherit;fontSize=16;sketch=1;hachureGap=4;jiggle=2;curveFitting=1;fontFamily=Architects Daughter;fontSource=https%3A%2F%2Ffonts.googleapis.com%2Fcss%3Ffamily%3DArchitects%2BDaughter;" parent="JOeTYDWikCB6O97tGtDO-236" vertex="1">
          <mxGeometry x="40" width="430" height="30" as="geometry">
            <mxRectangle width="430" height="30" as="alternateBounds" />
          </mxGeometry>
        </mxCell>
        <mxCell id="JOeTYDWikCB6O97tGtDO-239" value="&lt;span style=&quot;text-align: left;&quot;&gt;My calendar&lt;/span&gt;" style="text;strokeColor=none;fillColor=none;html=1;align=center;verticalAlign=middle;whiteSpace=wrap;rounded=0;fontSize=16;fontFamily=Architects Daughter;fontSource=https%3A%2F%2Ffonts.googleapis.com%2Fcss%3Ffamily%3DArchitects%2BDaughter;" parent="1" vertex="1">
          <mxGeometry x="-576.87" y="-1122" width="191.87" height="30" as="geometry" />
        </mxCell>
        <mxCell id="JOeTYDWikCB6O97tGtDO-240" value="Team&#39;s information" style="shape=table;startSize=36;container=1;collapsible=0;childLayout=tableLayout;fixedRows=1;rowLines=0;fontStyle=0;strokeColor=default;fontSize=16;sketch=1;hachureGap=4;jiggle=2;curveFitting=1;fontFamily=Architects Daughter;fontSource=https%3A%2F%2Ffonts.googleapis.com%2Fcss%3Ffamily%3DArchitects%2BDaughter;" parent="1" vertex="1">
          <mxGeometry x="-688" y="-778" width="403.75" height="400.63095238095246" as="geometry" />
        </mxCell>
        <mxCell id="JOeTYDWikCB6O97tGtDO-241" value="" style="shape=tableRow;horizontal=0;startSize=0;swimlaneHead=0;swimlaneBody=0;top=0;left=0;bottom=0;right=0;collapsible=0;dropTarget=0;fillColor=none;points=[[0,0.5],[1,0.5]];portConstraint=eastwest;strokeColor=inherit;fontSize=16;sketch=1;hachureGap=4;jiggle=2;curveFitting=1;fontFamily=Architects Daughter;fontSource=https%3A%2F%2Ffonts.googleapis.com%2Fcss%3Ffamily%3DArchitects%2BDaughter;" parent="JOeTYDWikCB6O97tGtDO-240" vertex="1">
          <mxGeometry y="36" width="403.75" height="30" as="geometry" />
        </mxCell>
        <mxCell id="JOeTYDWikCB6O97tGtDO-242" value="1" style="shape=partialRectangle;html=1;whiteSpace=wrap;connectable=0;fillColor=none;top=0;left=0;bottom=0;right=0;overflow=hidden;pointerEvents=1;strokeColor=inherit;fontSize=16;sketch=1;hachureGap=4;jiggle=2;curveFitting=1;fontFamily=Architects Daughter;fontSource=https%3A%2F%2Ffonts.googleapis.com%2Fcss%3Ffamily%3DArchitects%2BDaughter;" parent="JOeTYDWikCB6O97tGtDO-241" vertex="1">
          <mxGeometry width="40" height="30" as="geometry">
            <mxRectangle width="40" height="30" as="alternateBounds" />
          </mxGeometry>
        </mxCell>
        <mxCell id="JOeTYDWikCB6O97tGtDO-243" value="Admin can add a new employee" style="shape=partialRectangle;html=1;whiteSpace=wrap;connectable=0;fillColor=none;top=0;left=0;bottom=0;right=0;align=left;spacingLeft=6;overflow=hidden;strokeColor=inherit;fontSize=16;sketch=1;hachureGap=4;jiggle=2;curveFitting=1;fontFamily=Architects Daughter;fontSource=https%3A%2F%2Ffonts.googleapis.com%2Fcss%3Ffamily%3DArchitects%2BDaughter;" parent="JOeTYDWikCB6O97tGtDO-241" vertex="1">
          <mxGeometry x="40" width="364" height="30" as="geometry">
            <mxRectangle width="364" height="30" as="alternateBounds" />
          </mxGeometry>
        </mxCell>
        <mxCell id="JOeTYDWikCB6O97tGtDO-244" value="" style="shape=tableRow;horizontal=0;startSize=0;swimlaneHead=0;swimlaneBody=0;top=0;left=0;bottom=0;right=0;collapsible=0;dropTarget=0;fillColor=none;points=[[0,0.5],[1,0.5]];portConstraint=eastwest;strokeColor=inherit;fontSize=16;sketch=1;hachureGap=4;jiggle=2;curveFitting=1;fontFamily=Architects Daughter;fontSource=https%3A%2F%2Ffonts.googleapis.com%2Fcss%3Ffamily%3DArchitects%2BDaughter;" parent="JOeTYDWikCB6O97tGtDO-240" vertex="1">
          <mxGeometry y="66" width="403.75" height="48" as="geometry" />
        </mxCell>
        <mxCell id="JOeTYDWikCB6O97tGtDO-245" value="2" style="shape=partialRectangle;html=1;whiteSpace=wrap;connectable=0;fillColor=none;top=0;left=0;bottom=0;right=0;overflow=hidden;strokeColor=inherit;fontSize=16;sketch=1;hachureGap=4;jiggle=2;curveFitting=1;fontFamily=Architects Daughter;fontSource=https%3A%2F%2Ffonts.googleapis.com%2Fcss%3Ffamily%3DArchitects%2BDaughter;" parent="JOeTYDWikCB6O97tGtDO-244" vertex="1">
          <mxGeometry width="40" height="48" as="geometry">
            <mxRectangle width="40" height="48" as="alternateBounds" />
          </mxGeometry>
        </mxCell>
        <mxCell id="JOeTYDWikCB6O97tGtDO-246" value="Filter to customize the team view by department or by leaves" style="shape=partialRectangle;html=1;whiteSpace=wrap;connectable=0;fillColor=none;top=0;left=0;bottom=0;right=0;align=left;spacingLeft=6;overflow=hidden;strokeColor=inherit;fontSize=16;sketch=1;hachureGap=4;jiggle=2;curveFitting=1;fontFamily=Architects Daughter;fontSource=https%3A%2F%2Ffonts.googleapis.com%2Fcss%3Ffamily%3DArchitects%2BDaughter;" parent="JOeTYDWikCB6O97tGtDO-244" vertex="1">
          <mxGeometry x="40" width="364" height="48" as="geometry">
            <mxRectangle width="364" height="48" as="alternateBounds" />
          </mxGeometry>
        </mxCell>
        <mxCell id="JOeTYDWikCB6O97tGtDO-247" value="" style="shape=tableRow;horizontal=0;startSize=0;swimlaneHead=0;swimlaneBody=0;top=0;left=0;bottom=0;right=0;collapsible=0;dropTarget=0;fillColor=none;points=[[0,0.5],[1,0.5]];portConstraint=eastwest;strokeColor=inherit;fontSize=16;sketch=1;hachureGap=4;jiggle=2;curveFitting=1;fontFamily=Architects Daughter;fontSource=https%3A%2F%2Ffonts.googleapis.com%2Fcss%3Ffamily%3DArchitects%2BDaughter;" parent="JOeTYDWikCB6O97tGtDO-240" vertex="1">
          <mxGeometry y="114" width="403.75" height="26" as="geometry" />
        </mxCell>
        <mxCell id="JOeTYDWikCB6O97tGtDO-248" value="3" style="shape=partialRectangle;html=1;whiteSpace=wrap;connectable=0;fillColor=none;top=0;left=0;bottom=0;right=0;overflow=hidden;strokeColor=inherit;fontSize=16;sketch=1;hachureGap=4;jiggle=2;curveFitting=1;fontFamily=Architects Daughter;fontSource=https%3A%2F%2Ffonts.googleapis.com%2Fcss%3Ffamily%3DArchitects%2BDaughter;" parent="JOeTYDWikCB6O97tGtDO-247" vertex="1">
          <mxGeometry width="40" height="26" as="geometry">
            <mxRectangle width="40" height="26" as="alternateBounds" />
          </mxGeometry>
        </mxCell>
        <mxCell id="JOeTYDWikCB6O97tGtDO-249" value="Group employees by department or not" style="shape=partialRectangle;html=1;whiteSpace=wrap;connectable=0;fillColor=none;top=0;left=0;bottom=0;right=0;align=left;spacingLeft=6;overflow=hidden;strokeColor=inherit;fontSize=16;sketch=1;hachureGap=4;jiggle=2;curveFitting=1;fontFamily=Architects Daughter;fontSource=https%3A%2F%2Ffonts.googleapis.com%2Fcss%3Ffamily%3DArchitects%2BDaughter;" parent="JOeTYDWikCB6O97tGtDO-247" vertex="1">
          <mxGeometry x="40" width="364" height="26" as="geometry">
            <mxRectangle width="364" height="26" as="alternateBounds" />
          </mxGeometry>
        </mxCell>
        <mxCell id="JOeTYDWikCB6O97tGtDO-250" value="" style="shape=tableRow;horizontal=0;startSize=0;swimlaneHead=0;swimlaneBody=0;top=0;left=0;bottom=0;right=0;collapsible=0;dropTarget=0;fillColor=none;points=[[0,0.5],[1,0.5]];portConstraint=eastwest;strokeColor=inherit;fontSize=16;sketch=1;hachureGap=4;jiggle=2;curveFitting=1;fontFamily=Architects Daughter;fontSource=https%3A%2F%2Ffonts.googleapis.com%2Fcss%3Ffamily%3DArchitects%2BDaughter;" parent="JOeTYDWikCB6O97tGtDO-240" vertex="1">
          <mxGeometry y="140" width="403.75" height="64" as="geometry" />
        </mxCell>
        <mxCell id="JOeTYDWikCB6O97tGtDO-251" value="4" style="shape=partialRectangle;html=1;whiteSpace=wrap;connectable=0;fillColor=none;top=0;left=0;bottom=0;right=0;overflow=hidden;strokeColor=inherit;fontSize=16;sketch=1;hachureGap=4;jiggle=2;curveFitting=1;fontFamily=Architects Daughter;fontSource=https%3A%2F%2Ffonts.googleapis.com%2Fcss%3Ffamily%3DArchitects%2BDaughter;" parent="JOeTYDWikCB6O97tGtDO-250" vertex="1">
          <mxGeometry width="40" height="64" as="geometry">
            <mxRectangle width="40" height="64" as="alternateBounds" />
          </mxGeometry>
        </mxCell>
        <mxCell id="JOeTYDWikCB6O97tGtDO-252" value="Admin and superwiser can open the popup about certain dependent employee - Employee Details" style="shape=partialRectangle;html=1;whiteSpace=wrap;connectable=0;fillColor=none;top=0;left=0;bottom=0;right=0;align=left;spacingLeft=6;overflow=hidden;strokeColor=inherit;fontSize=16;sketch=1;hachureGap=4;jiggle=2;curveFitting=1;fontFamily=Architects Daughter;fontSource=https%3A%2F%2Ffonts.googleapis.com%2Fcss%3Ffamily%3DArchitects%2BDaughter;" parent="JOeTYDWikCB6O97tGtDO-250" vertex="1">
          <mxGeometry x="40" width="364" height="64" as="geometry">
            <mxRectangle width="364" height="64" as="alternateBounds" />
          </mxGeometry>
        </mxCell>
        <mxCell id="5xDO-Jl6c3Hg000AoyIj-100" value="" style="shape=tableRow;horizontal=0;startSize=0;swimlaneHead=0;swimlaneBody=0;top=0;left=0;bottom=0;right=0;collapsible=0;dropTarget=0;fillColor=none;points=[[0,0.5],[1,0.5]];portConstraint=eastwest;strokeColor=inherit;fontSize=16;sketch=1;hachureGap=4;jiggle=2;curveFitting=1;fontFamily=Architects Daughter;fontSource=https%3A%2F%2Ffonts.googleapis.com%2Fcss%3Ffamily%3DArchitects%2BDaughter;" vertex="1" parent="JOeTYDWikCB6O97tGtDO-240">
          <mxGeometry y="204" width="403.75" height="97" as="geometry" />
        </mxCell>
        <mxCell id="5xDO-Jl6c3Hg000AoyIj-101" value="5" style="shape=partialRectangle;html=1;whiteSpace=wrap;connectable=0;fillColor=none;top=0;left=0;bottom=0;right=0;overflow=hidden;strokeColor=inherit;fontSize=16;sketch=1;hachureGap=4;jiggle=2;curveFitting=1;fontFamily=Architects Daughter;fontSource=https%3A%2F%2Ffonts.googleapis.com%2Fcss%3Ffamily%3DArchitects%2BDaughter;" vertex="1" parent="5xDO-Jl6c3Hg000AoyIj-100">
          <mxGeometry width="40" height="97" as="geometry">
            <mxRectangle width="40" height="97" as="alternateBounds" />
          </mxGeometry>
        </mxCell>
        <mxCell id="5xDO-Jl6c3Hg000AoyIj-102" value="Employee can see his own department employees, superwiser can see the same and his dependent employees, admin can see all of them" style="shape=partialRectangle;html=1;whiteSpace=wrap;connectable=0;fillColor=none;top=0;left=0;bottom=0;right=0;align=left;spacingLeft=6;overflow=hidden;strokeColor=inherit;fontSize=16;sketch=1;hachureGap=4;jiggle=2;curveFitting=1;fontFamily=Architects Daughter;fontSource=https%3A%2F%2Ffonts.googleapis.com%2Fcss%3Ffamily%3DArchitects%2BDaughter;" vertex="1" parent="5xDO-Jl6c3Hg000AoyIj-100">
          <mxGeometry x="40" width="364" height="97" as="geometry">
            <mxRectangle width="364" height="97" as="alternateBounds" />
          </mxGeometry>
        </mxCell>
        <mxCell id="5xDO-Jl6c3Hg000AoyIj-103" value="" style="shape=tableRow;horizontal=0;startSize=0;swimlaneHead=0;swimlaneBody=0;top=0;left=0;bottom=0;right=0;collapsible=0;dropTarget=0;fillColor=none;points=[[0,0.5],[1,0.5]];portConstraint=eastwest;strokeColor=inherit;fontSize=16;sketch=1;hachureGap=4;jiggle=2;curveFitting=1;fontFamily=Architects Daughter;fontSource=https%3A%2F%2Ffonts.googleapis.com%2Fcss%3Ffamily%3DArchitects%2BDaughter;" vertex="1" parent="JOeTYDWikCB6O97tGtDO-240">
          <mxGeometry y="301" width="403.75" height="97" as="geometry" />
        </mxCell>
        <mxCell id="5xDO-Jl6c3Hg000AoyIj-104" value="6" style="shape=partialRectangle;html=1;whiteSpace=wrap;connectable=0;fillColor=none;top=0;left=0;bottom=0;right=0;overflow=hidden;strokeColor=inherit;fontSize=16;sketch=1;hachureGap=4;jiggle=2;curveFitting=1;fontFamily=Architects Daughter;fontSource=https%3A%2F%2Ffonts.googleapis.com%2Fcss%3Ffamily%3DArchitects%2BDaughter;" vertex="1" parent="5xDO-Jl6c3Hg000AoyIj-103">
          <mxGeometry width="40" height="97" as="geometry">
            <mxRectangle width="40" height="97" as="alternateBounds" />
          </mxGeometry>
        </mxCell>
        <mxCell id="5xDO-Jl6c3Hg000AoyIj-105" value="Employee can see just his own number of available holiday days, superwiser - his number and his dependent employees&#39; number, admin can see all of them&amp;nbsp;" style="shape=partialRectangle;html=1;whiteSpace=wrap;connectable=0;fillColor=none;top=0;left=0;bottom=0;right=0;align=left;spacingLeft=6;overflow=hidden;strokeColor=inherit;fontSize=16;sketch=1;hachureGap=4;jiggle=2;curveFitting=1;fontFamily=Architects Daughter;fontSource=https%3A%2F%2Ffonts.googleapis.com%2Fcss%3Ffamily%3DArchitects%2BDaughter;" vertex="1" parent="5xDO-Jl6c3Hg000AoyIj-103">
          <mxGeometry x="40" width="364" height="97" as="geometry">
            <mxRectangle width="364" height="97" as="alternateBounds" />
          </mxGeometry>
        </mxCell>
        <mxCell id="JOeTYDWikCB6O97tGtDO-253" value="Team view" style="text;strokeColor=none;fillColor=none;html=1;align=center;verticalAlign=middle;whiteSpace=wrap;rounded=0;fontSize=16;fontFamily=Architects Daughter;fontSource=https%3A%2F%2Ffonts.googleapis.com%2Fcss%3Ffamily%3DArchitects%2BDaughter;" parent="1" vertex="1">
          <mxGeometry x="-576.87" y="-833" width="191.87" height="30" as="geometry" />
        </mxCell>
        <mxCell id="JOeTYDWikCB6O97tGtDO-254" value="Right sidebar with employee details" style="shape=table;startSize=36;container=1;collapsible=0;childLayout=tableLayout;fixedRows=1;rowLines=0;fontStyle=0;strokeColor=default;fontSize=16;sketch=1;hachureGap=4;jiggle=2;curveFitting=1;fontFamily=Architects Daughter;fontSource=https%3A%2F%2Ffonts.googleapis.com%2Fcss%3Ffamily%3DArchitects%2BDaughter;" parent="1" vertex="1">
          <mxGeometry x="-212" y="-778" width="403.75" height="206.25" as="geometry" />
        </mxCell>
        <mxCell id="JOeTYDWikCB6O97tGtDO-255" value="" style="shape=tableRow;horizontal=0;startSize=0;swimlaneHead=0;swimlaneBody=0;top=0;left=0;bottom=0;right=0;collapsible=0;dropTarget=0;fillColor=none;points=[[0,0.5],[1,0.5]];portConstraint=eastwest;strokeColor=inherit;fontSize=16;sketch=1;hachureGap=4;jiggle=2;curveFitting=1;fontFamily=Architects Daughter;fontSource=https%3A%2F%2Ffonts.googleapis.com%2Fcss%3Ffamily%3DArchitects%2BDaughter;" parent="JOeTYDWikCB6O97tGtDO-254" vertex="1">
          <mxGeometry y="36" width="403.75" height="30" as="geometry" />
        </mxCell>
        <mxCell id="JOeTYDWikCB6O97tGtDO-256" value="1" style="shape=partialRectangle;html=1;whiteSpace=wrap;connectable=0;fillColor=none;top=0;left=0;bottom=0;right=0;overflow=hidden;pointerEvents=1;strokeColor=inherit;fontSize=16;sketch=1;hachureGap=4;jiggle=2;curveFitting=1;fontFamily=Architects Daughter;fontSource=https%3A%2F%2Ffonts.googleapis.com%2Fcss%3Ffamily%3DArchitects%2BDaughter;" parent="JOeTYDWikCB6O97tGtDO-255" vertex="1">
          <mxGeometry width="40" height="30" as="geometry">
            <mxRectangle width="40" height="30" as="alternateBounds" />
          </mxGeometry>
        </mxCell>
        <mxCell id="JOeTYDWikCB6O97tGtDO-257" value="Send invite email" style="shape=partialRectangle;html=1;whiteSpace=wrap;connectable=0;fillColor=none;top=0;left=0;bottom=0;right=0;align=left;spacingLeft=6;overflow=hidden;strokeColor=inherit;fontSize=16;sketch=1;hachureGap=4;jiggle=2;curveFitting=1;fontFamily=Architects Daughter;fontSource=https%3A%2F%2Ffonts.googleapis.com%2Fcss%3Ffamily%3DArchitects%2BDaughter;" parent="JOeTYDWikCB6O97tGtDO-255" vertex="1">
          <mxGeometry x="40" width="364" height="30" as="geometry">
            <mxRectangle width="364" height="30" as="alternateBounds" />
          </mxGeometry>
        </mxCell>
        <mxCell id="JOeTYDWikCB6O97tGtDO-258" value="" style="shape=tableRow;horizontal=0;startSize=0;swimlaneHead=0;swimlaneBody=0;top=0;left=0;bottom=0;right=0;collapsible=0;dropTarget=0;fillColor=none;points=[[0,0.5],[1,0.5]];portConstraint=eastwest;strokeColor=inherit;fontSize=16;sketch=1;hachureGap=4;jiggle=2;curveFitting=1;fontFamily=Architects Daughter;fontSource=https%3A%2F%2Ffonts.googleapis.com%2Fcss%3Ffamily%3DArchitects%2BDaughter;" parent="JOeTYDWikCB6O97tGtDO-254" vertex="1">
          <mxGeometry y="66" width="403.75" height="48" as="geometry" />
        </mxCell>
        <mxCell id="JOeTYDWikCB6O97tGtDO-259" value="2" style="shape=partialRectangle;html=1;whiteSpace=wrap;connectable=0;fillColor=none;top=0;left=0;bottom=0;right=0;overflow=hidden;strokeColor=inherit;fontSize=16;sketch=1;hachureGap=4;jiggle=2;curveFitting=1;fontFamily=Architects Daughter;fontSource=https%3A%2F%2Ffonts.googleapis.com%2Fcss%3Ffamily%3DArchitects%2BDaughter;" parent="JOeTYDWikCB6O97tGtDO-258" vertex="1">
          <mxGeometry width="40" height="48" as="geometry">
            <mxRectangle width="40" height="48" as="alternateBounds" />
          </mxGeometry>
        </mxCell>
        <mxCell id="JOeTYDWikCB6O97tGtDO-260" value="Reset password" style="shape=partialRectangle;html=1;whiteSpace=wrap;connectable=0;fillColor=none;top=0;left=0;bottom=0;right=0;align=left;spacingLeft=6;overflow=hidden;strokeColor=inherit;fontSize=16;sketch=1;hachureGap=4;jiggle=2;curveFitting=1;fontFamily=Architects Daughter;fontSource=https%3A%2F%2Ffonts.googleapis.com%2Fcss%3Ffamily%3DArchitects%2BDaughter;" parent="JOeTYDWikCB6O97tGtDO-258" vertex="1">
          <mxGeometry x="40" width="364" height="48" as="geometry">
            <mxRectangle width="364" height="48" as="alternateBounds" />
          </mxGeometry>
        </mxCell>
        <mxCell id="JOeTYDWikCB6O97tGtDO-261" value="" style="shape=tableRow;horizontal=0;startSize=0;swimlaneHead=0;swimlaneBody=0;top=0;left=0;bottom=0;right=0;collapsible=0;dropTarget=0;fillColor=none;points=[[0,0.5],[1,0.5]];portConstraint=eastwest;strokeColor=inherit;fontSize=16;sketch=1;hachureGap=4;jiggle=2;curveFitting=1;fontFamily=Architects Daughter;fontSource=https%3A%2F%2Ffonts.googleapis.com%2Fcss%3Ffamily%3DArchitects%2BDaughter;" parent="JOeTYDWikCB6O97tGtDO-254" vertex="1">
          <mxGeometry y="114" width="403.75" height="26" as="geometry" />
        </mxCell>
        <mxCell id="JOeTYDWikCB6O97tGtDO-262" value="3" style="shape=partialRectangle;html=1;whiteSpace=wrap;connectable=0;fillColor=none;top=0;left=0;bottom=0;right=0;overflow=hidden;strokeColor=inherit;fontSize=16;sketch=1;hachureGap=4;jiggle=2;curveFitting=1;fontFamily=Architects Daughter;fontSource=https%3A%2F%2Ffonts.googleapis.com%2Fcss%3Ffamily%3DArchitects%2BDaughter;" parent="JOeTYDWikCB6O97tGtDO-261" vertex="1">
          <mxGeometry width="40" height="26" as="geometry">
            <mxRectangle width="40" height="26" as="alternateBounds" />
          </mxGeometry>
        </mxCell>
        <mxCell id="JOeTYDWikCB6O97tGtDO-263" value="Delete employee" style="shape=partialRectangle;html=1;whiteSpace=wrap;connectable=0;fillColor=none;top=0;left=0;bottom=0;right=0;align=left;spacingLeft=6;overflow=hidden;strokeColor=inherit;fontSize=16;sketch=1;hachureGap=4;jiggle=2;curveFitting=1;fontFamily=Architects Daughter;fontSource=https%3A%2F%2Ffonts.googleapis.com%2Fcss%3Ffamily%3DArchitects%2BDaughter;" parent="JOeTYDWikCB6O97tGtDO-261" vertex="1">
          <mxGeometry x="40" width="364" height="26" as="geometry">
            <mxRectangle width="364" height="26" as="alternateBounds" />
          </mxGeometry>
        </mxCell>
        <mxCell id="JOeTYDWikCB6O97tGtDO-264" value="" style="shape=tableRow;horizontal=0;startSize=0;swimlaneHead=0;swimlaneBody=0;top=0;left=0;bottom=0;right=0;collapsible=0;dropTarget=0;fillColor=none;points=[[0,0.5],[1,0.5]];portConstraint=eastwest;strokeColor=inherit;fontSize=16;sketch=1;hachureGap=4;jiggle=2;curveFitting=1;fontFamily=Architects Daughter;fontSource=https%3A%2F%2Ffonts.googleapis.com%2Fcss%3Ffamily%3DArchitects%2BDaughter;" parent="JOeTYDWikCB6O97tGtDO-254" vertex="1">
          <mxGeometry y="140" width="403.75" height="64" as="geometry" />
        </mxCell>
        <mxCell id="JOeTYDWikCB6O97tGtDO-265" value="4" style="shape=partialRectangle;html=1;whiteSpace=wrap;connectable=0;fillColor=none;top=0;left=0;bottom=0;right=0;overflow=hidden;strokeColor=inherit;fontSize=16;sketch=1;hachureGap=4;jiggle=2;curveFitting=1;fontFamily=Architects Daughter;fontSource=https%3A%2F%2Ffonts.googleapis.com%2Fcss%3Ffamily%3DArchitects%2BDaughter;" parent="JOeTYDWikCB6O97tGtDO-264" vertex="1">
          <mxGeometry width="40" height="64" as="geometry">
            <mxRectangle width="40" height="64" as="alternateBounds" />
          </mxGeometry>
        </mxCell>
        <mxCell id="JOeTYDWikCB6O97tGtDO-266" value="Edit information about employee&amp;nbsp;" style="shape=partialRectangle;html=1;whiteSpace=wrap;connectable=0;fillColor=none;top=0;left=0;bottom=0;right=0;align=left;spacingLeft=6;overflow=hidden;strokeColor=inherit;fontSize=16;sketch=1;hachureGap=4;jiggle=2;curveFitting=1;fontFamily=Architects Daughter;fontSource=https%3A%2F%2Ffonts.googleapis.com%2Fcss%3Ffamily%3DArchitects%2BDaughter;" parent="JOeTYDWikCB6O97tGtDO-264" vertex="1">
          <mxGeometry x="40" width="364" height="64" as="geometry">
            <mxRectangle width="364" height="64" as="alternateBounds" />
          </mxGeometry>
        </mxCell>
        <mxCell id="JOeTYDWikCB6O97tGtDO-267" value="&#xa;&lt;span style=&quot;color: rgb(240, 240, 240); font-family: &amp;quot;Architects Daughter&amp;quot;; font-size: 16px; font-style: normal; font-variant-ligatures: normal; font-variant-caps: normal; font-weight: 400; letter-spacing: normal; orphans: 2; text-align: left; text-indent: 0px; text-transform: none; widows: 2; word-spacing: 0px; -webkit-text-stroke-width: 0px; white-space: normal; background-color: rgb(24, 20, 29); text-decoration-thickness: initial; text-decoration-style: initial; text-decoration-color: initial; display: inline !important; float: none;&quot;&gt;Employee Details&lt;/span&gt;&#xa;&#xa;" style="text;strokeColor=none;fillColor=none;html=1;align=center;verticalAlign=middle;whiteSpace=wrap;rounded=0;fontSize=16;fontFamily=Architects Daughter;fontSource=https%3A%2F%2Ffonts.googleapis.com%2Fcss%3Ffamily%3DArchitects%2BDaughter;" parent="1" vertex="1">
          <mxGeometry x="-100.87" y="-833" width="191.87" height="30" as="geometry" />
        </mxCell>
        <mxCell id="JOeTYDWikCB6O97tGtDO-268" value="Header of the site" style="shape=table;startSize=36;container=1;collapsible=0;childLayout=tableLayout;fixedRows=1;rowLines=0;fontStyle=0;strokeColor=default;fontSize=16;sketch=1;hachureGap=4;jiggle=2;curveFitting=1;fontFamily=Architects Daughter;fontSource=https%3A%2F%2Ffonts.googleapis.com%2Fcss%3Ffamily%3DArchitects%2BDaughter;" parent="1" vertex="1">
          <mxGeometry x="-681" y="-1922" width="339.75" height="311.5" as="geometry" />
        </mxCell>
        <mxCell id="JOeTYDWikCB6O97tGtDO-269" value="" style="shape=tableRow;horizontal=0;startSize=0;swimlaneHead=0;swimlaneBody=0;top=0;left=0;bottom=0;right=0;collapsible=0;dropTarget=0;fillColor=none;points=[[0,0.5],[1,0.5]];portConstraint=eastwest;strokeColor=inherit;fontSize=16;sketch=1;hachureGap=4;jiggle=2;curveFitting=1;fontFamily=Architects Daughter;fontSource=https%3A%2F%2Ffonts.googleapis.com%2Fcss%3Ffamily%3DArchitects%2BDaughter;" parent="JOeTYDWikCB6O97tGtDO-268" vertex="1">
          <mxGeometry y="36" width="339.75" height="30" as="geometry" />
        </mxCell>
        <mxCell id="JOeTYDWikCB6O97tGtDO-270" value="1" style="shape=partialRectangle;html=1;whiteSpace=wrap;connectable=0;fillColor=none;top=0;left=0;bottom=0;right=0;overflow=hidden;pointerEvents=1;strokeColor=inherit;fontSize=16;sketch=1;hachureGap=4;jiggle=2;curveFitting=1;fontFamily=Architects Daughter;fontSource=https%3A%2F%2Ffonts.googleapis.com%2Fcss%3Ffamily%3DArchitects%2BDaughter;" parent="JOeTYDWikCB6O97tGtDO-269" vertex="1">
          <mxGeometry width="40" height="30" as="geometry">
            <mxRectangle width="40" height="30" as="alternateBounds" />
          </mxGeometry>
        </mxCell>
        <mxCell id="JOeTYDWikCB6O97tGtDO-271" value="Change the interface type&amp;nbsp;" style="shape=partialRectangle;html=1;whiteSpace=wrap;connectable=0;fillColor=none;top=0;left=0;bottom=0;right=0;align=left;spacingLeft=6;overflow=hidden;strokeColor=inherit;fontSize=16;sketch=1;hachureGap=4;jiggle=2;curveFitting=1;fontFamily=Architects Daughter;fontSource=https%3A%2F%2Ffonts.googleapis.com%2Fcss%3Ffamily%3DArchitects%2BDaughter;" parent="JOeTYDWikCB6O97tGtDO-269" vertex="1">
          <mxGeometry x="40" width="300" height="30" as="geometry">
            <mxRectangle width="300" height="30" as="alternateBounds" />
          </mxGeometry>
        </mxCell>
        <mxCell id="JOeTYDWikCB6O97tGtDO-272" value="" style="shape=tableRow;horizontal=0;startSize=0;swimlaneHead=0;swimlaneBody=0;top=0;left=0;bottom=0;right=0;collapsible=0;dropTarget=0;fillColor=none;points=[[0,0.5],[1,0.5]];portConstraint=eastwest;strokeColor=inherit;fontSize=16;sketch=1;hachureGap=4;jiggle=2;curveFitting=1;fontFamily=Architects Daughter;fontSource=https%3A%2F%2Ffonts.googleapis.com%2Fcss%3Ffamily%3DArchitects%2BDaughter;" parent="JOeTYDWikCB6O97tGtDO-268" vertex="1">
          <mxGeometry y="66" width="339.75" height="30" as="geometry" />
        </mxCell>
        <mxCell id="JOeTYDWikCB6O97tGtDO-273" value="2" style="shape=partialRectangle;html=1;whiteSpace=wrap;connectable=0;fillColor=none;top=0;left=0;bottom=0;right=0;overflow=hidden;strokeColor=inherit;fontSize=16;sketch=1;hachureGap=4;jiggle=2;curveFitting=1;fontFamily=Architects Daughter;fontSource=https%3A%2F%2Ffonts.googleapis.com%2Fcss%3Ffamily%3DArchitects%2BDaughter;" parent="JOeTYDWikCB6O97tGtDO-272" vertex="1">
          <mxGeometry width="40" height="30" as="geometry">
            <mxRectangle width="40" height="30" as="alternateBounds" />
          </mxGeometry>
        </mxCell>
        <mxCell id="JOeTYDWikCB6O97tGtDO-274" value="Create new absence&amp;nbsp;" style="shape=partialRectangle;html=1;whiteSpace=wrap;connectable=0;fillColor=none;top=0;left=0;bottom=0;right=0;align=left;spacingLeft=6;overflow=hidden;strokeColor=inherit;fontSize=16;sketch=1;hachureGap=4;jiggle=2;curveFitting=1;fontFamily=Architects Daughter;fontSource=https%3A%2F%2Ffonts.googleapis.com%2Fcss%3Ffamily%3DArchitects%2BDaughter;" parent="JOeTYDWikCB6O97tGtDO-272" vertex="1">
          <mxGeometry x="40" width="300" height="30" as="geometry">
            <mxRectangle width="300" height="30" as="alternateBounds" />
          </mxGeometry>
        </mxCell>
        <mxCell id="JOeTYDWikCB6O97tGtDO-275" value="" style="shape=tableRow;horizontal=0;startSize=0;swimlaneHead=0;swimlaneBody=0;top=0;left=0;bottom=0;right=0;collapsible=0;dropTarget=0;fillColor=none;points=[[0,0.5],[1,0.5]];portConstraint=eastwest;strokeColor=inherit;fontSize=16;sketch=1;hachureGap=4;jiggle=2;curveFitting=1;fontFamily=Architects Daughter;fontSource=https%3A%2F%2Ffonts.googleapis.com%2Fcss%3Ffamily%3DArchitects%2BDaughter;" parent="JOeTYDWikCB6O97tGtDO-268" vertex="1">
          <mxGeometry y="96" width="339.75" height="46" as="geometry" />
        </mxCell>
        <mxCell id="JOeTYDWikCB6O97tGtDO-276" value="3" style="shape=partialRectangle;html=1;whiteSpace=wrap;connectable=0;fillColor=none;top=0;left=0;bottom=0;right=0;overflow=hidden;strokeColor=inherit;fontSize=16;sketch=1;hachureGap=4;jiggle=2;curveFitting=1;fontFamily=Architects Daughter;fontSource=https%3A%2F%2Ffonts.googleapis.com%2Fcss%3Ffamily%3DArchitects%2BDaughter;" parent="JOeTYDWikCB6O97tGtDO-275" vertex="1">
          <mxGeometry width="40" height="46" as="geometry">
            <mxRectangle width="40" height="46" as="alternateBounds" />
          </mxGeometry>
        </mxCell>
        <mxCell id="JOeTYDWikCB6O97tGtDO-277" value="See new notifications number showing up&amp;nbsp;" style="shape=partialRectangle;html=1;whiteSpace=wrap;connectable=0;fillColor=none;top=0;left=0;bottom=0;right=0;align=left;spacingLeft=6;overflow=hidden;strokeColor=inherit;fontSize=16;sketch=1;hachureGap=4;jiggle=2;curveFitting=1;fontFamily=Architects Daughter;fontSource=https%3A%2F%2Ffonts.googleapis.com%2Fcss%3Ffamily%3DArchitects%2BDaughter;" parent="JOeTYDWikCB6O97tGtDO-275" vertex="1">
          <mxGeometry x="40" width="300" height="46" as="geometry">
            <mxRectangle width="300" height="46" as="alternateBounds" />
          </mxGeometry>
        </mxCell>
        <mxCell id="JOeTYDWikCB6O97tGtDO-278" value="" style="shape=tableRow;horizontal=0;startSize=0;swimlaneHead=0;swimlaneBody=0;top=0;left=0;bottom=0;right=0;collapsible=0;dropTarget=0;fillColor=none;points=[[0,0.5],[1,0.5]];portConstraint=eastwest;strokeColor=inherit;fontSize=16;sketch=1;hachureGap=4;jiggle=2;curveFitting=1;fontFamily=Architects Daughter;fontSource=https%3A%2F%2Ffonts.googleapis.com%2Fcss%3Ffamily%3DArchitects%2BDaughter;" parent="JOeTYDWikCB6O97tGtDO-268" vertex="1">
          <mxGeometry y="142" width="339.75" height="30" as="geometry" />
        </mxCell>
        <mxCell id="JOeTYDWikCB6O97tGtDO-279" value="4" style="shape=partialRectangle;html=1;whiteSpace=wrap;connectable=0;fillColor=none;top=0;left=0;bottom=0;right=0;overflow=hidden;strokeColor=inherit;fontSize=16;sketch=1;hachureGap=4;jiggle=2;curveFitting=1;fontFamily=Architects Daughter;fontSource=https%3A%2F%2Ffonts.googleapis.com%2Fcss%3Ffamily%3DArchitects%2BDaughter;" parent="JOeTYDWikCB6O97tGtDO-278" vertex="1">
          <mxGeometry width="40" height="30" as="geometry">
            <mxRectangle width="40" height="30" as="alternateBounds" />
          </mxGeometry>
        </mxCell>
        <mxCell id="JOeTYDWikCB6O97tGtDO-280" value="Open profile&#39;s menu" style="shape=partialRectangle;html=1;whiteSpace=wrap;connectable=0;fillColor=none;top=0;left=0;bottom=0;right=0;align=left;spacingLeft=6;overflow=hidden;strokeColor=inherit;fontSize=16;sketch=1;hachureGap=4;jiggle=2;curveFitting=1;fontFamily=Architects Daughter;fontSource=https%3A%2F%2Ffonts.googleapis.com%2Fcss%3Ffamily%3DArchitects%2BDaughter;" parent="JOeTYDWikCB6O97tGtDO-278" vertex="1">
          <mxGeometry x="40" width="300" height="30" as="geometry">
            <mxRectangle width="300" height="30" as="alternateBounds" />
          </mxGeometry>
        </mxCell>
        <mxCell id="5xDO-Jl6c3Hg000AoyIj-4" value="" style="shape=tableRow;horizontal=0;startSize=0;swimlaneHead=0;swimlaneBody=0;top=0;left=0;bottom=0;right=0;collapsible=0;dropTarget=0;fillColor=none;points=[[0,0.5],[1,0.5]];portConstraint=eastwest;strokeColor=inherit;fontSize=16;sketch=1;hachureGap=4;jiggle=2;curveFitting=1;fontFamily=Architects Daughter;fontSource=https%3A%2F%2Ffonts.googleapis.com%2Fcss%3Ffamily%3DArchitects%2BDaughter;" vertex="1" parent="JOeTYDWikCB6O97tGtDO-268">
          <mxGeometry y="172" width="339.75" height="30" as="geometry" />
        </mxCell>
        <mxCell id="5xDO-Jl6c3Hg000AoyIj-5" value="1" style="shape=partialRectangle;html=1;whiteSpace=wrap;connectable=0;fillColor=none;top=0;left=0;bottom=0;right=0;overflow=hidden;pointerEvents=1;strokeColor=inherit;fontSize=16;sketch=1;hachureGap=4;jiggle=2;curveFitting=1;fontFamily=Architects Daughter;fontSource=https%3A%2F%2Ffonts.googleapis.com%2Fcss%3Ffamily%3DArchitects%2BDaughter;" vertex="1" parent="5xDO-Jl6c3Hg000AoyIj-4">
          <mxGeometry width="40" height="30" as="geometry">
            <mxRectangle width="40" height="30" as="alternateBounds" />
          </mxGeometry>
        </mxCell>
        <mxCell id="5xDO-Jl6c3Hg000AoyIj-6" value="Change the interface type&amp;nbsp;" style="shape=partialRectangle;html=1;whiteSpace=wrap;connectable=0;fillColor=none;top=0;left=0;bottom=0;right=0;align=left;spacingLeft=6;overflow=hidden;strokeColor=inherit;fontSize=16;sketch=1;hachureGap=4;jiggle=2;curveFitting=1;fontFamily=Architects Daughter;fontSource=https%3A%2F%2Ffonts.googleapis.com%2Fcss%3Ffamily%3DArchitects%2BDaughter;" vertex="1" parent="5xDO-Jl6c3Hg000AoyIj-4">
          <mxGeometry x="40" width="300" height="30" as="geometry">
            <mxRectangle width="300" height="30" as="alternateBounds" />
          </mxGeometry>
        </mxCell>
        <mxCell id="5xDO-Jl6c3Hg000AoyIj-7" value="" style="shape=tableRow;horizontal=0;startSize=0;swimlaneHead=0;swimlaneBody=0;top=0;left=0;bottom=0;right=0;collapsible=0;dropTarget=0;fillColor=none;points=[[0,0.5],[1,0.5]];portConstraint=eastwest;strokeColor=inherit;fontSize=16;sketch=1;hachureGap=4;jiggle=2;curveFitting=1;fontFamily=Architects Daughter;fontSource=https%3A%2F%2Ffonts.googleapis.com%2Fcss%3Ffamily%3DArchitects%2BDaughter;" vertex="1" parent="JOeTYDWikCB6O97tGtDO-268">
          <mxGeometry y="202" width="339.75" height="30" as="geometry" />
        </mxCell>
        <mxCell id="5xDO-Jl6c3Hg000AoyIj-8" value="2" style="shape=partialRectangle;html=1;whiteSpace=wrap;connectable=0;fillColor=none;top=0;left=0;bottom=0;right=0;overflow=hidden;strokeColor=inherit;fontSize=16;sketch=1;hachureGap=4;jiggle=2;curveFitting=1;fontFamily=Architects Daughter;fontSource=https%3A%2F%2Ffonts.googleapis.com%2Fcss%3Ffamily%3DArchitects%2BDaughter;" vertex="1" parent="5xDO-Jl6c3Hg000AoyIj-7">
          <mxGeometry width="40" height="30" as="geometry">
            <mxRectangle width="40" height="30" as="alternateBounds" />
          </mxGeometry>
        </mxCell>
        <mxCell id="5xDO-Jl6c3Hg000AoyIj-9" value="Create new absence&amp;nbsp;" style="shape=partialRectangle;html=1;whiteSpace=wrap;connectable=0;fillColor=none;top=0;left=0;bottom=0;right=0;align=left;spacingLeft=6;overflow=hidden;strokeColor=inherit;fontSize=16;sketch=1;hachureGap=4;jiggle=2;curveFitting=1;fontFamily=Architects Daughter;fontSource=https%3A%2F%2Ffonts.googleapis.com%2Fcss%3Ffamily%3DArchitects%2BDaughter;" vertex="1" parent="5xDO-Jl6c3Hg000AoyIj-7">
          <mxGeometry x="40" width="300" height="30" as="geometry">
            <mxRectangle width="300" height="30" as="alternateBounds" />
          </mxGeometry>
        </mxCell>
        <mxCell id="5xDO-Jl6c3Hg000AoyIj-10" value="" style="shape=tableRow;horizontal=0;startSize=0;swimlaneHead=0;swimlaneBody=0;top=0;left=0;bottom=0;right=0;collapsible=0;dropTarget=0;fillColor=none;points=[[0,0.5],[1,0.5]];portConstraint=eastwest;strokeColor=inherit;fontSize=16;sketch=1;hachureGap=4;jiggle=2;curveFitting=1;fontFamily=Architects Daughter;fontSource=https%3A%2F%2Ffonts.googleapis.com%2Fcss%3Ffamily%3DArchitects%2BDaughter;" vertex="1" parent="JOeTYDWikCB6O97tGtDO-268">
          <mxGeometry y="232" width="339.75" height="46" as="geometry" />
        </mxCell>
        <mxCell id="5xDO-Jl6c3Hg000AoyIj-11" value="3" style="shape=partialRectangle;html=1;whiteSpace=wrap;connectable=0;fillColor=none;top=0;left=0;bottom=0;right=0;overflow=hidden;strokeColor=inherit;fontSize=16;sketch=1;hachureGap=4;jiggle=2;curveFitting=1;fontFamily=Architects Daughter;fontSource=https%3A%2F%2Ffonts.googleapis.com%2Fcss%3Ffamily%3DArchitects%2BDaughter;" vertex="1" parent="5xDO-Jl6c3Hg000AoyIj-10">
          <mxGeometry width="40" height="46" as="geometry">
            <mxRectangle width="40" height="46" as="alternateBounds" />
          </mxGeometry>
        </mxCell>
        <mxCell id="5xDO-Jl6c3Hg000AoyIj-12" value="See new notifications number showing up&amp;nbsp;" style="shape=partialRectangle;html=1;whiteSpace=wrap;connectable=0;fillColor=none;top=0;left=0;bottom=0;right=0;align=left;spacingLeft=6;overflow=hidden;strokeColor=inherit;fontSize=16;sketch=1;hachureGap=4;jiggle=2;curveFitting=1;fontFamily=Architects Daughter;fontSource=https%3A%2F%2Ffonts.googleapis.com%2Fcss%3Ffamily%3DArchitects%2BDaughter;" vertex="1" parent="5xDO-Jl6c3Hg000AoyIj-10">
          <mxGeometry x="40" width="300" height="46" as="geometry">
            <mxRectangle width="300" height="46" as="alternateBounds" />
          </mxGeometry>
        </mxCell>
        <mxCell id="5xDO-Jl6c3Hg000AoyIj-13" value="" style="shape=tableRow;horizontal=0;startSize=0;swimlaneHead=0;swimlaneBody=0;top=0;left=0;bottom=0;right=0;collapsible=0;dropTarget=0;fillColor=none;points=[[0,0.5],[1,0.5]];portConstraint=eastwest;strokeColor=inherit;fontSize=16;sketch=1;hachureGap=4;jiggle=2;curveFitting=1;fontFamily=Architects Daughter;fontSource=https%3A%2F%2Ffonts.googleapis.com%2Fcss%3Ffamily%3DArchitects%2BDaughter;" vertex="1" parent="JOeTYDWikCB6O97tGtDO-268">
          <mxGeometry y="278" width="339.75" height="30" as="geometry" />
        </mxCell>
        <mxCell id="5xDO-Jl6c3Hg000AoyIj-14" value="4" style="shape=partialRectangle;html=1;whiteSpace=wrap;connectable=0;fillColor=none;top=0;left=0;bottom=0;right=0;overflow=hidden;strokeColor=inherit;fontSize=16;sketch=1;hachureGap=4;jiggle=2;curveFitting=1;fontFamily=Architects Daughter;fontSource=https%3A%2F%2Ffonts.googleapis.com%2Fcss%3Ffamily%3DArchitects%2BDaughter;" vertex="1" parent="5xDO-Jl6c3Hg000AoyIj-13">
          <mxGeometry width="40" height="30" as="geometry">
            <mxRectangle width="40" height="30" as="alternateBounds" />
          </mxGeometry>
        </mxCell>
        <mxCell id="5xDO-Jl6c3Hg000AoyIj-15" value="Open profile&#39;s menu" style="shape=partialRectangle;html=1;whiteSpace=wrap;connectable=0;fillColor=none;top=0;left=0;bottom=0;right=0;align=left;spacingLeft=6;overflow=hidden;strokeColor=inherit;fontSize=16;sketch=1;hachureGap=4;jiggle=2;curveFitting=1;fontFamily=Architects Daughter;fontSource=https%3A%2F%2Ffonts.googleapis.com%2Fcss%3Ffamily%3DArchitects%2BDaughter;" vertex="1" parent="5xDO-Jl6c3Hg000AoyIj-13">
          <mxGeometry x="40" width="300" height="30" as="geometry">
            <mxRectangle width="300" height="30" as="alternateBounds" />
          </mxGeometry>
        </mxCell>
        <mxCell id="JOeTYDWikCB6O97tGtDO-281" value="Header" style="text;strokeColor=none;fillColor=none;html=1;align=center;verticalAlign=middle;whiteSpace=wrap;rounded=0;fontSize=16;fontFamily=Architects Daughter;fontSource=https%3A%2F%2Ffonts.googleapis.com%2Fcss%3Ffamily%3DArchitects%2BDaughter;" parent="1" vertex="1">
          <mxGeometry x="-563" y="-2003" width="60" height="30" as="geometry" />
        </mxCell>
        <mxCell id="nuq5DP8jEZcBYoAGEvhW-1" value="User&#39;s icon in the right top of the header" style="shape=table;startSize=36;container=1;collapsible=0;childLayout=tableLayout;fixedRows=1;rowLines=0;fontStyle=0;strokeColor=default;fontSize=16;sketch=1;hachureGap=4;jiggle=2;curveFitting=1;fontFamily=Architects Daughter;fontSource=https%3A%2F%2Ffonts.googleapis.com%2Fcss%3Ffamily%3DArchitects%2BDaughter;" parent="1" vertex="1">
          <mxGeometry x="67" y="-1922" width="399.5100000000002" height="274" as="geometry" />
        </mxCell>
        <mxCell id="nuq5DP8jEZcBYoAGEvhW-2" value="" style="shape=tableRow;horizontal=0;startSize=0;swimlaneHead=0;swimlaneBody=0;top=0;left=0;bottom=0;right=0;collapsible=0;dropTarget=0;fillColor=none;points=[[0,0.5],[1,0.5]];portConstraint=eastwest;strokeColor=inherit;fontSize=16;sketch=1;hachureGap=4;jiggle=2;curveFitting=1;fontFamily=Architects Daughter;fontSource=https%3A%2F%2Ffonts.googleapis.com%2Fcss%3Ffamily%3DArchitects%2BDaughter;" parent="nuq5DP8jEZcBYoAGEvhW-1" vertex="1">
          <mxGeometry y="36" width="399.5100000000002" height="52" as="geometry" />
        </mxCell>
        <mxCell id="nuq5DP8jEZcBYoAGEvhW-3" value="1" style="shape=partialRectangle;html=1;whiteSpace=wrap;connectable=0;fillColor=none;top=0;left=0;bottom=0;right=0;overflow=hidden;pointerEvents=1;strokeColor=inherit;fontSize=16;sketch=1;hachureGap=4;jiggle=2;curveFitting=1;fontFamily=Architects Daughter;fontSource=https%3A%2F%2Ffonts.googleapis.com%2Fcss%3Ffamily%3DArchitects%2BDaughter;" parent="nuq5DP8jEZcBYoAGEvhW-2" vertex="1">
          <mxGeometry width="40" height="52" as="geometry">
            <mxRectangle width="40" height="52" as="alternateBounds" />
          </mxGeometry>
        </mxCell>
        <mxCell id="nuq5DP8jEZcBYoAGEvhW-4" value="The items of menu open the right sidebar on click (except of Feeds item)" style="shape=partialRectangle;html=1;whiteSpace=wrap;connectable=0;fillColor=none;top=0;left=0;bottom=0;right=0;align=left;spacingLeft=6;overflow=hidden;strokeColor=inherit;fontSize=16;sketch=1;hachureGap=4;jiggle=2;curveFitting=1;fontFamily=Architects Daughter;fontSource=https%3A%2F%2Ffonts.googleapis.com%2Fcss%3Ffamily%3DArchitects%2BDaughter;" parent="nuq5DP8jEZcBYoAGEvhW-2" vertex="1">
          <mxGeometry x="40" width="360" height="52" as="geometry">
            <mxRectangle width="360" height="52" as="alternateBounds" />
          </mxGeometry>
        </mxCell>
        <mxCell id="nuq5DP8jEZcBYoAGEvhW-5" value="" style="shape=tableRow;horizontal=0;startSize=0;swimlaneHead=0;swimlaneBody=0;top=0;left=0;bottom=0;right=0;collapsible=0;dropTarget=0;fillColor=none;points=[[0,0.5],[1,0.5]];portConstraint=eastwest;strokeColor=inherit;fontSize=16;sketch=1;hachureGap=4;jiggle=2;curveFitting=1;fontFamily=Architects Daughter;fontSource=https%3A%2F%2Ffonts.googleapis.com%2Fcss%3Ffamily%3DArchitects%2BDaughter;" parent="nuq5DP8jEZcBYoAGEvhW-1" vertex="1">
          <mxGeometry y="88" width="399.5100000000002" height="49" as="geometry" />
        </mxCell>
        <mxCell id="nuq5DP8jEZcBYoAGEvhW-6" value="2" style="shape=partialRectangle;html=1;whiteSpace=wrap;connectable=0;fillColor=none;top=0;left=0;bottom=0;right=0;overflow=hidden;strokeColor=inherit;fontSize=16;sketch=1;hachureGap=4;jiggle=2;curveFitting=1;fontFamily=Architects Daughter;fontSource=https%3A%2F%2Ffonts.googleapis.com%2Fcss%3Ffamily%3DArchitects%2BDaughter;" parent="nuq5DP8jEZcBYoAGEvhW-5" vertex="1">
          <mxGeometry width="40" height="49" as="geometry">
            <mxRectangle width="40" height="49" as="alternateBounds" />
          </mxGeometry>
        </mxCell>
        <mxCell id="nuq5DP8jEZcBYoAGEvhW-7" value="Open sidebar with profile&#39;s info and requests to approve" style="shape=partialRectangle;html=1;whiteSpace=wrap;connectable=0;fillColor=none;top=0;left=0;bottom=0;right=0;align=left;spacingLeft=6;overflow=hidden;strokeColor=inherit;fontSize=16;sketch=1;hachureGap=4;jiggle=2;curveFitting=1;fontFamily=Architects Daughter;fontSource=https%3A%2F%2Ffonts.googleapis.com%2Fcss%3Ffamily%3DArchitects%2BDaughter;" parent="nuq5DP8jEZcBYoAGEvhW-5" vertex="1">
          <mxGeometry x="40" width="360" height="49" as="geometry">
            <mxRectangle width="360" height="49" as="alternateBounds" />
          </mxGeometry>
        </mxCell>
        <mxCell id="nuq5DP8jEZcBYoAGEvhW-8" value="" style="shape=tableRow;horizontal=0;startSize=0;swimlaneHead=0;swimlaneBody=0;top=0;left=0;bottom=0;right=0;collapsible=0;dropTarget=0;fillColor=none;points=[[0,0.5],[1,0.5]];portConstraint=eastwest;strokeColor=inherit;fontSize=16;sketch=1;hachureGap=4;jiggle=2;curveFitting=1;fontFamily=Architects Daughter;fontSource=https%3A%2F%2Ffonts.googleapis.com%2Fcss%3Ffamily%3DArchitects%2BDaughter;" parent="nuq5DP8jEZcBYoAGEvhW-1" vertex="1">
          <mxGeometry y="137" width="399.5100000000002" height="49" as="geometry" />
        </mxCell>
        <mxCell id="nuq5DP8jEZcBYoAGEvhW-9" value="3" style="shape=partialRectangle;html=1;whiteSpace=wrap;connectable=0;fillColor=none;top=0;left=0;bottom=0;right=0;overflow=hidden;strokeColor=inherit;fontSize=16;sketch=1;hachureGap=4;jiggle=2;curveFitting=1;fontFamily=Architects Daughter;fontSource=https%3A%2F%2Ffonts.googleapis.com%2Fcss%3Ffamily%3DArchitects%2BDaughter;" parent="nuq5DP8jEZcBYoAGEvhW-8" vertex="1">
          <mxGeometry width="40" height="49" as="geometry">
            <mxRectangle width="40" height="49" as="alternateBounds" />
          </mxGeometry>
        </mxCell>
        <mxCell id="nuq5DP8jEZcBYoAGEvhW-10" value="Set/unset weekly email recieving (on My profile&#39;s menu item)" style="shape=partialRectangle;html=1;whiteSpace=wrap;connectable=0;fillColor=none;top=0;left=0;bottom=0;right=0;align=left;spacingLeft=6;overflow=hidden;strokeColor=inherit;fontSize=16;sketch=1;hachureGap=4;jiggle=2;curveFitting=1;fontFamily=Architects Daughter;fontSource=https%3A%2F%2Ffonts.googleapis.com%2Fcss%3Ffamily%3DArchitects%2BDaughter;" parent="nuq5DP8jEZcBYoAGEvhW-8" vertex="1">
          <mxGeometry x="40" width="360" height="49" as="geometry">
            <mxRectangle width="360" height="49" as="alternateBounds" />
          </mxGeometry>
        </mxCell>
        <mxCell id="nuq5DP8jEZcBYoAGEvhW-11" value="" style="shape=tableRow;horizontal=0;startSize=0;swimlaneHead=0;swimlaneBody=0;top=0;left=0;bottom=0;right=0;collapsible=0;dropTarget=0;fillColor=none;points=[[0,0.5],[1,0.5]];portConstraint=eastwest;strokeColor=inherit;fontSize=16;sketch=1;hachureGap=4;jiggle=2;curveFitting=1;fontFamily=Architects Daughter;fontSource=https%3A%2F%2Ffonts.googleapis.com%2Fcss%3Ffamily%3DArchitects%2BDaughter;" parent="nuq5DP8jEZcBYoAGEvhW-1" vertex="1">
          <mxGeometry y="186" width="399.5100000000002" height="55" as="geometry" />
        </mxCell>
        <mxCell id="nuq5DP8jEZcBYoAGEvhW-12" value="4" style="shape=partialRectangle;html=1;whiteSpace=wrap;connectable=0;fillColor=none;top=0;left=0;bottom=0;right=0;overflow=hidden;strokeColor=inherit;fontSize=16;sketch=1;hachureGap=4;jiggle=2;curveFitting=1;fontFamily=Architects Daughter;fontSource=https%3A%2F%2Ffonts.googleapis.com%2Fcss%3Ffamily%3DArchitects%2BDaughter;" parent="nuq5DP8jEZcBYoAGEvhW-11" vertex="1">
          <mxGeometry width="40" height="55" as="geometry">
            <mxRectangle width="40" height="55" as="alternateBounds" />
          </mxGeometry>
        </mxCell>
        <mxCell id="nuq5DP8jEZcBYoAGEvhW-13" value="Click on the Feed item opens page of integrations with other calendars" style="shape=partialRectangle;html=1;whiteSpace=wrap;connectable=0;fillColor=none;top=0;left=0;bottom=0;right=0;align=left;spacingLeft=6;overflow=hidden;strokeColor=inherit;fontSize=16;sketch=1;hachureGap=4;jiggle=2;curveFitting=1;fontFamily=Architects Daughter;fontSource=https%3A%2F%2Ffonts.googleapis.com%2Fcss%3Ffamily%3DArchitects%2BDaughter;" parent="nuq5DP8jEZcBYoAGEvhW-11" vertex="1">
          <mxGeometry x="40" width="360" height="55" as="geometry">
            <mxRectangle width="360" height="55" as="alternateBounds" />
          </mxGeometry>
        </mxCell>
        <mxCell id="nuq5DP8jEZcBYoAGEvhW-15" value="" style="shape=tableRow;horizontal=0;startSize=0;swimlaneHead=0;swimlaneBody=0;top=0;left=0;bottom=0;right=0;collapsible=0;dropTarget=0;fillColor=none;points=[[0,0.5],[1,0.5]];portConstraint=eastwest;strokeColor=inherit;fontSize=16;sketch=1;hachureGap=4;jiggle=2;curveFitting=1;fontFamily=Architects Daughter;fontSource=https%3A%2F%2Ffonts.googleapis.com%2Fcss%3Ffamily%3DArchitects%2BDaughter;" parent="nuq5DP8jEZcBYoAGEvhW-1" vertex="1">
          <mxGeometry y="241" width="399.5100000000002" height="30" as="geometry" />
        </mxCell>
        <mxCell id="nuq5DP8jEZcBYoAGEvhW-16" value="5" style="shape=partialRectangle;html=1;whiteSpace=wrap;connectable=0;fillColor=none;top=0;left=0;bottom=0;right=0;overflow=hidden;strokeColor=inherit;fontSize=16;sketch=1;hachureGap=4;jiggle=2;curveFitting=1;fontFamily=Architects Daughter;fontSource=https%3A%2F%2Ffonts.googleapis.com%2Fcss%3Ffamily%3DArchitects%2BDaughter;" parent="nuq5DP8jEZcBYoAGEvhW-15" vertex="1">
          <mxGeometry width="40" height="30" as="geometry">
            <mxRectangle width="40" height="30" as="alternateBounds" />
          </mxGeometry>
        </mxCell>
        <mxCell id="nuq5DP8jEZcBYoAGEvhW-17" value="Logout" style="shape=partialRectangle;html=1;whiteSpace=wrap;connectable=0;fillColor=none;top=0;left=0;bottom=0;right=0;align=left;spacingLeft=6;overflow=hidden;strokeColor=inherit;fontSize=16;sketch=1;hachureGap=4;jiggle=2;curveFitting=1;fontFamily=Architects Daughter;fontSource=https%3A%2F%2Ffonts.googleapis.com%2Fcss%3Ffamily%3DArchitects%2BDaughter;" parent="nuq5DP8jEZcBYoAGEvhW-15" vertex="1">
          <mxGeometry x="40" width="360" height="30" as="geometry">
            <mxRectangle width="360" height="30" as="alternateBounds" />
          </mxGeometry>
        </mxCell>
        <mxCell id="nuq5DP8jEZcBYoAGEvhW-14" value="&lt;span style=&quot;text-align: left;&quot;&gt;User&#39;s profile menu&lt;/span&gt;" style="text;strokeColor=none;fillColor=none;html=1;align=center;verticalAlign=middle;whiteSpace=wrap;rounded=0;fontSize=16;fontFamily=Architects Daughter;fontSource=https%3A%2F%2Ffonts.googleapis.com%2Fcss%3Ffamily%3DArchitects%2BDaughter;" parent="1" vertex="1">
          <mxGeometry x="85.13" y="-1999" width="249" height="30" as="geometry" />
        </mxCell>
        <mxCell id="nuq5DP8jEZcBYoAGEvhW-46" value="Multiple views of staff absences" style="shape=table;startSize=36;container=1;collapsible=0;childLayout=tableLayout;fixedRows=1;rowLines=0;fontStyle=0;strokeColor=default;fontSize=16;sketch=1;hachureGap=4;jiggle=2;curveFitting=1;fontFamily=Architects Daughter;fontSource=https%3A%2F%2Ffonts.googleapis.com%2Fcss%3Ffamily%3DArchitects%2BDaughter;" parent="1" vertex="1">
          <mxGeometry x="-279" y="-1922" width="278" height="352.72727272727275" as="geometry" />
        </mxCell>
        <mxCell id="nuq5DP8jEZcBYoAGEvhW-47" value="" style="shape=tableRow;horizontal=0;startSize=0;swimlaneHead=0;swimlaneBody=0;top=0;left=0;bottom=0;right=0;collapsible=0;dropTarget=0;fillColor=none;points=[[0,0.5],[1,0.5]];portConstraint=eastwest;strokeColor=inherit;fontSize=16;sketch=1;hachureGap=4;jiggle=2;curveFitting=1;fontFamily=Architects Daughter;fontSource=https%3A%2F%2Ffonts.googleapis.com%2Fcss%3Ffamily%3DArchitects%2BDaughter;" parent="nuq5DP8jEZcBYoAGEvhW-46" vertex="1">
          <mxGeometry y="36" width="278" height="57" as="geometry" />
        </mxCell>
        <mxCell id="nuq5DP8jEZcBYoAGEvhW-48" value="1" style="shape=partialRectangle;html=1;whiteSpace=wrap;connectable=0;fillColor=none;top=0;left=0;bottom=0;right=0;overflow=hidden;pointerEvents=1;strokeColor=inherit;fontSize=16;sketch=1;hachureGap=4;jiggle=2;curveFitting=1;fontFamily=Architects Daughter;fontSource=https%3A%2F%2Ffonts.googleapis.com%2Fcss%3Ffamily%3DArchitects%2BDaughter;" parent="nuq5DP8jEZcBYoAGEvhW-47" vertex="1">
          <mxGeometry width="40" height="57" as="geometry">
            <mxRectangle width="40" height="57" as="alternateBounds" />
          </mxGeometry>
        </mxCell>
        <mxCell id="nuq5DP8jEZcBYoAGEvhW-49" value="Calendar view - current user&#39;s calendar" style="shape=partialRectangle;html=1;whiteSpace=wrap;connectable=0;fillColor=none;top=0;left=0;bottom=0;right=0;align=left;spacingLeft=6;overflow=hidden;strokeColor=inherit;fontSize=16;sketch=1;hachureGap=4;jiggle=2;curveFitting=1;fontFamily=Architects Daughter;fontSource=https%3A%2F%2Ffonts.googleapis.com%2Fcss%3Ffamily%3DArchitects%2BDaughter;" parent="nuq5DP8jEZcBYoAGEvhW-47" vertex="1">
          <mxGeometry x="40" width="238" height="57" as="geometry">
            <mxRectangle width="238" height="57" as="alternateBounds" />
          </mxGeometry>
        </mxCell>
        <mxCell id="nuq5DP8jEZcBYoAGEvhW-50" value="" style="shape=tableRow;horizontal=0;startSize=0;swimlaneHead=0;swimlaneBody=0;top=0;left=0;bottom=0;right=0;collapsible=0;dropTarget=0;fillColor=none;points=[[0,0.5],[1,0.5]];portConstraint=eastwest;strokeColor=inherit;fontSize=16;sketch=1;hachureGap=4;jiggle=2;curveFitting=1;fontFamily=Architects Daughter;fontSource=https%3A%2F%2Ffonts.googleapis.com%2Fcss%3Ffamily%3DArchitects%2BDaughter;" parent="nuq5DP8jEZcBYoAGEvhW-46" vertex="1">
          <mxGeometry y="93" width="278" height="88" as="geometry" />
        </mxCell>
        <mxCell id="nuq5DP8jEZcBYoAGEvhW-51" value="2" style="shape=partialRectangle;html=1;whiteSpace=wrap;connectable=0;fillColor=none;top=0;left=0;bottom=0;right=0;overflow=hidden;strokeColor=inherit;fontSize=16;sketch=1;hachureGap=4;jiggle=2;curveFitting=1;fontFamily=Architects Daughter;fontSource=https%3A%2F%2Ffonts.googleapis.com%2Fcss%3Ffamily%3DArchitects%2BDaughter;" parent="nuq5DP8jEZcBYoAGEvhW-50" vertex="1">
          <mxGeometry width="40" height="88" as="geometry">
            <mxRectangle width="40" height="88" as="alternateBounds" />
          </mxGeometry>
        </mxCell>
        <mxCell id="nuq5DP8jEZcBYoAGEvhW-52" value="Team view - current user&#39;s team - list of dependent employees uncluding the current user" style="shape=partialRectangle;html=1;whiteSpace=wrap;connectable=0;fillColor=none;top=0;left=0;bottom=0;right=0;align=left;spacingLeft=6;overflow=hidden;strokeColor=inherit;fontSize=16;sketch=1;hachureGap=4;jiggle=2;curveFitting=1;fontFamily=Architects Daughter;fontSource=https%3A%2F%2Ffonts.googleapis.com%2Fcss%3Ffamily%3DArchitects%2BDaughter;" parent="nuq5DP8jEZcBYoAGEvhW-50" vertex="1">
          <mxGeometry x="40" width="238" height="88" as="geometry">
            <mxRectangle width="238" height="88" as="alternateBounds" />
          </mxGeometry>
        </mxCell>
        <mxCell id="nuq5DP8jEZcBYoAGEvhW-53" value="" style="shape=tableRow;horizontal=0;startSize=0;swimlaneHead=0;swimlaneBody=0;top=0;left=0;bottom=0;right=0;collapsible=0;dropTarget=0;fillColor=none;points=[[0,0.5],[1,0.5]];portConstraint=eastwest;strokeColor=inherit;fontSize=16;sketch=1;hachureGap=4;jiggle=2;curveFitting=1;fontFamily=Architects Daughter;fontSource=https%3A%2F%2Ffonts.googleapis.com%2Fcss%3Ffamily%3DArchitects%2BDaughter;" parent="nuq5DP8jEZcBYoAGEvhW-46" vertex="1">
          <mxGeometry y="181" width="278" height="44" as="geometry" />
        </mxCell>
        <mxCell id="nuq5DP8jEZcBYoAGEvhW-54" value="3" style="shape=partialRectangle;html=1;whiteSpace=wrap;connectable=0;fillColor=none;top=0;left=0;bottom=0;right=0;overflow=hidden;strokeColor=inherit;fontSize=16;sketch=1;hachureGap=4;jiggle=2;curveFitting=1;fontFamily=Architects Daughter;fontSource=https%3A%2F%2Ffonts.googleapis.com%2Fcss%3Ffamily%3DArchitects%2BDaughter;" parent="nuq5DP8jEZcBYoAGEvhW-53" vertex="1">
          <mxGeometry width="40" height="44" as="geometry">
            <mxRectangle width="40" height="44" as="alternateBounds" />
          </mxGeometry>
        </mxCell>
        <mxCell id="nuq5DP8jEZcBYoAGEvhW-55" value="Employees - list of dependent employees" style="shape=partialRectangle;html=1;whiteSpace=wrap;connectable=0;fillColor=none;top=0;left=0;bottom=0;right=0;align=left;spacingLeft=6;overflow=hidden;strokeColor=inherit;fontSize=16;sketch=1;hachureGap=4;jiggle=2;curveFitting=1;fontFamily=Architects Daughter;fontSource=https%3A%2F%2Ffonts.googleapis.com%2Fcss%3Ffamily%3DArchitects%2BDaughter;" parent="nuq5DP8jEZcBYoAGEvhW-53" vertex="1">
          <mxGeometry x="40" width="238" height="44" as="geometry">
            <mxRectangle width="238" height="44" as="alternateBounds" />
          </mxGeometry>
        </mxCell>
        <mxCell id="nuq5DP8jEZcBYoAGEvhW-56" value="" style="shape=tableRow;horizontal=0;startSize=0;swimlaneHead=0;swimlaneBody=0;top=0;left=0;bottom=0;right=0;collapsible=0;dropTarget=0;fillColor=none;points=[[0,0.5],[1,0.5]];portConstraint=eastwest;strokeColor=inherit;fontSize=16;sketch=1;hachureGap=4;jiggle=2;curveFitting=1;fontFamily=Architects Daughter;fontSource=https%3A%2F%2Ffonts.googleapis.com%2Fcss%3Ffamily%3DArchitects%2BDaughter;" parent="nuq5DP8jEZcBYoAGEvhW-46" vertex="1">
          <mxGeometry y="225" width="278" height="30" as="geometry" />
        </mxCell>
        <mxCell id="nuq5DP8jEZcBYoAGEvhW-57" value="4" style="shape=partialRectangle;html=1;whiteSpace=wrap;connectable=0;fillColor=none;top=0;left=0;bottom=0;right=0;overflow=hidden;strokeColor=inherit;fontSize=16;sketch=1;hachureGap=4;jiggle=2;curveFitting=1;fontFamily=Architects Daughter;fontSource=https%3A%2F%2Ffonts.googleapis.com%2Fcss%3Ffamily%3DArchitects%2BDaughter;" parent="nuq5DP8jEZcBYoAGEvhW-56" vertex="1">
          <mxGeometry width="40" height="30" as="geometry">
            <mxRectangle width="40" height="30" as="alternateBounds" />
          </mxGeometry>
        </mxCell>
        <mxCell id="nuq5DP8jEZcBYoAGEvhW-58" value="Absences&#39; HeatMap" style="shape=partialRectangle;html=1;whiteSpace=wrap;connectable=0;fillColor=none;top=0;left=0;bottom=0;right=0;align=left;spacingLeft=6;overflow=hidden;strokeColor=inherit;fontSize=16;sketch=1;hachureGap=4;jiggle=2;curveFitting=1;fontFamily=Architects Daughter;fontSource=https%3A%2F%2Ffonts.googleapis.com%2Fcss%3Ffamily%3DArchitects%2BDaughter;" parent="nuq5DP8jEZcBYoAGEvhW-56" vertex="1">
          <mxGeometry x="40" width="238" height="30" as="geometry">
            <mxRectangle width="238" height="30" as="alternateBounds" />
          </mxGeometry>
        </mxCell>
        <mxCell id="5xDO-Jl6c3Hg000AoyIj-81" value="" style="shape=tableRow;horizontal=0;startSize=0;swimlaneHead=0;swimlaneBody=0;top=0;left=0;bottom=0;right=0;collapsible=0;dropTarget=0;fillColor=none;points=[[0,0.5],[1,0.5]];portConstraint=eastwest;strokeColor=inherit;fontSize=16;sketch=1;hachureGap=4;jiggle=2;curveFitting=1;fontFamily=Architects Daughter;fontSource=https%3A%2F%2Ffonts.googleapis.com%2Fcss%3Ffamily%3DArchitects%2BDaughter;" vertex="1" parent="nuq5DP8jEZcBYoAGEvhW-46">
          <mxGeometry y="255" width="278" height="96" as="geometry" />
        </mxCell>
        <mxCell id="5xDO-Jl6c3Hg000AoyIj-82" value="5" style="shape=partialRectangle;html=1;whiteSpace=wrap;connectable=0;fillColor=none;top=0;left=0;bottom=0;right=0;overflow=hidden;strokeColor=inherit;fontSize=16;sketch=1;hachureGap=4;jiggle=2;curveFitting=1;fontFamily=Architects Daughter;fontSource=https%3A%2F%2Ffonts.googleapis.com%2Fcss%3Ffamily%3DArchitects%2BDaughter;" vertex="1" parent="5xDO-Jl6c3Hg000AoyIj-81">
          <mxGeometry width="40" height="96" as="geometry">
            <mxRectangle width="40" height="96" as="alternateBounds" />
          </mxGeometry>
        </mxCell>
        <mxCell id="5xDO-Jl6c3Hg000AoyIj-83" value="Team view page can be hidden from the superwisers and other employees by the administrator" style="shape=partialRectangle;html=1;whiteSpace=wrap;connectable=0;fillColor=none;top=0;left=0;bottom=0;right=0;align=left;spacingLeft=6;overflow=hidden;strokeColor=inherit;fontSize=16;sketch=1;hachureGap=4;jiggle=2;curveFitting=1;fontFamily=Architects Daughter;fontSource=https%3A%2F%2Ffonts.googleapis.com%2Fcss%3Ffamily%3DArchitects%2BDaughter;" vertex="1" parent="5xDO-Jl6c3Hg000AoyIj-81">
          <mxGeometry x="40" width="238" height="96" as="geometry">
            <mxRectangle width="238" height="96" as="alternateBounds" />
          </mxGeometry>
        </mxCell>
        <mxCell id="nuq5DP8jEZcBYoAGEvhW-59" value="Views" style="text;strokeColor=none;fillColor=none;html=1;align=center;verticalAlign=middle;whiteSpace=wrap;rounded=0;fontSize=16;fontFamily=Architects Daughter;fontSource=https%3A%2F%2Ffonts.googleapis.com%2Fcss%3Ffamily%3DArchitects%2BDaughter;" parent="1" vertex="1">
          <mxGeometry x="-159" y="-2010" width="60" height="30" as="geometry" />
        </mxCell>
        <mxCell id="5xDO-Jl6c3Hg000AoyIj-43" value="&lt;h1 style=&quot;margin-top: 0px;&quot;&gt;&lt;span style=&quot;font-size: 16px; font-weight: 400; text-align: center;&quot;&gt;Administrator&lt;/span&gt;&lt;br&gt;&lt;/h1&gt;&lt;p&gt;Has all of the items in the main left sidebar menu&lt;/p&gt;" style="text;html=1;whiteSpace=wrap;overflow=hidden;rounded=0;fontFamily=Architects Daughter;fontSource=https%3A%2F%2Ffonts.googleapis.com%2Fcss%3Ffamily%3DArchitects%2BDaughter;" vertex="1" parent="1">
          <mxGeometry x="-598" y="-2485" width="336" height="371" as="geometry" />
        </mxCell>
        <mxCell id="5xDO-Jl6c3Hg000AoyIj-44" value="&lt;h1 style=&quot;margin-top: 0px;&quot;&gt;&lt;span style=&quot;font-size: 16px; font-weight: 400; text-align: center;&quot;&gt;Superwiser&lt;/span&gt;&lt;br&gt;&lt;/h1&gt;&lt;p&gt;Has just 4 items in the main left sidebar menu: Calendar, Team view, Employees and Heat map&lt;br&gt;&lt;/p&gt;" style="text;html=1;whiteSpace=wrap;overflow=hidden;rounded=0;fontFamily=Architects Daughter;fontSource=https%3A%2F%2Ffonts.googleapis.com%2Fcss%3Ffamily%3DArchitects%2BDaughter;" vertex="1" parent="1">
          <mxGeometry x="-136" y="-2485" width="348" height="419" as="geometry" />
        </mxCell>
        <mxCell id="5xDO-Jl6c3Hg000AoyIj-45" value="&lt;h1 style=&quot;margin-top: 0px;&quot;&gt;&lt;span style=&quot;font-size: 16px; font-weight: 400; text-align: center;&quot;&gt;Employee&lt;/span&gt;&lt;br&gt;&lt;/h1&gt;&lt;p&gt;Has just 3 items in the main left sidebar menu: Calendar, Team View and Heat Map&lt;/p&gt;" style="text;html=1;whiteSpace=wrap;overflow=hidden;rounded=0;fontFamily=Architects Daughter;fontSource=https%3A%2F%2Ffonts.googleapis.com%2Fcss%3Ffamily%3DArchitects%2BDaughter;" vertex="1" parent="1">
          <mxGeometry x="333" y="-2485" width="332" height="511" as="geometry" />
        </mxCell>
        <mxCell id="5xDO-Jl6c3Hg000AoyIj-46" value="New absence button " style="shape=table;startSize=36;container=1;collapsible=0;childLayout=tableLayout;fixedRows=1;rowLines=0;fontStyle=0;strokeColor=default;fontSize=16;sketch=1;hachureGap=4;jiggle=2;curveFitting=1;fontFamily=Architects Daughter;fontSource=https%3A%2F%2Ffonts.googleapis.com%2Fcss%3Ffamily%3DArchitects%2BDaughter;" vertex="1" parent="1">
          <mxGeometry x="547" y="-1926" width="399.5100000000002" height="139.5277777777776" as="geometry" />
        </mxCell>
        <mxCell id="5xDO-Jl6c3Hg000AoyIj-47" value="" style="shape=tableRow;horizontal=0;startSize=0;swimlaneHead=0;swimlaneBody=0;top=0;left=0;bottom=0;right=0;collapsible=0;dropTarget=0;fillColor=none;points=[[0,0.5],[1,0.5]];portConstraint=eastwest;strokeColor=inherit;fontSize=16;sketch=1;hachureGap=4;jiggle=2;curveFitting=1;fontFamily=Architects Daughter;fontSource=https%3A%2F%2Ffonts.googleapis.com%2Fcss%3Ffamily%3DArchitects%2BDaughter;" vertex="1" parent="5xDO-Jl6c3Hg000AoyIj-46">
          <mxGeometry y="36" width="399.5100000000002" height="52" as="geometry" />
        </mxCell>
        <mxCell id="5xDO-Jl6c3Hg000AoyIj-48" value="1" style="shape=partialRectangle;html=1;whiteSpace=wrap;connectable=0;fillColor=none;top=0;left=0;bottom=0;right=0;overflow=hidden;pointerEvents=1;strokeColor=inherit;fontSize=16;sketch=1;hachureGap=4;jiggle=2;curveFitting=1;fontFamily=Architects Daughter;fontSource=https%3A%2F%2Ffonts.googleapis.com%2Fcss%3Ffamily%3DArchitects%2BDaughter;" vertex="1" parent="5xDO-Jl6c3Hg000AoyIj-47">
          <mxGeometry width="40" height="52" as="geometry">
            <mxRectangle width="40" height="52" as="alternateBounds" />
          </mxGeometry>
        </mxCell>
        <mxCell id="5xDO-Jl6c3Hg000AoyIj-49" value="Create new absence request for itself (and for dependents employees)" style="shape=partialRectangle;html=1;whiteSpace=wrap;connectable=0;fillColor=none;top=0;left=0;bottom=0;right=0;align=left;spacingLeft=6;overflow=hidden;strokeColor=inherit;fontSize=16;sketch=1;hachureGap=4;jiggle=2;curveFitting=1;fontFamily=Architects Daughter;fontSource=https%3A%2F%2Ffonts.googleapis.com%2Fcss%3Ffamily%3DArchitects%2BDaughter;" vertex="1" parent="5xDO-Jl6c3Hg000AoyIj-47">
          <mxGeometry x="40" width="360" height="52" as="geometry">
            <mxRectangle width="360" height="52" as="alternateBounds" />
          </mxGeometry>
        </mxCell>
        <mxCell id="5xDO-Jl6c3Hg000AoyIj-50" value="" style="shape=tableRow;horizontal=0;startSize=0;swimlaneHead=0;swimlaneBody=0;top=0;left=0;bottom=0;right=0;collapsible=0;dropTarget=0;fillColor=none;points=[[0,0.5],[1,0.5]];portConstraint=eastwest;strokeColor=inherit;fontSize=16;sketch=1;hachureGap=4;jiggle=2;curveFitting=1;fontFamily=Architects Daughter;fontSource=https%3A%2F%2Ffonts.googleapis.com%2Fcss%3Ffamily%3DArchitects%2BDaughter;" vertex="1" parent="5xDO-Jl6c3Hg000AoyIj-46">
          <mxGeometry y="88" width="399.5100000000002" height="49" as="geometry" />
        </mxCell>
        <mxCell id="5xDO-Jl6c3Hg000AoyIj-51" value="2" style="shape=partialRectangle;html=1;whiteSpace=wrap;connectable=0;fillColor=none;top=0;left=0;bottom=0;right=0;overflow=hidden;strokeColor=inherit;fontSize=16;sketch=1;hachureGap=4;jiggle=2;curveFitting=1;fontFamily=Architects Daughter;fontSource=https%3A%2F%2Ffonts.googleapis.com%2Fcss%3Ffamily%3DArchitects%2BDaughter;" vertex="1" parent="5xDO-Jl6c3Hg000AoyIj-50">
          <mxGeometry width="40" height="49" as="geometry">
            <mxRectangle width="40" height="49" as="alternateBounds" />
          </mxGeometry>
        </mxCell>
        <mxCell id="5xDO-Jl6c3Hg000AoyIj-52" value="New absence form shows up as a sidebar" style="shape=partialRectangle;html=1;whiteSpace=wrap;connectable=0;fillColor=none;top=0;left=0;bottom=0;right=0;align=left;spacingLeft=6;overflow=hidden;strokeColor=inherit;fontSize=16;sketch=1;hachureGap=4;jiggle=2;curveFitting=1;fontFamily=Architects Daughter;fontSource=https%3A%2F%2Ffonts.googleapis.com%2Fcss%3Ffamily%3DArchitects%2BDaughter;" vertex="1" parent="5xDO-Jl6c3Hg000AoyIj-50">
          <mxGeometry x="40" width="360" height="49" as="geometry">
            <mxRectangle width="360" height="49" as="alternateBounds" />
          </mxGeometry>
        </mxCell>
        <mxCell id="5xDO-Jl6c3Hg000AoyIj-62" value="&lt;span style=&quot;text-align: left;&quot;&gt;New absence button&amp;nbsp;&lt;/span&gt;" style="text;strokeColor=none;fillColor=none;html=1;align=center;verticalAlign=middle;whiteSpace=wrap;rounded=0;fontSize=16;fontFamily=Architects Daughter;fontSource=https%3A%2F%2Ffonts.googleapis.com%2Fcss%3Ffamily%3DArchitects%2BDaughter;" vertex="1" parent="1">
          <mxGeometry x="565.13" y="-2003" width="249" height="30" as="geometry" />
        </mxCell>
        <mxCell id="5xDO-Jl6c3Hg000AoyIj-63" value="New absence button " style="shape=table;startSize=36;container=1;collapsible=0;childLayout=tableLayout;fixedRows=1;rowLines=0;fontStyle=0;strokeColor=default;fontSize=16;sketch=1;hachureGap=4;jiggle=2;curveFitting=1;fontFamily=Architects Daughter;fontSource=https%3A%2F%2Ffonts.googleapis.com%2Fcss%3Ffamily%3DArchitects%2BDaughter;" vertex="1" parent="1">
          <mxGeometry x="1017" y="-1929" width="399.5100000000002" height="188.5277777777776" as="geometry" />
        </mxCell>
        <mxCell id="5xDO-Jl6c3Hg000AoyIj-64" value="" style="shape=tableRow;horizontal=0;startSize=0;swimlaneHead=0;swimlaneBody=0;top=0;left=0;bottom=0;right=0;collapsible=0;dropTarget=0;fillColor=none;points=[[0,0.5],[1,0.5]];portConstraint=eastwest;strokeColor=inherit;fontSize=16;sketch=1;hachureGap=4;jiggle=2;curveFitting=1;fontFamily=Architects Daughter;fontSource=https%3A%2F%2Ffonts.googleapis.com%2Fcss%3Ffamily%3DArchitects%2BDaughter;" vertex="1" parent="5xDO-Jl6c3Hg000AoyIj-63">
          <mxGeometry y="36" width="399.5100000000002" height="52" as="geometry" />
        </mxCell>
        <mxCell id="5xDO-Jl6c3Hg000AoyIj-65" value="1" style="shape=partialRectangle;html=1;whiteSpace=wrap;connectable=0;fillColor=none;top=0;left=0;bottom=0;right=0;overflow=hidden;pointerEvents=1;strokeColor=inherit;fontSize=16;sketch=1;hachureGap=4;jiggle=2;curveFitting=1;fontFamily=Architects Daughter;fontSource=https%3A%2F%2Ffonts.googleapis.com%2Fcss%3Ffamily%3DArchitects%2BDaughter;" vertex="1" parent="5xDO-Jl6c3Hg000AoyIj-64">
          <mxGeometry width="40" height="52" as="geometry">
            <mxRectangle width="40" height="52" as="alternateBounds" />
          </mxGeometry>
        </mxCell>
        <mxCell id="5xDO-Jl6c3Hg000AoyIj-66" value="Common views of the service" style="shape=partialRectangle;html=1;whiteSpace=wrap;connectable=0;fillColor=none;top=0;left=0;bottom=0;right=0;align=left;spacingLeft=6;overflow=hidden;strokeColor=inherit;fontSize=16;sketch=1;hachureGap=4;jiggle=2;curveFitting=1;fontFamily=Architects Daughter;fontSource=https%3A%2F%2Ffonts.googleapis.com%2Fcss%3Ffamily%3DArchitects%2BDaughter;" vertex="1" parent="5xDO-Jl6c3Hg000AoyIj-64">
          <mxGeometry x="40" width="360" height="52" as="geometry">
            <mxRectangle width="360" height="52" as="alternateBounds" />
          </mxGeometry>
        </mxCell>
        <mxCell id="5xDO-Jl6c3Hg000AoyIj-67" value="" style="shape=tableRow;horizontal=0;startSize=0;swimlaneHead=0;swimlaneBody=0;top=0;left=0;bottom=0;right=0;collapsible=0;dropTarget=0;fillColor=none;points=[[0,0.5],[1,0.5]];portConstraint=eastwest;strokeColor=inherit;fontSize=16;sketch=1;hachureGap=4;jiggle=2;curveFitting=1;fontFamily=Architects Daughter;fontSource=https%3A%2F%2Ffonts.googleapis.com%2Fcss%3Ffamily%3DArchitects%2BDaughter;" vertex="1" parent="5xDO-Jl6c3Hg000AoyIj-63">
          <mxGeometry y="88" width="399.5100000000002" height="49" as="geometry" />
        </mxCell>
        <mxCell id="5xDO-Jl6c3Hg000AoyIj-68" value="2" style="shape=partialRectangle;html=1;whiteSpace=wrap;connectable=0;fillColor=none;top=0;left=0;bottom=0;right=0;overflow=hidden;strokeColor=inherit;fontSize=16;sketch=1;hachureGap=4;jiggle=2;curveFitting=1;fontFamily=Architects Daughter;fontSource=https%3A%2F%2Ffonts.googleapis.com%2Fcss%3Ffamily%3DArchitects%2BDaughter;" vertex="1" parent="5xDO-Jl6c3Hg000AoyIj-67">
          <mxGeometry width="40" height="49" as="geometry">
            <mxRectangle width="40" height="49" as="alternateBounds" />
          </mxGeometry>
        </mxCell>
        <mxCell id="5xDO-Jl6c3Hg000AoyIj-69" value="Contact us button opens feedback form popup" style="shape=partialRectangle;html=1;whiteSpace=wrap;connectable=0;fillColor=none;top=0;left=0;bottom=0;right=0;align=left;spacingLeft=6;overflow=hidden;strokeColor=inherit;fontSize=16;sketch=1;hachureGap=4;jiggle=2;curveFitting=1;fontFamily=Architects Daughter;fontSource=https%3A%2F%2Ffonts.googleapis.com%2Fcss%3Ffamily%3DArchitects%2BDaughter;" vertex="1" parent="5xDO-Jl6c3Hg000AoyIj-67">
          <mxGeometry x="40" width="360" height="49" as="geometry">
            <mxRectangle width="360" height="49" as="alternateBounds" />
          </mxGeometry>
        </mxCell>
        <mxCell id="5xDO-Jl6c3Hg000AoyIj-78" value="" style="shape=tableRow;horizontal=0;startSize=0;swimlaneHead=0;swimlaneBody=0;top=0;left=0;bottom=0;right=0;collapsible=0;dropTarget=0;fillColor=none;points=[[0,0.5],[1,0.5]];portConstraint=eastwest;strokeColor=inherit;fontSize=16;sketch=1;hachureGap=4;jiggle=2;curveFitting=1;fontFamily=Architects Daughter;fontSource=https%3A%2F%2Ffonts.googleapis.com%2Fcss%3Ffamily%3DArchitects%2BDaughter;" vertex="1" parent="5xDO-Jl6c3Hg000AoyIj-63">
          <mxGeometry y="137" width="399.5100000000002" height="49" as="geometry" />
        </mxCell>
        <mxCell id="5xDO-Jl6c3Hg000AoyIj-79" value="3" style="shape=partialRectangle;html=1;whiteSpace=wrap;connectable=0;fillColor=none;top=0;left=0;bottom=0;right=0;overflow=hidden;strokeColor=inherit;fontSize=16;sketch=1;hachureGap=4;jiggle=2;curveFitting=1;fontFamily=Architects Daughter;fontSource=https%3A%2F%2Ffonts.googleapis.com%2Fcss%3Ffamily%3DArchitects%2BDaughter;" vertex="1" parent="5xDO-Jl6c3Hg000AoyIj-78">
          <mxGeometry width="40" height="49" as="geometry">
            <mxRectangle width="40" height="49" as="alternateBounds" />
          </mxGeometry>
        </mxCell>
        <mxCell id="5xDO-Jl6c3Hg000AoyIj-80" value="Collsapse sidebar button" style="shape=partialRectangle;html=1;whiteSpace=wrap;connectable=0;fillColor=none;top=0;left=0;bottom=0;right=0;align=left;spacingLeft=6;overflow=hidden;strokeColor=inherit;fontSize=16;sketch=1;hachureGap=4;jiggle=2;curveFitting=1;fontFamily=Architects Daughter;fontSource=https%3A%2F%2Ffonts.googleapis.com%2Fcss%3Ffamily%3DArchitects%2BDaughter;" vertex="1" parent="5xDO-Jl6c3Hg000AoyIj-78">
          <mxGeometry x="40" width="360" height="49" as="geometry">
            <mxRectangle width="360" height="49" as="alternateBounds" />
          </mxGeometry>
        </mxCell>
        <mxCell id="5xDO-Jl6c3Hg000AoyIj-70" value="&lt;span style=&quot;text-align: left;&quot;&gt;Left sidebar main menu&lt;/span&gt;" style="text;strokeColor=none;fillColor=none;html=1;align=center;verticalAlign=middle;whiteSpace=wrap;rounded=0;fontSize=16;fontFamily=Architects Daughter;fontSource=https%3A%2F%2Ffonts.googleapis.com%2Fcss%3Ffamily%3DArchitects%2BDaughter;" vertex="1" parent="1">
          <mxGeometry x="1073" y="-2007" width="249" height="30" as="geometry" />
        </mxCell>
        <mxCell id="5xDO-Jl6c3Hg000AoyIj-84" value="Employees&#39; list" style="shape=table;startSize=36;container=1;collapsible=0;childLayout=tableLayout;fixedRows=1;rowLines=0;fontStyle=0;strokeColor=default;fontSize=16;sketch=1;hachureGap=4;jiggle=2;curveFitting=1;fontFamily=Architects Daughter;fontSource=https%3A%2F%2Ffonts.googleapis.com%2Fcss%3Ffamily%3DArchitects%2BDaughter;" vertex="1" parent="1">
          <mxGeometry x="-684" y="-303" width="403.75" height="229.01190476190476" as="geometry" />
        </mxCell>
        <mxCell id="5xDO-Jl6c3Hg000AoyIj-85" value="" style="shape=tableRow;horizontal=0;startSize=0;swimlaneHead=0;swimlaneBody=0;top=0;left=0;bottom=0;right=0;collapsible=0;dropTarget=0;fillColor=none;points=[[0,0.5],[1,0.5]];portConstraint=eastwest;strokeColor=inherit;fontSize=16;sketch=1;hachureGap=4;jiggle=2;curveFitting=1;fontFamily=Architects Daughter;fontSource=https%3A%2F%2Ffonts.googleapis.com%2Fcss%3Ffamily%3DArchitects%2BDaughter;" vertex="1" parent="5xDO-Jl6c3Hg000AoyIj-84">
          <mxGeometry y="36" width="403.75" height="30" as="geometry" />
        </mxCell>
        <mxCell id="5xDO-Jl6c3Hg000AoyIj-86" value="1" style="shape=partialRectangle;html=1;whiteSpace=wrap;connectable=0;fillColor=none;top=0;left=0;bottom=0;right=0;overflow=hidden;pointerEvents=1;strokeColor=inherit;fontSize=16;sketch=1;hachureGap=4;jiggle=2;curveFitting=1;fontFamily=Architects Daughter;fontSource=https%3A%2F%2Ffonts.googleapis.com%2Fcss%3Ffamily%3DArchitects%2BDaughter;" vertex="1" parent="5xDO-Jl6c3Hg000AoyIj-85">
          <mxGeometry width="40" height="30" as="geometry">
            <mxRectangle width="40" height="30" as="alternateBounds" />
          </mxGeometry>
        </mxCell>
        <mxCell id="5xDO-Jl6c3Hg000AoyIj-87" value="Common employee has not access&amp;nbsp;" style="shape=partialRectangle;html=1;whiteSpace=wrap;connectable=0;fillColor=none;top=0;left=0;bottom=0;right=0;align=left;spacingLeft=6;overflow=hidden;strokeColor=inherit;fontSize=16;sketch=1;hachureGap=4;jiggle=2;curveFitting=1;fontFamily=Architects Daughter;fontSource=https%3A%2F%2Ffonts.googleapis.com%2Fcss%3Ffamily%3DArchitects%2BDaughter;" vertex="1" parent="5xDO-Jl6c3Hg000AoyIj-85">
          <mxGeometry x="40" width="364" height="30" as="geometry">
            <mxRectangle width="364" height="30" as="alternateBounds" />
          </mxGeometry>
        </mxCell>
        <mxCell id="5xDO-Jl6c3Hg000AoyIj-88" value="" style="shape=tableRow;horizontal=0;startSize=0;swimlaneHead=0;swimlaneBody=0;top=0;left=0;bottom=0;right=0;collapsible=0;dropTarget=0;fillColor=none;points=[[0,0.5],[1,0.5]];portConstraint=eastwest;strokeColor=inherit;fontSize=16;sketch=1;hachureGap=4;jiggle=2;curveFitting=1;fontFamily=Architects Daughter;fontSource=https%3A%2F%2Ffonts.googleapis.com%2Fcss%3Ffamily%3DArchitects%2BDaughter;" vertex="1" parent="5xDO-Jl6c3Hg000AoyIj-84">
          <mxGeometry y="66" width="403.75" height="48" as="geometry" />
        </mxCell>
        <mxCell id="5xDO-Jl6c3Hg000AoyIj-89" value="2" style="shape=partialRectangle;html=1;whiteSpace=wrap;connectable=0;fillColor=none;top=0;left=0;bottom=0;right=0;overflow=hidden;strokeColor=inherit;fontSize=16;sketch=1;hachureGap=4;jiggle=2;curveFitting=1;fontFamily=Architects Daughter;fontSource=https%3A%2F%2Ffonts.googleapis.com%2Fcss%3Ffamily%3DArchitects%2BDaughter;" vertex="1" parent="5xDO-Jl6c3Hg000AoyIj-88">
          <mxGeometry width="40" height="48" as="geometry">
            <mxRectangle width="40" height="48" as="alternateBounds" />
          </mxGeometry>
        </mxCell>
        <mxCell id="5xDO-Jl6c3Hg000AoyIj-90" value="Superwiser can see its dependents employees list" style="shape=partialRectangle;html=1;whiteSpace=wrap;connectable=0;fillColor=none;top=0;left=0;bottom=0;right=0;align=left;spacingLeft=6;overflow=hidden;strokeColor=inherit;fontSize=16;sketch=1;hachureGap=4;jiggle=2;curveFitting=1;fontFamily=Architects Daughter;fontSource=https%3A%2F%2Ffonts.googleapis.com%2Fcss%3Ffamily%3DArchitects%2BDaughter;" vertex="1" parent="5xDO-Jl6c3Hg000AoyIj-88">
          <mxGeometry x="40" width="364" height="48" as="geometry">
            <mxRectangle width="364" height="48" as="alternateBounds" />
          </mxGeometry>
        </mxCell>
        <mxCell id="5xDO-Jl6c3Hg000AoyIj-91" value="" style="shape=tableRow;horizontal=0;startSize=0;swimlaneHead=0;swimlaneBody=0;top=0;left=0;bottom=0;right=0;collapsible=0;dropTarget=0;fillColor=none;points=[[0,0.5],[1,0.5]];portConstraint=eastwest;strokeColor=inherit;fontSize=16;sketch=1;hachureGap=4;jiggle=2;curveFitting=1;fontFamily=Architects Daughter;fontSource=https%3A%2F%2Ffonts.googleapis.com%2Fcss%3Ffamily%3DArchitects%2BDaughter;" vertex="1" parent="5xDO-Jl6c3Hg000AoyIj-84">
          <mxGeometry y="114" width="403.75" height="49" as="geometry" />
        </mxCell>
        <mxCell id="5xDO-Jl6c3Hg000AoyIj-92" value="3" style="shape=partialRectangle;html=1;whiteSpace=wrap;connectable=0;fillColor=none;top=0;left=0;bottom=0;right=0;overflow=hidden;strokeColor=inherit;fontSize=16;sketch=1;hachureGap=4;jiggle=2;curveFitting=1;fontFamily=Architects Daughter;fontSource=https%3A%2F%2Ffonts.googleapis.com%2Fcss%3Ffamily%3DArchitects%2BDaughter;" vertex="1" parent="5xDO-Jl6c3Hg000AoyIj-91">
          <mxGeometry width="40" height="49" as="geometry">
            <mxRectangle width="40" height="49" as="alternateBounds" />
          </mxGeometry>
        </mxCell>
        <mxCell id="5xDO-Jl6c3Hg000AoyIj-93" value="Open Departments&#39; page on click on the names of department" style="shape=partialRectangle;html=1;whiteSpace=wrap;connectable=0;fillColor=none;top=0;left=0;bottom=0;right=0;align=left;spacingLeft=6;overflow=hidden;strokeColor=inherit;fontSize=16;sketch=1;hachureGap=4;jiggle=2;curveFitting=1;fontFamily=Architects Daughter;fontSource=https%3A%2F%2Ffonts.googleapis.com%2Fcss%3Ffamily%3DArchitects%2BDaughter;" vertex="1" parent="5xDO-Jl6c3Hg000AoyIj-91">
          <mxGeometry x="40" width="364" height="49" as="geometry">
            <mxRectangle width="364" height="49" as="alternateBounds" />
          </mxGeometry>
        </mxCell>
        <mxCell id="5xDO-Jl6c3Hg000AoyIj-94" value="" style="shape=tableRow;horizontal=0;startSize=0;swimlaneHead=0;swimlaneBody=0;top=0;left=0;bottom=0;right=0;collapsible=0;dropTarget=0;fillColor=none;points=[[0,0.5],[1,0.5]];portConstraint=eastwest;strokeColor=inherit;fontSize=16;sketch=1;hachureGap=4;jiggle=2;curveFitting=1;fontFamily=Architects Daughter;fontSource=https%3A%2F%2Ffonts.googleapis.com%2Fcss%3Ffamily%3DArchitects%2BDaughter;" vertex="1" parent="5xDO-Jl6c3Hg000AoyIj-84">
          <mxGeometry y="163" width="403.75" height="64" as="geometry" />
        </mxCell>
        <mxCell id="5xDO-Jl6c3Hg000AoyIj-95" value="4" style="shape=partialRectangle;html=1;whiteSpace=wrap;connectable=0;fillColor=none;top=0;left=0;bottom=0;right=0;overflow=hidden;strokeColor=inherit;fontSize=16;sketch=1;hachureGap=4;jiggle=2;curveFitting=1;fontFamily=Architects Daughter;fontSource=https%3A%2F%2Ffonts.googleapis.com%2Fcss%3Ffamily%3DArchitects%2BDaughter;" vertex="1" parent="5xDO-Jl6c3Hg000AoyIj-94">
          <mxGeometry width="40" height="64" as="geometry">
            <mxRectangle width="40" height="64" as="alternateBounds" />
          </mxGeometry>
        </mxCell>
        <mxCell id="5xDO-Jl6c3Hg000AoyIj-96" value="Admin and superwiser can open the popup about certain dependent employee - Employee Details" style="shape=partialRectangle;html=1;whiteSpace=wrap;connectable=0;fillColor=none;top=0;left=0;bottom=0;right=0;align=left;spacingLeft=6;overflow=hidden;strokeColor=inherit;fontSize=16;sketch=1;hachureGap=4;jiggle=2;curveFitting=1;fontFamily=Architects Daughter;fontSource=https%3A%2F%2Ffonts.googleapis.com%2Fcss%3Ffamily%3DArchitects%2BDaughter;" vertex="1" parent="5xDO-Jl6c3Hg000AoyIj-94">
          <mxGeometry x="40" width="364" height="64" as="geometry">
            <mxRectangle width="364" height="64" as="alternateBounds" />
          </mxGeometry>
        </mxCell>
        <mxCell id="5xDO-Jl6c3Hg000AoyIj-97" value="Employees" style="text;strokeColor=none;fillColor=none;html=1;align=center;verticalAlign=middle;whiteSpace=wrap;rounded=0;fontSize=16;fontFamily=Architects Daughter;fontSource=https%3A%2F%2Ffonts.googleapis.com%2Fcss%3Ffamily%3DArchitects%2BDaughter;" vertex="1" parent="1">
          <mxGeometry x="-582.0600000000001" y="-384" width="191.87" height="30" as="geometry" />
        </mxCell>
        <mxCell id="5xDO-Jl6c3Hg000AoyIj-98" style="edgeStyle=none;curved=1;rounded=0;sketch=1;hachureGap=4;jiggle=2;curveFitting=1;orthogonalLoop=1;jettySize=auto;html=1;fontFamily=Architects Daughter;fontSource=https%3A%2F%2Ffonts.googleapis.com%2Fcss%3Ffamily%3DArchitects%2BDaughter;fontSize=12;startSize=8;endSize=8;exitX=1;exitY=0.5;exitDx=0;exitDy=0;" edge="1" parent="1" source="5xDO-Jl6c3Hg000AoyIj-94">
          <mxGeometry relative="1" as="geometry">
            <mxPoint x="-111" y="-560" as="targetPoint" />
          </mxGeometry>
        </mxCell>
        <mxCell id="5xDO-Jl6c3Hg000AoyIj-99" style="edgeStyle=none;curved=1;rounded=0;sketch=1;hachureGap=4;jiggle=2;curveFitting=1;orthogonalLoop=1;jettySize=auto;html=1;entryX=0;entryY=0.5;entryDx=0;entryDy=0;fontFamily=Architects Daughter;fontSource=https%3A%2F%2Ffonts.googleapis.com%2Fcss%3Ffamily%3DArchitects%2BDaughter;fontSize=12;startSize=8;endSize=8;" edge="1" parent="1" source="JOeTYDWikCB6O97tGtDO-250" target="JOeTYDWikCB6O97tGtDO-264">
          <mxGeometry relative="1" as="geometry" />
        </mxCell>
        <mxCell id="5xDO-Jl6c3Hg000AoyIj-112" style="edgeStyle=none;curved=1;rounded=0;sketch=1;hachureGap=4;jiggle=2;curveFitting=1;orthogonalLoop=1;jettySize=auto;html=1;fontFamily=Architects Daughter;fontSource=https%3A%2F%2Ffonts.googleapis.com%2Fcss%3Ffamily%3DArchitects%2BDaughter;fontSize=12;startSize=8;endSize=8;" edge="1" parent="1" source="JOeTYDWikCB6O97tGtDO-135">
          <mxGeometry relative="1" as="geometry">
            <mxPoint x="-48.26315789473665" y="1651.5" as="targetPoint" />
          </mxGeometry>
        </mxCell>
        <mxCell id="5xDO-Jl6c3Hg000AoyIj-124" value="" style="shape=stencil(lZzZkhzHDUW/hq8VuS/PsvwfihBlMkyLCore/t5IT1R310XVKc4bNcKtzgUJXCyZH/JPf3765Y+PH1L48/u3r3//+O/Pv37/9CH/5UNKn3//9PHb5+/2rw/55w/5p9++fvv4t29f//n7r2///ccvS3L96x9f/7W+8J83XNtaWKAU/vv2hxS30P7/l7++yX/5/PuLfN/KOMqHLfRr+bGVfpCPY5vw/bnVfJTvW8/X8jFsPR4BbSsVAHGbxxnEuoUJgLxVmULeWgJA3cZxTWPaQgHA2Fo7AsJWYEi2R7MeAHOLsEipbnUe5Ps2YQb2uXRc1LbNeC2f09aP37clgAnntvXjCpWtg1IUW46jfN5/8Fw+q1LkLQSQb1sVrd4KzLfMLYiW4vrUuGXRuf0P5/JZFSLgetaq628LBvtb7RQXkY80nrF1ladDX6eesbAv2Kl8i2olTB7Ws+UtuvHA/jZTLzcekm9byu+R71t04wd9Nvmu+xthv9rYou5vpO8P1eewZdCf9jAfT/lK359qf0w/YfzdfEoS/Y8wnp62VESext/zru5P+Qr71YuuT0T706uex4T60Nvus57ymeT7NlSePEwfu7l5yg84LyPo+md0eSPu5uApX2D8I3n7PMAHD2ffCtqrUfbpPeUn2KtR9XzVnVacyzf1j2YAaDx9y8fvd17PsaXjetqBpvWZWzl+f+L6zKD+1AhEgx+YjkAYLRqwwzO7E2wqRzzONMCxJjpjsziaVXYtOQfU3Qa+ELkGp8AAcipjQ245m26bMbVIv9DcpOfWwHBN54iXpaMhGXE7/oIdtUQbZwRcTEvdndsVQLiEKTcZ32nOQ0KIuZvXK0A+TjpHNF8GqALIyIcMoPyv7gzgCjDkF/pWeUhigfNEl7wAx40zUjt4SPO4DyXts7qIhB4k5YGwEwRm6eQn2v6XS8DxQBgTbkAEPaCaJ7z5heMyGbclanoC6GxnHHcxtjroQBjgqBtGV9EwzX1jH4C8ZVYmoaeLsPKytuMc2sNUXQGKAPrdkRMGZpwv0cYN3Yce2Lha0Hs0TIv1MUCsceco0GylWGPjcRTWLWssgI5xjgGC8IDHrK4cRDuajcGRlwEksjBudufkjhtn5Iy4kgGyDKlgcGqOeh7NjNGtxoAqgLYfqStAkEkPjBem45PGoHBZzWlKAiUgg5tJHYQBBgPy0bYa56qkS3H/3gNgQQbNIbo5pN1PXrFEYa0GmJS7mzsXeQAyWu/Fcx0AA5Ou3GHtPczBNCcMBWSi6nULVQG0DxabzKQAMjN2vpoMqaK22gmWEzfZLvWpCUUDEL03KxSTAujEWcCajiducV/6hbIHtC8AIn3LuAugY06ou5jVAKTe5tFmUwBN2nxmkDM9MExvftJjq6B8LbmNe2TSrhJhekQ5XV4dm5ls+apLyC9uAJOuTZnuAsB5MMKWpgIo+q5Zg6AFAOWrUdM3C0D546lO8Q4w9vzjjwKa1i3uANVZvok5n5J3pv0CoHjAwoXk5kDG2AKS7jaOygQW8viNI4eSh7PeEwOOVSjwv0CAqobsJSw6R2TNFd0iktrvW0RQ9nCHSI6w3yLGTmB+GOEW9xZRNXK/RZg3ze9DpD1j8sOIuBvhH0aE9/5GnJo7WocJVD26vMs631TIbI5hPqpw54Cq4f7yRlzIVMLIDnLlBLsCKAhcxVjx2Y1J754mfuEpmBRRHTd5rj5nxxaJU/c9X/LKkKkQonn7ydFZdRw/YCK4KKUxhk2JgbKnJx/yHb1QPonMqHieXWBWMTeYVB8Wu6bCttYRxqMSdCEv5N7CaZKPGidagD/pUGoWZGUQYPxhz4m/pCiosBeUNRjrpUggKAE10kusO2id1Cgs7W/QfEYLO7+8kj/ub+1YeAtKq4z70Xl3Gc0aMAANyuhLx5xS0PNSym62L+TTcb4l3qyPECSjTBStujpOZvsZtQ9hsRnUf63TRdTP6OqYkx2rrv9N7SDtq/GQbxgUJk2fpUcy6kJe7GfKzGg1/FpfILqpPnutAIy/KH9ahXCKErTuuTSKwkHNFsaJ56tuvap8An1rjvkOLMQ0TWybPMXwpi1V5Wk83bHkgXnwroUkkyd70veQ7EW+USFfU0FrfXA8Wrdlzuf4SZw369nc/lJhvrs+qLCHqVfyQeUTdw86eSp3dvV36/u4nsmdF2qM6+ofbX3InnQXY80bfZB4d+0vro8kBVa3JO5vdPpP9eau/muFKWAP+8l5pwCg7+zlVR7nW508Nvpot2rkBFx3jZUD68Bn54v1359f4g9dczgrrsTzqP7uwbiu1jOrfEJ5bQ4IyE/eK9+0EvpkvBfy3j50+H7VAHUxIkpmOv8ed49zIS/80+Sp66XsecsXPkB8uKh9WAwE+Yn4I/sCpemzxi+J4+WktY+1wvD9pDXctePIx5T/dCxOJo0vVmsJpWkcf46cEnGdKAX9hetjzNwYHTS3mDnJG1R/SsKGIxdfWPxC9tBOqzShdPSnQQuAK/5i+eN4VnwH58VVJFdnMstLn164+b7cVrD4l/hkUH1ud+sj+avG6emo/Lynm/hO9KEX1LfomjA68quk+bHOfCa55gIuameNT0feO5mv4i/J/xTMh7iayOD8TFF7uDo/0f4LHxsd82/NzXdifq/pfs3Ajb8n+Uas4Cs/n5kbWrTPfOVLYTxTs/uzYIlpJYhdrZw2LEZXfWzY77iS3EMB5MJWGl3m0HlIrslzclfo4thVAcSCoi9XMm319YxVNn5XyeQO4KoydwBX+LkDuNrSHcDXBm8ArkJ2B3BFuBuAr/PdAVwp8Q7gqpV3AFcQvQO8d1lPiroDW6PydKWxgbW04q3GwPsmxTebDIwjTorrAws5J+V7jkRPGgQGUp2TFoQbwJnVwGShb6O4AfhGjYHlhJNWkIHx8Wo2cctKCbo63E0J7uGprpt3DiwJtqg5ydVXSjVBdxnSAJSUWZzUASgrsxqXkgIobdi6m3TjvK3rDDdA4Rtb0Tl2qqwZkVU/XffOpHNAc9XrityqDy3uLHJCQ3Jt2KtVkBv5dOMKpsdWq6BrRqSLjqtc6ggcdf6tdsekAGLQq6GyKgDvJrmc5rM39hwwnGpw0GOcWVUjYRbOSLPuw02TdNS86foL/ULUQon9Jvbaeg/EmejpSluDU/sza25qcC1mZldcH1isWr27LvrB6KFoetnUkcqjBpB8lsV75KdXu4cEcBk90NOoPAB8F3+ZLZl04Es0TXMkZkfIAxlAdKlzUDldlWLZQr5Vpm0FhW8zdY2yzJ4T51t3MWQOka+4jL0P5SVTgp0+Q0ufjbubpruTv25lM0C0tdW7i0CSPWucnViNsu4iEJXbnz2jDwDnL+fUgojxG7wTM/XE3V+XUsDthSwxZPdXvmQO95fK5Lbu/bU1IbqlYOvsAkieNN2tkiZuIzr2BXD3B29uWYohyzdWw2mrRXZ4xcWdh5UM553W7pPEJ85dLc38LsR0+auVAWOrIQnWVNmQddfhkvl9GldCTQn50rryJUMKGClOd8UlTtalqsoXO7ssRxJjY75UXJ/FzZWvvOvmA8CJwekqT5E7dWbUVru7C+nB1Y4f1aIrGirFicjNNydEF4+DsSlxogMp4spVi5fmaKNqNaxhcnkUzS01bq511ciKLMOYlyxoweaG4Vh64Vc9/HVmTBX3od24mUPWrpQk4w3X7l45ytwcUDXHypFY99VmPDI9a3dGwkO8rmyJqcNm4h50/RPeLGruDn3Ce3Mmr4aRm7Od94i4X+uVHTnwGFusV3z0lZpEmaTuv4+v+LhXiDhI9a8c3ci7V5Ru5KPS2Yh1D/8KVET7tl6ZqipPr0x1zf3x+htxlfMb0RGvV7icvtErXK67Nu0LdpWwldRLRj9f3Ft9Ge1tycptCu5vCfqKUuE8ftPufm4WMXY4jvJ8DTy5NwjG3e0k8UcTi5fPR5xeHDx1i6/mMVGgiO330fUnGavB/hJ3kd14E5GUmJxNbGhUYtBNiB2Lke6pici1F/f02M1bca6lb51iymWr0iW+ItL0EC95LOFrS1PCFkb3dFRK2HLXTlrEuEWguvkGlC9T15NYQXMPekasNTeNQ9elGm7pc98nq9hcyMdvv7m62tIfXn/XAkhH8r0PpN7L2z+er7H+9vnLl7fHXF//v77ean96e/k1//w/);lineShape=1;strokeColor=#CC0000;sketch=1;hachureGap=4;jiggle=2;curveFitting=1;fontFamily=Architects Daughter;fontSource=https%3A%2F%2Ffonts.googleapis.com%2Fcss%3Ffamily%3DArchitects%2BDaughter;" vertex="1" parent="1">
          <mxGeometry x="365.18897496113823" y="991.2130157091078" width="793.4335437394518" height="239.4711937633656" as="geometry" />
        </mxCell>
      </root>
    </mxGraphModel>
  </diagram>
</mxfile>
